<svg width="50" height="50" viewBox="0 0 50 50" fill="none" xmlns="http://www.w3.org/2000/svg">
<path d="M35 20H43V12" stroke="#00A699" stroke-width="2" stroke-linecap="round" stroke-linejoin="round"/>
<path d="M36.3654 37.0208C33.9596 39.3983 30.8946 41.0174 27.5577 41.6733C24.2209 42.3293 20.7622 41.9926 17.619 40.7059C14.4757 39.4193 11.7892 37.2403 9.89903 34.4447C8.00887 31.6491 7 28.3623 7 25C7 21.6377 8.00887 18.3509 9.89903 15.5553C11.7892 12.7597 14.4757 10.5807 17.619 9.29405C20.7622 8.00737 24.2209 7.67071 27.5577 8.32666C30.8946 8.98261 33.9596 10.6017 36.3654 12.9792L43 19.536" stroke="#00A699" stroke-width="2" stroke-linecap="round" stroke-linejoin="round"/>
<path d="M15.3355 20.8755C15.4967 20.4941 15.7359 20.1506 16.0377 19.8672C16.3395 19.5837 16.6973 19.3665 17.0881 19.2295C17.4788 19.0925 17.8939 19.0387 18.3066 19.0717C18.7194 19.1046 19.1207 19.2235 19.4848 19.4207C19.8489 19.618 20.1677 19.8891 20.4207 20.2169C20.6738 20.5446 20.8555 20.9217 20.9541 21.3238C21.0528 21.726 21.0663 22.1443 20.9937 22.5519C20.9212 22.9596 20.7641 23.3476 20.5327 23.6909L15.1022 30.9373L21.0397 30.9365" stroke="#00A699" stroke-width="2" stroke-linecap="round" stroke-linejoin="round"/>
<path d="M26.977 18.0728L24.0085 26.979H29.946" stroke="#00A699" stroke-width="2" stroke-linecap="round" stroke-linejoin="round"/>
<path d="M29.946 23.0208V30.9374" stroke="#00A699" stroke-width="2" stroke-linecap="round" stroke-linejoin="round"/>
</svg>
