<svg width="50" height="50" viewBox="0 0 50 50" fill="none" xmlns="http://www.w3.org/2000/svg">
<path d="M25 14C27.7614 14 30 11.7614 30 9C30 6.23858 27.7614 4 25 4C22.2386 4 20 6.23858 20 9C20 11.7614 22.2386 14 25 14Z" stroke="#00A699" stroke-width="2" stroke-linecap="round" stroke-linejoin="round"/>
<path d="M29.804 26.6406L36.2183 31.6393C36.6338 32.0556 37.1972 32.2894 37.7847 32.2894C38.3723 32.2894 38.9357 32.0556 39.3512 31.6393C39.7666 31.2231 40 30.6585 40 30.0698C40 29.4812 39.7666 28.9166 39.3512 28.5004L32.0412 19.0835C31.6987 18.7395 31.2918 18.4667 30.8438 18.2807C30.3957 18.0948 29.9155 17.9994 29.4305 18H20.5695C20.0846 17.9994 19.6043 18.0948 19.1562 18.2807C18.7082 18.4667 18.3013 18.7395 17.9588 19.0835L10.6488 28.5004C10.4431 28.7065 10.28 28.9511 10.1686 29.2204C10.0573 29.4897 10 29.7784 10 30.0698C10 30.3613 10.0573 30.6499 10.1686 30.9192C10.28 31.1885 10.4431 31.4332 10.6488 31.6393C10.8545 31.8454 11.0987 32.0089 11.3675 32.1205C11.6363 32.232 11.9243 32.2894 12.2153 32.2894C12.5062 32.2894 12.7942 32.232 13.063 32.1205C13.3318 32.0089 13.576 31.8454 13.7817 31.6393L20.196 26.6406L15.0763 42.8424C14.828 43.3759 14.8014 43.9864 15.0023 44.5396C15.2033 45.0927 15.6153 45.5433 16.1478 45.792C16.6803 46.0408 17.2896 46.0675 17.8417 45.8661C18.3938 45.6648 18.8434 45.252 19.0917 44.7185L25 35.4016L30.9083 44.7185C31.1574 45.2507 31.607 45.6623 32.1586 45.8628C32.7101 46.0633 33.3185 46.0363 33.8503 45.7879C34.382 45.5395 34.7937 45.0898 34.9949 44.5376C35.1962 43.9854 35.1706 43.3757 34.9237 42.8424L29.804 26.6406Z" stroke="#00A699" stroke-width="2" stroke-linecap="round" stroke-linejoin="round"/>
</svg>
