<svg width="50" height="50" viewBox="0 0 50 50" fill="none" xmlns="http://www.w3.org/2000/svg">
<path d="M26.5625 28.125C30.0143 28.125 32.8125 25.3268 32.8125 21.875C32.8125 18.4232 30.0143 15.625 26.5625 15.625C23.1107 15.625 20.3125 18.4232 20.3125 21.875C20.3125 25.3268 23.1107 28.125 26.5625 28.125Z" stroke="#00A699" stroke-width="2" stroke-linecap="round" stroke-linejoin="round"/>
<path d="M6.25 21.0938H10.9375" stroke="#00A699" stroke-width="2" stroke-linecap="round" stroke-linejoin="round"/>
<path d="M6.25 13.2812H10.9375" stroke="#00A699" stroke-width="2" stroke-linecap="round" stroke-linejoin="round"/>
<path d="M6.25 28.9062H10.9375" stroke="#00A699" stroke-width="2" stroke-linecap="round" stroke-linejoin="round"/>
<path d="M6.25 36.7188H10.9375" stroke="#00A699" stroke-width="2" stroke-linecap="round" stroke-linejoin="round"/>
<path d="M17.1875 32.8125C18.2791 31.3571 19.6945 30.1758 21.3217 29.3622C22.9489 28.5486 24.7432 28.125 26.5625 28.125C28.3818 28.125 30.1761 28.5486 31.8033 29.3622C33.4305 30.1758 34.8459 31.3571 35.9375 32.8125" stroke="#00A699" stroke-width="2" stroke-linecap="round" stroke-linejoin="round"/>
<path d="M42.1875 42.1875V7.8125C42.1875 6.94956 41.4879 6.25 40.625 6.25L12.5 6.25C11.6371 6.25 10.9375 6.94956 10.9375 7.8125L10.9375 42.1875C10.9375 43.0504 11.6371 43.75 12.5 43.75H40.625C41.4879 43.75 42.1875 43.0504 42.1875 42.1875Z" stroke="#00A699" stroke-width="2" stroke-linecap="round" stroke-linejoin="round"/>
</svg>
