<svg width="50" height="50" viewBox="0 0 50 50" fill="none" xmlns="http://www.w3.org/2000/svg">
<path d="M4.6875 42.1875H32.8125" stroke="#00A699" stroke-width="2" stroke-linecap="round" stroke-linejoin="round"/>
<path d="M3.30079 27.4219L10.6641 34.3164C11.6459 35.2368 12.8985 35.8157 14.2358 35.967C15.573 36.1183 16.9233 35.834 18.0859 35.1563L47.6563 17.9688L44.0234 13.5156C43.0784 12.3615 41.7518 11.5834 40.2832 11.3219C38.8146 11.0604 37.3009 11.3328 36.0156 12.0899L27.3438 17.1875L15.625 13.2813L12.4024 14.668C12.1613 14.7713 11.95 14.9337 11.7882 15.1401C11.6264 15.3465 11.5191 15.5904 11.4763 15.8492C11.4335 16.108 11.4565 16.3734 11.5433 16.6209C11.63 16.8685 11.7777 17.0902 11.9727 17.2656L17.9688 22.6563L12.5 25.7813L7.03126 23.4375L3.75001 24.8438C3.51129 24.9463 3.3019 25.1068 3.14081 25.3106C2.97971 25.5145 2.87199 25.7552 2.82739 26.0112C2.78279 26.2672 2.80272 26.5302 2.88538 26.7765C2.96804 27.0228 3.11082 27.2447 3.30079 27.4219V27.4219Z" stroke="#00A699" stroke-width="2" stroke-linecap="round" stroke-linejoin="round"/>
</svg>
