<svg width="50" height="50" viewBox="0 0 50 50" fill="none" xmlns="http://www.w3.org/2000/svg">
<path d="M25 31.25L34.375 42.1875H15.625L25 31.25Z" stroke="#00A699" stroke-width="2" stroke-linecap="round" stroke-linejoin="round"/>
<path d="M12.5 37.5H9.375C8.5462 37.5 7.75134 37.1708 7.16529 36.5847C6.57924 35.9987 6.25 35.2038 6.25 34.375V12.5C6.25 11.6712 6.57924 10.8763 7.16529 10.2903C7.75134 9.70424 8.5462 9.375 9.375 9.375H40.625C41.4538 9.375 42.2487 9.70424 42.8347 10.2903C43.4208 10.8763 43.75 11.6712 43.75 12.5V34.375C43.75 35.2038 43.4208 35.9987 42.8347 36.5847C42.2487 37.1708 41.4538 37.5 40.625 37.5H37.5" stroke="#00A699" stroke-width="2" stroke-linecap="round" stroke-linejoin="round"/>
</svg>
