<svg width="50" height="50" viewBox="0 0 50 50" fill="none" xmlns="http://www.w3.org/2000/svg">
<path d="M18.75 42.1875H46.875" stroke="#00A699" stroke-width="2" stroke-linecap="round" stroke-linejoin="round"/>
<path d="M4.68751 20.254V9.9806C4.68749 9.73352 4.74606 9.48997 4.85842 9.26992C4.97077 9.04987 5.13371 8.8596 5.33386 8.71474C5.53401 8.56987 5.76565 8.47453 6.00979 8.43654C6.25393 8.39856 6.50359 8.41901 6.73829 8.49622L9.37501 9.37513L12.5 15.2345L18.75 17.1876V9.9806C18.75 9.73352 18.8086 9.48997 18.9209 9.26992C19.0333 9.04987 19.1962 8.8596 19.3964 8.71474C19.5965 8.56987 19.8282 8.47453 20.0723 8.43654C20.3164 8.39856 20.5661 8.41901 20.8008 8.49622L23.4375 9.37513L29.6875 20.3126L39.1797 22.9493C40.4952 23.313 41.6549 24.0986 42.4806 25.1854C43.3063 26.2722 43.7523 27.6001 43.75 28.965V35.9376L9.25782 26.2697C7.94229 25.906 6.78257 25.1204 5.95688 24.0336C5.1312 22.9468 4.68523 21.6189 4.68751 20.254V20.254Z" stroke="#00A699" stroke-width="2" stroke-linecap="round" stroke-linejoin="round"/>
</svg>
