<svg width="50" height="50" viewBox="0 0 50 50" fill="none" xmlns="http://www.w3.org/2000/svg">
<path d="M14.0625 42.1875H42.1875" stroke="#00A699" stroke-width="2" stroke-linecap="round" stroke-linejoin="round"/>
<path d="M5.23437 15.625H8.59374L12.5 20.3125H18.75L16.3086 12.9883C16.2314 12.7536 16.2109 12.5039 16.2489 12.2598C16.2869 12.0156 16.3822 11.784 16.5271 11.5839C16.672 11.3837 16.8622 11.2208 17.0823 11.1084C17.3023 10.9961 17.5459 10.9375 17.793 10.9375H21.0937L29.6875 20.3125H40.625C42.2826 20.3125 43.8723 20.971 45.0444 22.1431C46.2165 23.3152 46.875 24.9049 46.875 26.5625V31.25H12.4609C11.1186 31.2479 9.81262 30.8138 8.73624 30.0118C7.65986 29.2098 6.87028 28.0825 6.48437 26.7969L3.73046 17.6367C3.66024 17.4028 3.64584 17.1557 3.6884 16.9152C3.73096 16.6747 3.8293 16.4475 3.97553 16.2519C4.12177 16.0563 4.31182 15.8977 4.53043 15.7888C4.74905 15.68 4.99014 15.6238 5.23437 15.625V15.625Z" stroke="#00A699" stroke-width="2" stroke-linecap="round" stroke-linejoin="round"/>
</svg>
