<svg width="50" height="50" viewBox="0 0 50 50" fill="none" xmlns="http://www.w3.org/2000/svg">
<path d="M40.918 15.7034L34.3555 21.8753L40.6055 39.0628L35.918 43.7503L26.582 30.0784L21.8555 34.3753V39.0628L17.168 43.7503L14.3945 35.5667L6.23047 32.8128L10.918 28.1253H15.6055L20.293 23.4378L6.23047 14.0628L10.918 9.37532L28.1055 15.6253L34.2969 9.08235L34.1602 9.18001C35.0408 8.2994 36.2351 7.80469 37.4805 7.80469C38.7258 7.80469 39.9202 8.2994 40.8008 9.18001C41.6814 10.0606 42.1761 11.255 42.1761 12.5003C42.1761 13.7457 41.6814 14.94 40.8008 15.8206L40.918 15.7034Z" stroke="#00A699" stroke-width="2" stroke-linecap="round" stroke-linejoin="round"/>
</svg>
