<svg width="50" height="50" viewBox="0 0 50 50" fill="none" xmlns="http://www.w3.org/2000/svg">
<path d="M42.1875 21.875C42.1875 31.3672 31.25 45.3125 25 45.3125C18.75 45.3125 7.8125 31.3672 7.8125 21.875C7.8125 17.3166 9.62332 12.9449 12.8466 9.7216C16.0699 6.49832 20.4416 4.6875 25 4.6875C29.5584 4.6875 33.9301 6.49832 37.1534 9.7216C40.3767 12.9449 42.1875 17.3166 42.1875 21.875V21.875Z" stroke="#00A699" stroke-width="2" stroke-linecap="round" stroke-linejoin="round"/>
<path d="M20.3125 28.9062C18.6549 28.9062 17.0652 28.2478 15.8931 27.0757C14.721 25.9036 14.0625 24.3139 14.0625 22.6562V21.875C14.0625 21.4606 14.2271 21.0632 14.5201 20.7701C14.8132 20.4771 15.2106 20.3125 15.625 20.3125C17.2826 20.3125 18.8723 20.971 20.0444 22.1431C21.2165 23.3152 21.875 24.9049 21.875 26.5625V27.3438C21.875 27.7582 21.7104 28.1556 21.4174 28.4486C21.1243 28.7416 20.7269 28.9062 20.3125 28.9062V28.9062Z" stroke="#00A699" stroke-width="2" stroke-linecap="round" stroke-linejoin="round"/>
<path d="M34.375 20.3125C34.7894 20.3125 35.1868 20.4771 35.4799 20.7701C35.7729 21.0632 35.9375 21.4606 35.9375 21.875V22.6562C35.9375 24.3139 35.279 25.9036 34.1069 27.0757C32.9348 28.2478 31.3451 28.9062 29.6875 28.9062C29.2731 28.9062 28.8757 28.7416 28.5826 28.4486C28.2896 28.1556 28.125 27.7582 28.125 27.3438V26.5625C28.125 24.9049 28.7835 23.3152 29.9556 22.1431C31.1277 20.971 32.7174 20.3125 34.375 20.3125Z" stroke="#00A699" stroke-width="2" stroke-linecap="round" stroke-linejoin="round"/>
<path d="M21.875 35.9375H28.125" stroke="#00A699" stroke-width="2" stroke-linecap="round" stroke-linejoin="round"/>
</svg>
