<svg width="50" height="50" viewBox="0 0 50 50" fill="none" xmlns="http://www.w3.org/2000/svg">
<path d="M42.1875 7.8125V42.1875" stroke="#00A699" stroke-width="2" stroke-linecap="round" stroke-linejoin="round"/>
<path d="M15.625 21.875L34.375 21.875C35.2379 21.875 35.9375 21.1754 35.9375 20.3125V12.5C35.9375 11.6371 35.2379 10.9375 34.375 10.9375L15.625 10.9375C14.7621 10.9375 14.0625 11.6371 14.0625 12.5V20.3125C14.0625 21.1754 14.7621 21.875 15.625 21.875Z" stroke="#00A699" stroke-width="2" stroke-linecap="round" stroke-linejoin="round"/>
<path d="M34.375 28.125H7.8125C6.94956 28.125 6.25 28.8246 6.25 29.6875V37.5C6.25 38.3629 6.94956 39.0625 7.8125 39.0625H34.375C35.2379 39.0625 35.9375 38.3629 35.9375 37.5V29.6875C35.9375 28.8246 35.2379 28.125 34.375 28.125Z" stroke="#00A699" stroke-width="2" stroke-linecap="round" stroke-linejoin="round"/>
</svg>
