<svg width="50" height="50" viewBox="0 0 50 50" fill="none" xmlns="http://www.w3.org/2000/svg">
<path d="M43.75 25H39.0625" stroke="#00A699" stroke-width="2" stroke-linecap="round" stroke-linejoin="round"/>
<path d="M10.9375 25H6.25" stroke="#00A699" stroke-width="2" stroke-linecap="round" stroke-linejoin="round"/>
<path d="M28.125 25H21.875" stroke="#00A699" stroke-width="2" stroke-linecap="round" stroke-linejoin="round"/>
<path d="M39.0625 35.9375V14.0625C39.0625 13.1996 38.3629 12.5 37.5 12.5H29.6875C28.8246 12.5 28.125 13.1996 28.125 14.0625V35.9375C28.125 36.8004 28.8246 37.5 29.6875 37.5H37.5C38.3629 37.5 39.0625 36.8004 39.0625 35.9375Z" stroke="#00A699" stroke-width="2" stroke-linecap="round" stroke-linejoin="round"/>
<path d="M20.3125 7.8125H12.5C11.6371 7.8125 10.9375 8.51206 10.9375 9.375V40.625C10.9375 41.4879 11.6371 42.1875 12.5 42.1875H20.3125C21.1754 42.1875 21.875 41.4879 21.875 40.625V9.375C21.875 8.51206 21.1754 7.8125 20.3125 7.8125Z" stroke="#00A699" stroke-width="2" stroke-linecap="round" stroke-linejoin="round"/>
</svg>
