<svg width="50" height="50" viewBox="0 0 50 50" fill="none" xmlns="http://www.w3.org/2000/svg">
<path d="M42.1875 42.1875H7.8125" stroke="#00A699" stroke-width="2" stroke-linecap="round" stroke-linejoin="round"/>
<path d="M28.125 15.625V34.375C28.125 35.2379 28.8246 35.9375 29.6875 35.9375H37.5C38.3629 35.9375 39.0625 35.2379 39.0625 34.375V15.625C39.0625 14.7621 38.3629 14.0625 37.5 14.0625H29.6875C28.8246 14.0625 28.125 14.7621 28.125 15.625Z" stroke="#00A699" stroke-width="2" stroke-linecap="round" stroke-linejoin="round"/>
<path d="M20.3125 6.25H12.5C11.6371 6.25 10.9375 6.94956 10.9375 7.8125V34.375C10.9375 35.2379 11.6371 35.9375 12.5 35.9375H20.3125C21.1754 35.9375 21.875 35.2379 21.875 34.375V7.8125C21.875 6.94956 21.1754 6.25 20.3125 6.25Z" stroke="#00A699" stroke-width="2" stroke-linecap="round" stroke-linejoin="round"/>
</svg>
