<svg width="50" height="50" viewBox="0 0 50 50" fill="none" xmlns="http://www.w3.org/2000/svg">
<path d="M25 6.25V10.9375" stroke="#00A699" stroke-width="2" stroke-linecap="round" stroke-linejoin="round"/>
<path d="M25 39.0625V43.75" stroke="#00A699" stroke-width="2" stroke-linecap="round" stroke-linejoin="round"/>
<path d="M25 21.875V28.125" stroke="#00A699" stroke-width="2" stroke-linecap="round" stroke-linejoin="round"/>
<path d="M35.9375 10.9375H14.0625C13.1996 10.9375 12.5 11.6371 12.5 12.5V20.3125C12.5 21.1754 13.1996 21.875 14.0625 21.875H35.9375C36.8004 21.875 37.5 21.1754 37.5 20.3125V12.5C37.5 11.6371 36.8004 10.9375 35.9375 10.9375Z" stroke="#00A699" stroke-width="2" stroke-linecap="round" stroke-linejoin="round"/>
<path d="M40.625 28.125H9.375C8.51206 28.125 7.8125 28.8246 7.8125 29.6875V37.5C7.8125 38.3629 8.51206 39.0625 9.375 39.0625H40.625C41.4879 39.0625 42.1875 38.3629 42.1875 37.5V29.6875C42.1875 28.8246 41.4879 28.125 40.625 28.125Z" stroke="#00A699" stroke-width="2" stroke-linecap="round" stroke-linejoin="round"/>
</svg>
