<svg width="50" height="50" viewBox="0 0 50 50" fill="none" xmlns="http://www.w3.org/2000/svg">
<path d="M7.8125 7.8125V42.1875" stroke="#00A699" stroke-width="2" stroke-linecap="round" stroke-linejoin="round"/>
<path d="M34.375 10.9375H15.625C14.7621 10.9375 14.0625 11.6371 14.0625 12.5V20.3125C14.0625 21.1754 14.7621 21.875 15.625 21.875H34.375C35.2379 21.875 35.9375 21.1754 35.9375 20.3125V12.5C35.9375 11.6371 35.2379 10.9375 34.375 10.9375Z" stroke="#00A699" stroke-width="2" stroke-linecap="round" stroke-linejoin="round"/>
<path d="M42.1875 28.125H15.625C14.7621 28.125 14.0625 28.8246 14.0625 29.6875V37.5C14.0625 38.3629 14.7621 39.0625 15.625 39.0625H42.1875C43.0504 39.0625 43.75 38.3629 43.75 37.5V29.6875C43.75 28.8246 43.0504 28.125 42.1875 28.125Z" stroke="#00A699" stroke-width="2" stroke-linecap="round" stroke-linejoin="round"/>
</svg>
