<svg width="50" height="50" viewBox="0 0 50 50" fill="none" xmlns="http://www.w3.org/2000/svg">
<path d="M42.1875 7.8125H7.8125" stroke="#00A699" stroke-width="2" stroke-linecap="round" stroke-linejoin="round"/>
<path d="M39.0625 34.375V15.625C39.0625 14.7621 38.3629 14.0625 37.5 14.0625H29.6875C28.8246 14.0625 28.125 14.7621 28.125 15.625V34.375C28.125 35.2379 28.8246 35.9375 29.6875 35.9375H37.5C38.3629 35.9375 39.0625 35.2379 39.0625 34.375Z" stroke="#00A699" stroke-width="2" stroke-linecap="round" stroke-linejoin="round"/>
<path d="M20.3125 14.0625H12.5C11.6371 14.0625 10.9375 14.7621 10.9375 15.625V42.1875C10.9375 43.0504 11.6371 43.75 12.5 43.75H20.3125C21.1754 43.75 21.875 43.0504 21.875 42.1875V15.625C21.875 14.7621 21.1754 14.0625 20.3125 14.0625Z" stroke="#00A699" stroke-width="2" stroke-linecap="round" stroke-linejoin="round"/>
</svg>
