<svg width="50" height="50" viewBox="0 0 50 50" fill="none" xmlns="http://www.w3.org/2000/svg">
<path d="M25 45.3125V14.0625" stroke="#00A699" stroke-width="2" stroke-linecap="round" stroke-linejoin="round"/>
<path d="M25 14.0625C27.1574 14.0625 28.9062 12.3136 28.9062 10.1562C28.9062 7.99889 27.1574 6.25 25 6.25C22.8426 6.25 21.0938 7.99889 21.0938 10.1562C21.0938 12.3136 22.8426 14.0625 25 14.0625Z" stroke="#00A699" stroke-width="2" stroke-linecap="round" stroke-linejoin="round"/>
<path d="M17.1875 21.875H32.8125" stroke="#00A699" stroke-width="2" stroke-linecap="round" stroke-linejoin="round"/>
<path d="M7.8125 28.125C7.8125 30.6114 8.80022 32.996 10.5584 34.7541C12.3165 36.5123 14.7011 37.5 17.1875 37.5C19.2595 37.5 21.2466 38.3231 22.7118 39.7882C24.1769 41.2534 25 43.2405 25 45.3125C25 43.2405 25.8231 41.2534 27.2882 39.7882C28.7534 38.3231 30.7405 37.5 32.8125 37.5C35.2989 37.5 37.6835 36.5123 39.4416 34.7541C41.1998 32.996 42.1875 30.6114 42.1875 28.125" stroke="#00A699" stroke-width="2" stroke-linecap="round" stroke-linejoin="round"/>
</svg>
