<svg width="50" height="50" viewBox="0 0 50 50" fill="none" xmlns="http://www.w3.org/2000/svg">
<path d="M32.0312 32.8125C33.3257 32.8125 34.375 31.7632 34.375 30.4688C34.375 29.1743 33.3257 28.125 32.0312 28.125C30.7368 28.125 29.6875 29.1743 29.6875 30.4688C29.6875 31.7632 30.7368 32.8125 32.0312 32.8125Z" fill="#00A699"/>
<path d="M17.9688 32.8125C19.2632 32.8125 20.3125 31.7632 20.3125 30.4688C20.3125 29.1743 19.2632 28.125 17.9688 28.125C16.6743 28.125 15.625 29.1743 15.625 30.4688C15.625 31.7632 16.6743 32.8125 17.9688 32.8125Z" fill="#00A699"/>
<path d="M4.6875 37.5001V33.0275C4.6875 21.797 13.7109 12.5392 24.9219 12.5002C27.5959 12.4899 30.2457 13.0077 32.7191 14.0239C35.1926 15.0401 37.441 16.5346 39.3355 18.4219C41.23 20.3091 42.7332 22.5518 43.7589 25.0213C44.7845 27.4908 45.3125 30.1386 45.3125 32.8127V37.5001C45.3125 37.9145 45.1479 38.312 44.8549 38.605C44.5618 38.898 44.1644 39.0626 43.75 39.0626H6.25C5.8356 39.0626 5.43817 38.898 5.14515 38.605C4.85212 38.312 4.6875 37.9145 4.6875 37.5001Z" stroke="#00A699" stroke-width="2" stroke-linecap="round" stroke-linejoin="round"/>
<path d="M6.25 10.9375L12.3242 17.0117" stroke="#00A699" stroke-width="2" stroke-linecap="round" stroke-linejoin="round"/>
<path d="M43.75 10.9375L37.7148 16.9727" stroke="#00A699" stroke-width="2" stroke-linecap="round" stroke-linejoin="round"/>
</svg>
