<svg width="50" height="50" viewBox="0 0 50 50" fill="none" xmlns="http://www.w3.org/2000/svg">
<path d="M25 28.125C27.5888 28.125 29.6875 26.0263 29.6875 23.4375C29.6875 20.8487 27.5888 18.75 25 18.75C22.4112 18.75 20.3125 20.8487 20.3125 23.4375C20.3125 26.0263 22.4112 28.125 25 28.125Z" stroke="#00A699" stroke-width="2" stroke-linecap="round" stroke-linejoin="round"/>
<path d="M25.5664 43.75H24.4336C23.7098 43.7501 23.0084 43.499 22.4491 43.0395C21.8899 42.58 21.5075 41.9406 21.3672 41.2305L19.4922 31.8555C19.4028 31.4025 19.4148 30.9352 19.5275 30.4874C19.6402 30.0396 19.8507 29.6224 20.1439 29.2656C20.4371 28.9089 20.8058 28.6216 21.2233 28.4244C21.6408 28.2272 22.0969 28.1249 22.5586 28.125H27.4414C27.9032 28.1249 28.3593 28.2272 28.7768 28.4244C29.1943 28.6216 29.563 28.9089 29.8562 29.2656C30.1494 29.6224 30.3599 30.0396 30.4726 30.4874C30.5853 30.9352 30.5973 31.4025 30.5079 31.8555L28.6329 41.2305C28.4926 41.9406 28.1102 42.58 27.551 43.0395C26.9917 43.499 26.2903 43.7501 25.5664 43.75V43.75Z" stroke="#00A699" stroke-width="2" stroke-linecap="round" stroke-linejoin="round"/>
<path d="M13.3398 29.5311C12.6082 27.6373 12.3489 25.5938 12.5843 23.5773C12.8197 21.5608 13.5427 19.6319 14.6909 17.9575C15.839 16.2832 17.3777 14.9136 19.1739 13.9674C20.9701 13.0211 22.9698 12.5266 25 12.5266C27.0302 12.5266 29.0299 13.0211 30.8261 13.9674C32.6223 14.9136 34.161 16.2832 35.3091 17.9575C36.4573 19.6319 37.1803 21.5608 37.4157 23.5773C37.6511 25.5938 37.3918 27.6373 36.6602 29.5311" stroke="#00A699" stroke-width="2" stroke-linecap="round" stroke-linejoin="round"/>
<path d="M14.9219 40.8009C11.5006 38.6202 8.87904 35.3887 7.45059 31.5913C6.02214 27.794 5.86392 23.6357 6.99969 19.7408C8.13546 15.8459 10.5039 12.4245 13.7496 9.99008C16.9952 7.5557 20.9429 6.23975 25 6.23975C29.0571 6.23975 33.0048 7.5557 36.2504 9.99008C39.4961 12.4245 41.8645 15.8459 43.0003 19.7408C44.1361 23.6357 43.9779 27.794 42.5494 31.5913C41.121 35.3887 38.4994 38.6202 35.0781 40.8009" stroke="#00A699" stroke-width="2" stroke-linecap="round" stroke-linejoin="round"/>
</svg>
