<svg width="50" height="50" viewBox="0 0 50 50" fill="none" xmlns="http://www.w3.org/2000/svg">
<path d="M26.9727 6.34766C27.427 5.16798 28.2283 4.1538 29.2709 3.43897C30.3135 2.72413 31.5484 2.34226 32.8125 2.34375" stroke="#00A699" stroke-width="2" stroke-linecap="round" stroke-linejoin="round"/>
<path d="M42.6758 31.8164C40.2148 37.832 35.7617 42.1875 32.0312 42.1875H17.9688C12.5 42.1875 5.46875 32.8125 5.46875 22.6562C5.46956 20.3944 6.12492 18.1811 7.35575 16.2834C8.58659 14.3858 10.3403 12.8849 12.4052 11.9618C14.4702 11.0388 16.7581 10.7331 18.993 11.0816C21.2279 11.4301 23.3141 12.4179 25 13.9258V13.9258C26.1934 12.8566 27.5933 12.0436 29.1132 11.5369C30.6332 11.0301 32.2409 10.8404 33.8371 10.9796C35.4333 11.1187 36.9839 11.5836 38.3933 12.3457C39.8027 13.1077 41.0408 14.1507 42.0312 15.4101V15.4101C40.5958 16.2769 39.4191 17.5129 38.6237 18.9891C37.8284 20.4654 37.4436 22.128 37.5095 23.8036C37.5753 25.4791 38.0893 27.1064 38.998 28.5157C39.9067 29.9251 41.1767 31.0649 42.6758 31.8164V31.8164Z" stroke="#00A699" stroke-width="2" stroke-linecap="round" stroke-linejoin="round"/>
</svg>
