<svg width="50" height="50" viewBox="0 0 50 50" fill="none" xmlns="http://www.w3.org/2000/svg">
<path d="M42.1875 9.375H7.8125C6.94956 9.375 6.25 10.0746 6.25 10.9375V39.0625C6.25 39.9254 6.94956 40.625 7.8125 40.625H42.1875C43.0504 40.625 43.75 39.9254 43.75 39.0625V10.9375C43.75 10.0746 43.0504 9.375 42.1875 9.375Z" stroke="#00A699" stroke-width="2" stroke-linecap="round" stroke-linejoin="round"/>
<path d="M13.2812 18.75C14.5757 18.75 15.625 17.7007 15.625 16.4062C15.625 15.1118 14.5757 14.0625 13.2812 14.0625C11.9868 14.0625 10.9375 15.1118 10.9375 16.4062C10.9375 17.7007 11.9868 18.75 13.2812 18.75Z" fill="#00A699"/>
<path d="M21.0938 18.75C22.3882 18.75 23.4375 17.7007 23.4375 16.4062C23.4375 15.1118 22.3882 14.0625 21.0938 14.0625C19.7993 14.0625 18.75 15.1118 18.75 16.4062C18.75 17.7007 19.7993 18.75 21.0938 18.75Z" fill="#00A699"/>
</svg>
