<svg width="50" height="50" viewBox="0 0 50 50" fill="none" xmlns="http://www.w3.org/2000/svg">
<path d="M40.625 7.8125H9.375C8.51206 7.8125 7.8125 8.51206 7.8125 9.375V40.625C7.8125 41.4879 8.51206 42.1875 9.375 42.1875H40.625C41.4879 42.1875 42.1875 41.4879 42.1875 40.625V9.375C42.1875 8.51206 41.4879 7.8125 40.625 7.8125Z" stroke="#00A699" stroke-width="2" stroke-linecap="round" stroke-linejoin="round"/>
<path d="M18.3788 23.0663L24.9999 29.6874L31.621 23.0663" stroke="#00A699" stroke-width="2" stroke-linecap="round" stroke-linejoin="round"/>
<path d="M25 14.0625V29.6875" stroke="#00A699" stroke-width="2" stroke-linecap="round" stroke-linejoin="round"/>
<path d="M7.8125 31.25H14.9805C15.1834 31.2493 15.3844 31.2886 15.5721 31.3657C15.7598 31.4428 15.9304 31.5561 16.0742 31.6992L19.8633 35.4883C20.0071 35.6314 20.1777 35.7447 20.3654 35.8218C20.5531 35.8989 20.7541 35.9382 20.957 35.9375H29.043C29.2459 35.9382 29.4469 35.8989 29.6346 35.8218C29.8223 35.7447 29.9929 35.6314 30.1367 35.4883L33.9258 31.6992C34.0696 31.5561 34.2402 31.4428 34.4279 31.3657C34.6156 31.2886 34.8166 31.2493 35.0195 31.25H42.1875" stroke="#00A699" stroke-width="2" stroke-linecap="round" stroke-linejoin="round"/>
</svg>
