<svg width="50" height="50" viewBox="0 0 50 50" fill="none" xmlns="http://www.w3.org/2000/svg">
<path d="M15.625 26.5625H34.375" stroke="#00A699" stroke-width="2" stroke-linecap="round" stroke-linejoin="round"/>
<path d="M9.375 18.75V14.0625C9.375 12.4049 10.0335 10.8152 11.2056 9.64308C12.3777 8.47098 13.9674 7.8125 15.625 7.8125H34.375C36.0326 7.8125 37.6223 8.47098 38.7944 9.64308C39.9665 10.8152 40.625 12.4049 40.625 14.0625V18.75" stroke="#00A699" stroke-width="2" stroke-linecap="round" stroke-linejoin="round"/>
<path d="M15.625 32.8125V25C15.625 23.7639 15.2584 22.5555 14.5717 21.5277C13.8849 20.4999 12.9088 19.6988 11.7668 19.2258C10.6247 18.7527 9.36807 18.6289 8.15569 18.8701C6.94331 19.1113 5.82966 19.7065 4.95559 20.5806C4.08151 21.4547 3.48625 22.5683 3.24509 23.7807C3.00394 24.9931 3.12771 26.2497 3.60076 27.3918C4.0738 28.5338 4.87488 29.5099 5.90269 30.1967C6.9305 30.8834 8.13887 31.25 9.375 31.25V39.0625C9.375 39.4769 9.53962 39.8743 9.83265 40.1674C10.1257 40.4604 10.5231 40.625 10.9375 40.625H39.0625C39.4769 40.625 39.8743 40.4604 40.1674 40.1674C40.4604 39.8743 40.625 39.4769 40.625 39.0625V31.25C41.8611 31.25 43.0695 30.8834 44.0973 30.1967C45.1251 29.5099 45.9262 28.5338 46.3993 27.3918C46.8723 26.2497 46.9961 24.9931 46.7549 23.7807C46.5138 22.5683 45.9185 21.4547 45.0444 20.5806C44.1703 19.7065 43.0567 19.1113 41.8443 18.8701C40.6319 18.6289 39.3753 18.7527 38.2332 19.2258C37.0912 19.6988 36.1151 20.4999 35.4283 21.5277C34.7416 22.5555 34.375 23.7639 34.375 25V32.8125" stroke="#00A699" stroke-width="2" stroke-linecap="round" stroke-linejoin="round"/>
</svg>
