<svg width="50" height="50" viewBox="0 0 50 50" fill="none" xmlns="http://www.w3.org/2000/svg">
<path d="M34.4141 19.4727H43.7891V10.0977" stroke="#00A699" stroke-width="2" stroke-linecap="round" stroke-linejoin="round"/>
<path d="M12.8515 12.8516C14.446 11.2547 16.3397 9.9879 18.4243 9.12356C20.5088 8.25922 22.7433 7.81433 24.9999 7.81433C27.2566 7.81433 29.4911 8.25922 31.5756 9.12356C33.6602 9.9879 35.5539 11.2547 37.1484 12.8516L43.789 19.4727" stroke="#00A699" stroke-width="2" stroke-linecap="round" stroke-linejoin="round"/>
<path d="M15.5859 30.5273H6.21088V39.9023" stroke="#00A699" stroke-width="2" stroke-linecap="round" stroke-linejoin="round"/>
<path d="M37.1484 37.1484C35.5539 38.7452 33.6602 40.012 31.5756 40.8764C29.4911 41.7407 27.2566 42.1856 24.9999 42.1856C22.7433 42.1856 20.5088 41.7407 18.4243 40.8764C16.3397 40.012 14.446 38.7452 12.8515 37.1484L6.21088 30.5273" stroke="#00A699" stroke-width="2" stroke-linecap="round" stroke-linejoin="round"/>
</svg>
