<svg width="50" height="50" viewBox="0 0 50 50" fill="none" xmlns="http://www.w3.org/2000/svg">
<path d="M25 32.8125C29.3147 32.8125 32.8125 29.3147 32.8125 25C32.8125 20.6853 29.3147 17.1875 25 17.1875C20.6853 17.1875 17.1875 20.6853 17.1875 25C17.1875 29.3147 20.6853 32.8125 25 32.8125Z" stroke="#00A699" stroke-width="2" stroke-linecap="round" stroke-linejoin="round"/>
<path d="M35.3711 40.6252C31.8908 42.9359 27.7386 44.0182 23.5732 43.7003C19.4078 43.3824 15.4678 41.6825 12.3785 38.8704C9.28922 36.0584 7.22749 32.2951 6.5205 28.1779C5.8135 24.0606 6.50172 19.8252 8.47596 16.1436C10.4502 12.462 13.5974 9.54522 17.4181 7.85597C21.2389 6.16672 25.5143 5.8018 29.5661 6.81911C33.6178 7.83642 37.2138 10.1777 39.7834 13.4714C42.353 16.7652 43.749 20.8227 43.75 25.0002C43.75 29.3166 42.1875 32.8127 38.2813 32.8127C34.375 32.8127 32.8125 29.3166 32.8125 25.0002V17.1877" stroke="#00A699" stroke-width="2" stroke-linecap="round" stroke-linejoin="round"/>
</svg>
