<svg width="50" height="50" viewBox="0 0 50 50" fill="none" xmlns="http://www.w3.org/2000/svg">
<path d="M41.0242 41.0202C44.3802 37.6642 39.9283 27.771 31.0805 18.9231C22.2327 10.0753 12.3395 5.62339 8.98341 8.97945C5.62734 12.3355 10.0793 22.2287 18.9271 31.0765C27.7749 39.9244 37.6681 44.3763 41.0242 41.0202Z" stroke="#00A699" stroke-width="2" stroke-linecap="round" stroke-linejoin="round"/>
<path d="M31.0805 31.0769C39.9283 22.229 44.3802 12.3358 41.0242 8.97977C37.6681 5.6237 27.7749 10.0756 18.9271 18.9235C10.0793 27.7713 5.62734 37.6645 8.98341 41.0205C12.3395 44.3766 22.2327 39.9247 31.0805 31.0769Z" stroke="#00A699" stroke-width="2" stroke-linecap="round" stroke-linejoin="round"/>
<path d="M25 27.3438C26.2944 27.3438 27.3438 26.2944 27.3438 25C27.3438 23.7056 26.2944 22.6562 25 22.6562C23.7056 22.6562 22.6562 23.7056 22.6562 25C22.6562 26.2944 23.7056 27.3438 25 27.3438Z" fill="#00A699"/>
</svg>
