<svg width="50" height="50" viewBox="0 0 50 50" fill="none" xmlns="http://www.w3.org/2000/svg">
<path d="M31.7139 14.9997L13.8616 32.6433C13.2186 33.2684 12.8574 34.1162 12.8574 35.0003C12.8574 35.8843 13.2186 36.7321 13.8616 37.3572C14.5046 37.9823 15.3767 38.3335 16.2861 38.3335C17.1954 38.3335 18.0675 37.9823 18.7105 37.3572L39.9915 16.3804C40.6283 15.7614 41.1334 15.0265 41.478 14.2177C41.8226 13.4088 42 12.542 42 11.6665C42 10.791 41.8226 9.92416 41.478 9.11534C41.1334 8.30652 40.6283 7.57161 39.9915 6.95257C39.3547 6.33353 38.5988 5.84248 37.7668 5.50746C36.9348 5.17243 36.0431 5 35.1426 5C34.2421 5 33.3504 5.17243 32.5184 5.50746C31.6864 5.84248 30.9305 6.33353 30.2937 6.95257L9.01272 27.9294C7.08371 29.8047 6 32.3482 6 35.0003C6 37.6524 7.08371 40.1958 9.01272 42.0711C10.9417 43.9465 13.558 45 16.2861 45C19.0141 45 21.6304 43.9465 23.5594 42.0711L41.1428 24.9995" stroke="#00A699" stroke-width="2" stroke-linecap="round" stroke-linejoin="round"/>
</svg>
