<svg width="50" height="50" viewBox="0 0 50 50" fill="none" xmlns="http://www.w3.org/2000/svg">
<path d="M25 43.75C35.3553 43.75 43.75 35.3553 43.75 25C43.75 14.6447 35.3553 6.25 25 6.25C14.6447 6.25 6.25 14.6447 6.25 25C6.25 35.3553 14.6447 43.75 25 43.75Z" stroke="#00A699" stroke-width="2" stroke-linecap="round" stroke-linejoin="round"/>
<path d="M17.9688 27.3438C19.2632 27.3438 20.3125 26.2944 20.3125 25C20.3125 23.7056 19.2632 22.6562 17.9688 22.6562C16.6743 22.6562 15.625 23.7056 15.625 25C15.625 26.2944 16.6743 27.3438 17.9688 27.3438Z" fill="#00A699"/>
<path d="M32.0312 27.3438C33.3257 27.3438 34.375 26.2944 34.375 25C34.375 23.7056 33.3257 22.6562 32.0312 22.6562C30.7368 22.6562 29.6875 23.7056 29.6875 25C29.6875 26.2944 30.7368 27.3438 32.0312 27.3438Z" fill="#00A699"/>
<path d="M30.1758 32.8125C28.6419 33.8312 26.8414 34.3746 25 34.3746C23.1586 34.3746 21.3581 33.8312 19.8242 32.8125" stroke="#00A699" stroke-width="2" stroke-linecap="round" stroke-linejoin="round"/>
<path d="M25 6.25C21.875 10.1562 21.875 14.0625 21.875 14.0625C21.875 14.8913 22.2042 15.6862 22.7903 16.2722C23.3763 16.8583 24.1712 17.1875 25 17.1875C25.8288 17.1875 26.6237 16.8583 27.2097 16.2722C27.7958 15.6862 28.125 14.8913 28.125 14.0625" stroke="#00A699" stroke-width="2" stroke-linecap="round" stroke-linejoin="round"/>
</svg>
