<svg width="50" height="50" viewBox="0 0 50 50" fill="none" xmlns="http://www.w3.org/2000/svg">
<path d="M12.0508 39.8633L3.125 25L12.0508 10.1367C12.1867 9.90516 12.3808 9.7131 12.6137 9.57951C12.8466 9.44592 13.1104 9.37542 13.3789 9.375H42.1875C42.6019 9.375 42.9993 9.53962 43.2924 9.83265C43.5854 10.1257 43.75 10.5231 43.75 10.9375V39.0625C43.75 39.4769 43.5854 39.8743 43.2924 40.1674C42.9993 40.4604 42.6019 40.625 42.1875 40.625H13.3789C13.1104 40.6246 12.8466 40.5541 12.6137 40.4205C12.3808 40.2869 12.1867 40.0948 12.0508 39.8633V39.8633Z" stroke="#00A699" stroke-width="2" stroke-linecap="round" stroke-linejoin="round"/>
<path d="M31.25 20.3125L21.875 29.6875" stroke="#00A699" stroke-width="2" stroke-linecap="round" stroke-linejoin="round"/>
<path d="M31.25 29.6875L21.875 20.3125" stroke="#00A699" stroke-width="2" stroke-linecap="round" stroke-linejoin="round"/>
</svg>
