<svg width="50" height="50" viewBox="0 0 50 50" fill="none" xmlns="http://www.w3.org/2000/svg">
<path d="M40.625 20.3125C40.625 28.9453 33.6328 39.0625 25 39.0625C16.3672 39.0625 9.375 28.9453 9.375 20.3125C9.375 16.1685 11.0212 12.1942 13.9515 9.26396C16.8817 6.3337 20.856 4.6875 25 4.6875C29.144 4.6875 33.1183 6.3337 36.0485 9.26396C38.9788 12.1942 40.625 16.1685 40.625 20.3125V20.3125Z" stroke="#00A699" stroke-width="2" stroke-linecap="round" stroke-linejoin="round"/>
<path d="M27.1094 38.8672L29.6875 45.3125H20.3125L22.8906 38.8672" stroke="#00A699" stroke-width="2" stroke-linecap="round" stroke-linejoin="round"/>
<path d="M26.5625 11.0742C28.4824 11.3939 30.2544 12.3056 31.6306 13.6819C33.0069 15.0581 33.9186 16.8301 34.2383 18.75" stroke="#00A699" stroke-width="2" stroke-linecap="round" stroke-linejoin="round"/>
</svg>
