<svg width="50" height="50" viewBox="0 0 50 50" fill="none" xmlns="http://www.w3.org/2000/svg">
<path d="M9.64836 18.4764C8.57111 17.2875 7.99231 15.7298 8.0318 14.126C8.07129 12.5221 8.72604 10.9948 9.86049 9.86037C10.9949 8.72592 12.5222 8.07117 14.1261 8.03168C15.7299 7.99219 17.2876 8.57099 18.4765 9.64823L40.3515 31.5232C41.4287 32.7121 42.0075 34.2698 41.968 35.8736C41.9285 37.4775 41.2738 39.0048 40.1393 40.1392C39.0049 41.2737 37.4776 41.9284 35.8738 41.9679C34.2699 42.0074 32.7123 41.4286 31.5234 40.3514L9.64836 18.4764Z" stroke="#00A699" stroke-width="2" stroke-linecap="round" stroke-linejoin="round"/>
<path d="M31.5234 9.64823C32.7123 8.57099 34.2699 7.99219 35.8738 8.03168C37.4776 8.07117 39.0049 8.72592 40.1393 9.86037C41.2738 10.9948 41.9285 12.5221 41.968 14.126C42.0075 15.7298 41.4287 17.2875 40.3515 18.4764L18.4765 40.3514C17.2876 41.4286 15.7299 42.0074 14.1261 41.9679C12.5222 41.9284 10.9949 41.2737 9.86049 40.1392C8.72604 39.0048 8.07129 37.4775 8.0318 35.8736C7.99231 34.2698 8.57111 32.7121 9.64836 31.5232L31.5234 9.64823Z" stroke="#00A699" stroke-width="2" stroke-linecap="round" stroke-linejoin="round"/>
<path opacity="0.5" d="M25 25.7812C25.4315 25.7812 25.7812 25.4315 25.7812 25C25.7812 24.5685 25.4315 24.2188 25 24.2188C24.5685 24.2188 24.2188 24.5685 24.2188 25C24.2188 25.4315 24.5685 25.7812 25 25.7812Z" stroke="#00A699" stroke-width="2" stroke-linecap="round" stroke-linejoin="round"/>
<path d="M25 27.3438C26.2944 27.3438 27.3438 26.2944 27.3438 25C27.3438 23.7056 26.2944 22.6562 25 22.6562C23.7056 22.6562 22.6562 23.7056 22.6562 25C22.6562 26.2944 23.7056 27.3438 25 27.3438Z" fill="#00A699"/>
</svg>
