<svg width="50" height="50" viewBox="0 0 50 50" fill="none" xmlns="http://www.w3.org/2000/svg">
<path d="M20.4601 7V19.0882C20.4601 19.3719 20.3856 19.6502 20.2445 19.8935L8.21566 40.6295C8.07788 40.867 8.0035 41.1381 8.00012 41.415C7.99674 41.692 8.06448 41.9649 8.19642 42.206C8.32837 42.447 8.51979 42.6475 8.75114 42.787C8.98249 42.9265 9.2455 43 9.51329 43H40.4867C40.7545 43 41.0175 42.9265 41.2489 42.787C41.4802 42.6475 41.6716 42.447 41.8036 42.206C41.9355 41.9649 42.0033 41.692 41.9999 41.415C41.9965 41.1381 41.9221 40.867 41.7843 40.6295L29.7555 19.8935C29.6144 19.6502 29.5399 19.3719 29.5399 19.0882V7" stroke="#00A699" stroke-width="2" stroke-linecap="round" stroke-linejoin="round"/>
<path d="M17 7H33" stroke="#00A699" stroke-width="2" stroke-linecap="round" stroke-linejoin="round"/>
<path d="M12 34.4481C14.3073 32.8812 18.2682 31.9761 24.7591 35C31.7266 38.2458 35.7788 36.9647 38 35.1974" stroke="#00A699" stroke-width="2" stroke-linecap="round" stroke-linejoin="round"/>
</svg>
