<svg width="50" height="50" viewBox="0 0 50 50" fill="none" xmlns="http://www.w3.org/2000/svg">
<path d="M32.8125 15.625H45.3125" stroke="#00A699" stroke-width="2" stroke-linecap="round" stroke-linejoin="round"/>
<path d="M31.25 29.6874H46.875C46.8717 27.8853 46.2439 26.14 45.0985 24.7486C43.9531 23.3573 42.3608 22.4059 40.5928 22.0566C38.8249 21.7072 36.9904 21.9814 35.4019 22.8324C33.8133 23.6835 32.5688 25.0588 31.8803 26.7243C31.1917 28.3897 31.1017 30.2423 31.6255 31.9667C32.1493 33.6911 33.2546 35.1806 34.7531 36.1817C36.2517 37.1828 38.0509 37.6336 39.8444 37.4573C41.6379 37.281 43.3149 36.4885 44.5898 35.2148" stroke="#00A699" stroke-width="2" stroke-linecap="round" stroke-linejoin="round"/>
<path d="M6.25 24.2188H19.1406C20.9018 24.2188 22.5909 24.9184 23.8363 26.1637C25.0816 27.4091 25.7812 29.0982 25.7812 30.8594C25.7812 32.6206 25.0816 34.3096 23.8363 35.555C22.5909 36.8004 20.9018 37.5 19.1406 37.5H6.25V12.5H16.7969C18.3509 12.5 19.8412 13.1173 20.9401 14.2162C22.0389 15.315 22.6562 16.8054 22.6562 18.3594C22.6562 19.9134 22.0389 21.4037 20.9401 22.5026C19.8412 23.6014 18.3509 24.2187 16.7969 24.2188" stroke="#00A699" stroke-width="2" stroke-linecap="round" stroke-linejoin="round"/>
</svg>
