<svg width="50" height="50" viewBox="0 0 50 50" fill="none" xmlns="http://www.w3.org/2000/svg">
<path d="M9.375 7.8125L40.625 42.1875" stroke="#00A699" stroke-width="2" stroke-linecap="round" stroke-linejoin="round"/>
<path d="M19 38V39.4C19 40.8852 19.6321 42.3096 20.7574 43.3598C21.8826 44.41 23.4087 45 25 45C26.5913 45 28.1174 44.41 29.2426 43.3598C30.3679 42.3096 31 40.8852 31 39.4V38" stroke="#00A699" stroke-width="2" stroke-linecap="round" stroke-linejoin="round"/>
<path d="M36 37H10.4838C10.2222 36.9993 9.96538 36.9296 9.73926 36.7979C9.51314 36.6662 9.32573 36.4771 9.19595 36.2498C9.06616 36.0225 8.99858 35.7649 9.00002 35.5031C9.00147 35.2413 9.07189 34.9845 9.20418 34.7586C10.4323 32.6446 11.8265 28.7767 11.8265 22.1116V20.6228C11.8218 17.8996 12.6487 15.2399 14.1964 13" stroke="#00A699" stroke-width="2" stroke-linecap="round" stroke-linejoin="round"/>
<path d="M18.0693 8.08499C20.2114 6.86112 22.6401 6.22799 25.1071 6.25033C32.8395 6.30781 39.0244 12.735 39.0244 20.489V21.8749C39.0244 27.0836 39.8358 30.6644 40.7824 33.0696" stroke="#00A699" stroke-width="2" stroke-linecap="round" stroke-linejoin="round"/>
</svg>
