<svg width="50" height="50" viewBox="0 0 50 50" fill="none" xmlns="http://www.w3.org/2000/svg">
<path d="M11.7952 20.4999C11.7927 18.7209 12.1357 16.9591 12.8043 15.3158C13.4729 13.6726 14.4539 12.1805 15.6908 10.9256C16.9277 9.67071 18.3959 8.67779 20.011 8.00408C21.626 7.33038 23.3559 6.98921 25.1009 7.00026C32.3822 7.05545 38.2063 13.2255 38.2063 20.6694V21.9999C38.2063 28.7154 39.5844 32.6123 40.7983 34.7421C40.929 34.9697 40.9986 35.2284 41 35.4922C41.0014 35.7559 40.9345 36.0154 40.8061 36.2444C40.6778 36.4733 40.4924 36.6638 40.2689 36.7964C40.0453 36.9291 39.7913 36.9993 39.5326 37H10.4674C10.2087 36.9993 9.95468 36.9291 9.73106 36.7964C9.50745 36.6637 9.32212 36.4732 9.19377 36.2442C9.06542 36.0152 8.99859 35.7557 9.00002 35.4919C9.00145 35.2281 9.07109 34.9694 9.20191 34.7418C10.4164 32.6119 11.7952 28.7151 11.7952 21.9999L11.7952 20.4999Z" stroke="#00A699" stroke-width="2" stroke-linecap="round" stroke-linejoin="round"/>
<path d="M19 38V39.4C19 40.8852 19.6321 42.3096 20.7574 43.3598C21.8826 44.41 23.4087 45 25 45C26.5913 45 28.1174 44.41 29.2426 43.3598C30.3679 42.3096 31 40.8852 31 39.4V38" stroke="#00A699" stroke-width="2" stroke-linecap="round" stroke-linejoin="round"/>
<path d="M21 19H29L21 28H29" stroke="#00A699" stroke-width="2" stroke-linecap="round" stroke-linejoin="round"/>
</svg>
