<svg width="50" height="50" viewBox="0 0 50 50" fill="none" xmlns="http://www.w3.org/2000/svg">
<path d="M10.9699 19.9499C10.9673 18.1116 11.3317 16.291 12.0421 14.593C12.7525 12.895 13.7948 11.3532 15.109 10.0565C16.4232 8.75973 17.9832 7.73371 19.6992 7.03755C21.4152 6.34139 23.2531 5.98885 25.1072 6.00027C32.8435 6.05729 39.0317 12.4331 39.0317 20.1251V21.4999C39.0317 28.4392 40.496 32.466 41.7856 34.6669C41.9246 34.902 41.9985 35.1694 42 35.4419C42.0014 35.7144 41.9304 35.9825 41.794 36.2192C41.6576 36.4558 41.4607 36.6526 41.2232 36.7897C40.9856 36.9267 40.7158 36.9993 40.4409 37H9.55911C9.2842 36.9993 9.01434 36.9267 8.77676 36.7896C8.53917 36.6525 8.34226 36.4557 8.20589 36.219C8.06951 35.9823 7.99851 35.7142 8.00002 35.4416C8.00154 35.1691 8.07553 34.9017 8.21453 34.6665C9.50491 32.4656 10.9699 28.4389 10.9699 21.4999L10.9699 19.9499Z" stroke="#00A699" stroke-width="2" stroke-linecap="round" stroke-linejoin="round"/>
<path d="M19 37V38.6C19 40.2974 19.6321 41.9252 20.7574 43.1255C21.8826 44.3257 23.4087 45 25 45C26.5913 45 28.1174 44.3257 29.2426 43.1255C30.3679 41.9252 31 40.2974 31 38.6V37" stroke="#00A699" stroke-width="2" stroke-linecap="round" stroke-linejoin="round"/>
</svg>
