<svg width="50" height="50" viewBox="0 0 50 50" fill="none" xmlns="http://www.w3.org/2000/svg">
<path d="M40.625 15.625C40.625 14.7962 40.2958 14.0013 39.7097 13.4153C39.1237 12.8292 38.3288 12.5 37.5 12.5H29.6875L40.625 31.25" stroke="#00A699" stroke-width="2" stroke-linecap="round" stroke-linejoin="round"/>
<path d="M40.625 39.0625C44.9397 39.0625 48.4375 35.5647 48.4375 31.25C48.4375 26.9353 44.9397 23.4375 40.625 23.4375C36.3103 23.4375 32.8125 26.9353 32.8125 31.25C32.8125 35.5647 36.3103 39.0625 40.625 39.0625Z" stroke="#00A699" stroke-width="2" stroke-linecap="round" stroke-linejoin="round"/>
<path d="M9.375 39.0625C13.6897 39.0625 17.1875 35.5647 17.1875 31.25C17.1875 26.9353 13.6897 23.4375 9.375 23.4375C5.06028 23.4375 1.5625 26.9353 1.5625 31.25C1.5625 35.5647 5.06028 39.0625 9.375 39.0625Z" stroke="#00A699" stroke-width="2" stroke-linecap="round" stroke-linejoin="round"/>
<path d="M9.375 12.5H14.8438L25.7812 31.25" stroke="#00A699" stroke-width="2" stroke-linecap="round" stroke-linejoin="round"/>
<path d="M33.2227 18.75H18.4961L9.375 31.25" stroke="#00A699" stroke-width="2" stroke-linecap="round" stroke-linejoin="round"/>
</svg>
