<svg width="50" height="50" viewBox="0 0 50 50" fill="none" xmlns="http://www.w3.org/2000/svg">
<path d="M20.3125 17.9688H29.6875" stroke="#00A699" stroke-width="2" stroke-linecap="round" stroke-linejoin="round"/>
<path d="M44.8438 30.1363L36.3086 10.7418C35.4273 9.8699 34.2377 9.38086 32.998 9.38086C31.7584 9.38086 30.5688 9.8699 29.6875 10.7418V32.8121" stroke="#00A699" stroke-width="2" stroke-linecap="round" stroke-linejoin="round"/>
<path d="M20.3125 32.8121V10.7418C19.4312 9.8699 18.2416 9.38086 17.0019 9.38086C15.7623 9.38086 14.5726 9.8699 13.6914 10.7418L5.15623 30.1363" stroke="#00A699" stroke-width="2" stroke-linecap="round" stroke-linejoin="round"/>
<path d="M12.5 40.625C16.8147 40.625 20.3125 37.1272 20.3125 32.8125C20.3125 28.4978 16.8147 25 12.5 25C8.18528 25 4.6875 28.4978 4.6875 32.8125C4.6875 37.1272 8.18528 40.625 12.5 40.625Z" stroke="#00A699" stroke-width="2" stroke-linecap="round" stroke-linejoin="round"/>
<path d="M37.5 40.625C41.8147 40.625 45.3125 37.1272 45.3125 32.8125C45.3125 28.4978 41.8147 25 37.5 25C33.1853 25 29.6875 28.4978 29.6875 32.8125C29.6875 37.1272 33.1853 40.625 37.5 40.625Z" stroke="#00A699" stroke-width="2" stroke-linecap="round" stroke-linejoin="round"/>
</svg>
