<svg width="50" height="50" viewBox="0 0 50 50" fill="none" xmlns="http://www.w3.org/2000/svg">
<path d="M32.0312 15.625C33.3257 15.625 34.375 14.5757 34.375 13.2812C34.375 11.9868 33.3257 10.9375 32.0312 10.9375C30.7368 10.9375 29.6875 11.9868 29.6875 13.2812C29.6875 14.5757 30.7368 15.625 32.0312 15.625Z" fill="#00A699"/>
<path d="M23.4375 26.5625L15.625 35.9375" stroke="#00A699" stroke-width="2" stroke-linecap="round" stroke-linejoin="round"/>
<path d="M40.625 18.7501V23.4376C40.625 28.4104 38.6496 33.1795 35.1333 36.6958C31.6169 40.2121 26.8478 42.1876 21.875 42.1876H1.5625L20.3125 18.7501V14.8438C20.3166 12.3766 21.2188 9.99522 22.8504 8.14449C24.4819 6.29377 26.7315 5.10026 29.1787 4.78688C31.626 4.47349 34.1036 5.06167 36.1489 6.44155C38.1942 7.82143 39.6673 9.89865 40.293 12.2852L45.3125 15.6251L40.625 18.7501Z" stroke="#00A699" stroke-width="2" stroke-linecap="round" stroke-linejoin="round"/>
</svg>
