<svg width="50" height="50" viewBox="0 0 50 50" fill="none" xmlns="http://www.w3.org/2000/svg">
<path d="M25 9.375V4.6875" stroke="#00A699" stroke-width="2" stroke-linecap="round" stroke-linejoin="round"/>
<path d="M43.75 31.2502C40.8984 41.2111 27.6953 44.6877 25.3516 45.2346C25.1209 45.2933 24.8791 45.2933 24.6484 45.2346C22.3047 44.6877 9.10156 41.2111 6.25 31.2502V24.5705C6.24997 24.2415 6.3538 23.9209 6.54669 23.6543C6.73958 23.3878 7.01168 23.1889 7.32422 23.0861L24.5117 17.3439C24.8299 17.246 25.1701 17.246 25.4883 17.3439L42.6758 23.0861C42.9883 23.1889 43.2604 23.3878 43.4533 23.6543C43.6462 23.9209 43.75 24.2415 43.75 24.5705V31.2502Z" stroke="#00A699" stroke-width="2" stroke-linecap="round" stroke-linejoin="round"/>
<path d="M25 32.8125V17.2656" stroke="#00A699" stroke-width="2" stroke-linecap="round" stroke-linejoin="round"/>
<path d="M10.9375 21.875V10.9375C10.9375 10.5231 11.1021 10.1257 11.3951 9.83265C11.6882 9.53962 12.0856 9.375 12.5 9.375H37.5C37.9144 9.375 38.3118 9.53962 38.6049 9.83265C38.8979 10.1257 39.0625 10.5231 39.0625 10.9375V21.875" stroke="#00A699" stroke-width="2" stroke-linecap="round" stroke-linejoin="round"/>
</svg>
