<svg width="50" height="50" viewBox="0 0 50 50" fill="none" xmlns="http://www.w3.org/2000/svg">
<path d="M25 17.1875C25 15.5299 25.6585 13.9402 26.8306 12.7681C28.0027 11.596 29.5924 10.9375 31.25 10.9375H43.75C44.1644 10.9375 44.5618 11.1021 44.8549 11.3951C45.1479 11.6882 45.3125 12.0856 45.3125 12.5V37.5C45.3125 37.9144 45.1479 38.3118 44.8549 38.6049C44.5618 38.8979 44.1644 39.0625 43.75 39.0625H31.25C29.5924 39.0625 28.0027 39.721 26.8306 40.8931C25.6585 42.0652 25 43.6549 25 45.3125" stroke="#00A699" stroke-width="2" stroke-linecap="round" stroke-linejoin="round"/>
<path d="M4.6875 37.5C4.6875 37.9144 4.85212 38.3118 5.14515 38.6049C5.43817 38.8979 5.8356 39.0625 6.25 39.0625H18.75C20.4076 39.0625 21.9973 39.721 23.1694 40.8931C24.3415 42.0652 25 43.6549 25 45.3125V17.1875C25 15.5299 24.3415 13.9402 23.1694 12.7681C21.9973 11.596 20.4076 10.9375 18.75 10.9375H6.25C5.8356 10.9375 5.43817 11.1021 5.14515 11.3951C4.85212 11.6882 4.6875 12.0856 4.6875 12.5V37.5Z" stroke="#00A699" stroke-width="2" stroke-linecap="round" stroke-linejoin="round"/>
</svg>
