<svg width="50" height="50" viewBox="0 0 50 50" fill="none" xmlns="http://www.w3.org/2000/svg">
<path d="M34.375 6.25V25L28.125 20.3125L21.875 25V6.25" stroke="#00A699" stroke-width="2" stroke-linecap="round" stroke-linejoin="round"/>
<path d="M9.37504 42.1875C9.37246 41.5712 9.49194 40.9605 9.72659 40.3907C9.96125 39.8208 10.3064 39.303 10.7422 38.8672C11.178 38.4314 11.6958 38.0862 12.2657 37.8516C12.8355 37.6169 13.4462 37.4975 14.0625 37.5H40.625V6.25004H14.0625C13.4462 6.24746 12.8355 6.36694 12.2657 6.60159C11.6958 6.83625 11.178 7.18143 10.7422 7.61722C10.3064 8.05301 9.96125 8.57078 9.72659 9.14066C9.49194 9.71054 9.37246 10.3212 9.37504 10.9375V42.1875Z" stroke="#00A699" stroke-width="2" stroke-linecap="round" stroke-linejoin="round"/>
<path d="M9.375 42.1875V43.75H37.5" stroke="#00A699" stroke-width="2" stroke-linecap="round" stroke-linejoin="round"/>
</svg>
