<svg width="50" height="50" viewBox="0 0 50 50" fill="none" xmlns="http://www.w3.org/2000/svg">
<path d="M25 34.375V15.625" stroke="#00A699" stroke-width="2" stroke-linecap="round" stroke-linejoin="round"/>
<path d="M17.1875 28.125C18.7327 28.125 20.2431 28.5832 21.5279 29.4416C22.8127 30.3001 23.814 31.5202 24.4053 32.9478C24.9966 34.3753 25.1513 35.9462 24.8499 37.4616C24.5484 38.9771 23.8044 40.3692 22.7118 41.4618C21.6192 42.5544 20.2271 43.2984 18.7116 43.5999C17.1962 43.9013 15.6253 43.7466 14.1978 43.1553C12.7702 42.564 11.5501 41.5627 10.6916 40.2779C9.83319 38.9931 9.375 37.4827 9.375 35.9375V34.6289" stroke="#00A699" stroke-width="2" stroke-linecap="round" stroke-linejoin="round"/>
<path d="M32.8125 28.125C31.2673 28.125 29.7569 28.5832 28.4721 29.4416C27.1874 30.3001 26.186 31.5202 25.5947 32.9478C25.0034 34.3753 24.8487 35.9462 25.1501 37.4616C25.4516 38.9771 26.1956 40.3692 27.2882 41.4618C28.3808 42.5544 29.7729 43.2984 31.2884 43.5999C32.8038 43.9013 34.3747 43.7466 35.8022 43.1553C37.2298 42.564 38.4499 41.5627 39.3084 40.2779C40.1668 38.9931 40.625 37.4827 40.625 35.9375V34.6289" stroke="#00A699" stroke-width="2" stroke-linecap="round" stroke-linejoin="round"/>
<path d="M14.0625 35.1562H12.5C10.284 35.1622 8.13759 34.383 6.44149 32.9569C4.74539 31.5308 3.60928 29.55 3.23473 27.3659C2.86018 25.1818 3.2714 22.9356 4.39544 21.0259C5.51948 19.1161 7.28367 17.6663 9.375 16.9336V14.0625C9.375 11.9905 10.1981 10.0034 11.6632 8.53823C13.1284 7.0731 15.1155 6.25 17.1875 6.25C19.2595 6.25 21.2466 7.0731 22.7118 8.53823C24.1769 10.0034 25 11.9905 25 14.0625V35.9375" stroke="#00A699" stroke-width="2" stroke-linecap="round" stroke-linejoin="round"/>
<path d="M35.9375 35.1562H37.5C39.716 35.1622 41.8624 34.383 43.5585 32.9569C45.2546 31.5308 46.3907 29.55 46.7653 27.3659C47.1398 25.1818 46.7286 22.9356 45.6046 21.0259C44.4805 19.1161 42.7163 17.6663 40.625 16.9336V14.0625C40.625 11.9905 39.8019 10.0034 38.3368 8.53823C36.8716 7.0731 34.8845 6.25 32.8125 6.25C30.7405 6.25 28.7534 7.0731 27.2882 8.53823C25.8231 10.0034 25 11.9905 25 14.0625" stroke="#00A699" stroke-width="2" stroke-linecap="round" stroke-linejoin="round"/>
<path d="M17.1875 16.4062V17.9688C17.1875 19.4192 16.6113 20.8102 15.5857 21.8357C14.5602 22.8613 13.1692 23.4375 11.7188 23.4375" stroke="#00A699" stroke-width="2" stroke-linecap="round" stroke-linejoin="round"/>
<path d="M32.8125 16.4062V17.9688C32.8125 19.4192 33.3887 20.8102 34.4143 21.8357C35.4398 22.8613 36.8308 23.4375 38.2812 23.4375" stroke="#00A699" stroke-width="2" stroke-linecap="round" stroke-linejoin="round"/>
</svg>
