<svg width="50" height="50" viewBox="0 0 50 50" fill="none" xmlns="http://www.w3.org/2000/svg">
<path d="M24 27H25.5V35.0144H27" stroke="#00A699" stroke-width="2" stroke-linecap="round" stroke-linejoin="round"/>
<path d="M25 24C26.1046 24 27 23.1046 27 22C27 20.8954 26.1046 20 25 20C23.8954 20 23 20.8954 23 22C23 23.1046 23.8954 24 25 24Z" fill="#00A699"/>
<path d="M42.4167 9H7.58333C6.70888 9 6 9.71634 6 10.6V39.4C6 40.2837 6.70888 41 7.58333 41H42.4167C43.2911 41 44 40.2837 44 39.4V10.6C44 9.71634 43.2911 9 42.4167 9Z" stroke="#00A699" stroke-width="2" stroke-linecap="round" stroke-linejoin="round"/>
<path d="M7 15L43 15" stroke="#00A699" stroke-width="2" stroke-linecap="round" stroke-linejoin="round"/>
</svg>
