<svg width="50" height="50" viewBox="0 0 50 50" fill="none" xmlns="http://www.w3.org/2000/svg">
<path d="M42.4167 9H7.58333C6.70888 9 6 9.71634 6 10.6V39.4C6 40.2837 6.70888 41 7.58333 41H42.4167C43.2911 41 44 40.2837 44 39.4V10.6C44 9.71634 43.2911 9 42.4167 9Z" stroke="#00A699" stroke-width="2" stroke-linecap="round" stroke-linejoin="round"/>
<path d="M7 15L43 15" stroke="#00A699" stroke-width="2" stroke-linecap="round" stroke-linejoin="round"/>
<path d="M25 28C26.1046 28 27 27.1046 27 26C27 24.8954 26.1046 24 25 24C23.8954 24 23 24.8954 23 26C23 27.1046 23.8954 28 25 28Z" stroke="#00A699" stroke-width="2" stroke-linecap="round" stroke-linejoin="round"/>
<path d="M32 25.5385C32 31.4231 25 36 25 36C25 36 18 31.4231 18 25.5385C18 23.8044 18.7375 22.1413 20.0503 20.9151C21.363 19.6889 23.1435 19 25 19C26.8565 19 28.637 19.6889 29.9497 20.9151C31.2625 22.1413 32 23.8044 32 25.5385V25.5385Z" stroke="#00A699" stroke-width="2" stroke-linecap="round" stroke-linejoin="round"/>
</svg>
