<svg width="50" height="50" viewBox="0 0 50 50" fill="none" xmlns="http://www.w3.org/2000/svg">
<path d="M25 10.9375V35.1562" stroke="#00A699" stroke-width="2" stroke-linecap="round" stroke-linejoin="round"/>
<path d="M36.543 29.7656C38.086 29.8437 42.2266 29.5117 43.75 23.4375C45.2735 17.3633 46.6602 9.375 40.625 9.375C34.5899 9.375 25 18.75 25 25C25 18.75 15.4102 9.375 9.37503 9.375C3.33988 9.375 4.68753 17.1875 6.25003 23.4375C7.81253 29.6875 11.9141 29.8437 13.4571 29.7656" stroke="#00A699" stroke-width="2" stroke-linecap="round" stroke-linejoin="round"/>
<path d="M17.1875 28.1641C15.8388 28.3149 14.5625 28.8528 13.5127 29.7128C12.4629 30.5729 11.6844 31.7185 11.2713 33.0112C10.8581 34.3039 10.8279 35.6886 11.1842 36.9981C11.5406 38.3076 12.2683 39.486 13.2796 40.3911C14.2908 41.2961 15.5424 41.8892 16.8833 42.0987C18.2242 42.3082 19.597 42.1252 20.8362 41.5718C22.0753 41.0183 23.1278 40.1181 23.8667 38.9797C24.6055 37.8413 24.9991 36.5134 25 35.1563C25.0009 36.5134 25.3945 37.8413 26.1333 38.9797C26.8722 40.1181 27.9247 41.0183 29.1638 41.5718C30.403 42.1252 31.7758 42.3082 33.1167 42.0987C34.4576 41.8892 35.7092 41.2961 36.7204 40.3911C37.7317 39.486 38.4594 38.3076 38.8158 36.9981C39.1721 35.6886 39.1419 34.3039 38.7287 33.0112C38.3156 31.7185 37.5371 30.5729 36.4873 29.7128C35.4375 28.8528 34.1612 28.3149 32.8125 28.1641" stroke="#00A699" stroke-width="2" stroke-linecap="round" stroke-linejoin="round"/>
</svg>
