s<svg width="50" height="50" viewBox="0 0 50 50" fill="none" xmlns="http://www.w3.org/2000/svg">
<path d="M7.8125 42.1875H42.1875" stroke="#00A699" stroke-width="2" stroke-linecap="round" stroke-linejoin="round"/>
<path d="M18.75 42.1875V25.7812H16.4062C13.2982 25.7812 10.3175 24.5466 8.11984 22.3489C5.92215 20.1512 4.6875 17.1705 4.6875 14.0625V14.0625C4.69263 13.0281 5.10583 12.0375 5.83729 11.306C6.56874 10.5746 7.55933 10.1614 8.59375 10.1562C9.62817 10.1614 10.6188 10.5746 11.3502 11.306C12.0817 12.0375 12.4949 13.0281 12.5 14.0625C12.5051 15.0969 12.9183 16.0875 13.6498 16.819C14.3812 17.5504 15.3718 17.9636 16.4062 17.9688H18.75V10.9375C18.75 9.2799 19.4085 7.69018 20.5806 6.51808C21.7527 5.34598 23.3424 4.6875 25 4.6875V4.6875C26.6576 4.6875 28.2473 5.34598 29.4194 6.51808C30.5915 7.69018 31.25 9.2799 31.25 10.9375V25.7812H33.5938C34.6282 25.7761 35.6188 25.3629 36.3502 24.6315C37.0817 23.9 37.4949 22.9094 37.5 21.875V21.875C37.5051 20.8406 37.9183 19.85 38.6498 19.1185C39.3812 18.3871 40.3718 17.9739 41.4062 17.9688C42.4407 17.9739 43.4313 18.3871 44.1627 19.1185C44.8942 19.85 45.3074 20.8406 45.3125 21.875V21.875C45.3125 24.983 44.0778 27.9637 41.8802 30.1614C39.6825 32.3591 36.7018 33.5938 33.5938 33.5938H31.25V42.1875" stroke="#00A699" stroke-width="2" stroke-linecap="round" stroke-linejoin="round"/>
</svg>
