<svg width="50" height="50" viewBox="0 0 50 50" fill="none" xmlns="http://www.w3.org/2000/svg">
<path d="M25 17.1875V12.5" stroke="#00A699" stroke-width="2" stroke-linecap="round" stroke-linejoin="round"/>
<path d="M25 12.5C34.0235 9.375 25 1.5625 25 1.5625C25 1.5625 15.625 9.375 25 12.5Z" stroke="#00A699" stroke-width="2" stroke-linecap="round" stroke-linejoin="round"/>
<path d="M31.6406 24.6094C31.6406 26.3706 30.941 28.0596 29.6956 29.305C28.4503 30.5504 26.7612 31.25 25 31.25C23.2388 31.25 21.5497 30.5504 20.3044 29.305C19.059 28.0596 18.3594 26.3706 18.3594 24.6094" stroke="#00A699" stroke-width="2" stroke-linecap="round" stroke-linejoin="round"/>
<path d="M18.3594 24.6094C18.3598 26.3472 17.6789 28.0159 16.463 29.2574C15.2471 30.4989 13.5929 31.2143 11.8555 31.25C8.12504 31.3282 5.07817 28.2032 5.07817 24.4727V21.875C5.07558 21.2587 5.19506 20.648 5.42972 20.0782C5.66437 19.5083 6.00955 18.9905 6.44534 18.5547C6.88113 18.1189 7.3989 17.7737 7.96878 17.5391C8.53867 17.3044 9.14937 17.185 9.76567 17.1875H40.2344C40.8507 17.185 41.4614 17.3044 42.0313 17.5391C42.6012 17.7737 43.119 18.1189 43.5547 18.5547C43.9905 18.9905 44.3357 19.5083 44.5704 20.0782C44.805 20.648 44.9245 21.2587 44.9219 21.875V24.4727C44.9219 28.2032 41.875 31.3282 38.1446 31.25C36.4072 31.2143 34.753 30.4989 33.5371 29.2574C32.3211 28.0159 31.6403 26.3472 31.6407 24.6094" stroke="#00A699" stroke-width="2" stroke-linecap="round" stroke-linejoin="round"/>
<path d="M42.1875 29.9417V40.6252C42.1875 41.0396 42.0229 41.4371 41.7299 41.7301C41.4368 42.0231 41.0394 42.1877 40.625 42.1877H9.375C8.9606 42.1877 8.56317 42.0231 8.27015 41.7301C7.97712 41.4371 7.8125 41.0396 7.8125 40.6252V29.9417" stroke="#00A699" stroke-width="2" stroke-linecap="round" stroke-linejoin="round"/>
</svg>
