<svg width="50" height="50" viewBox="0 0 50 50" fill="none" xmlns="http://www.w3.org/2000/svg">
<path d="M34 12H16V22H34V12Z" stroke="#00A699" stroke-width="2" stroke-linecap="round" stroke-linejoin="round"/>
<path d="M41 42.4167V7.58333C41 6.70888 40.2837 6 39.4 6L10.6 6C9.71634 6 9 6.70888 9 7.58333L9 42.4167C9 43.2911 9.71634 44 10.6 44H39.4C40.2837 44 41 43.2911 41 42.4167Z" stroke="#00A699" stroke-width="2" stroke-linecap="round" stroke-linejoin="round"/>
<path d="M17.1875 31.25C18.4819 31.25 19.5312 30.2007 19.5312 28.9062C19.5312 27.6118 18.4819 26.5625 17.1875 26.5625C15.8931 26.5625 14.8438 27.6118 14.8438 28.9062C14.8438 30.2007 15.8931 31.25 17.1875 31.25Z" fill="#00A699"/>
<path d="M25 31.25C26.2944 31.25 27.3438 30.2007 27.3438 28.9062C27.3438 27.6118 26.2944 26.5625 25 26.5625C23.7056 26.5625 22.6562 27.6118 22.6562 28.9062C22.6562 30.2007 23.7056 31.25 25 31.25Z" fill="#00A699"/>
<path d="M32.8125 31.25C34.1069 31.25 35.1562 30.2007 35.1562 28.9062C35.1562 27.6118 34.1069 26.5625 32.8125 26.5625C31.5181 26.5625 30.4688 27.6118 30.4688 28.9062C30.4688 30.2007 31.5181 31.25 32.8125 31.25Z" fill="#00A699"/>
<path d="M17.1875 39.0625C18.4819 39.0625 19.5312 38.0132 19.5312 36.7188C19.5312 35.4243 18.4819 34.375 17.1875 34.375C15.8931 34.375 14.8438 35.4243 14.8438 36.7188C14.8438 38.0132 15.8931 39.0625 17.1875 39.0625Z" fill="#00A699"/>
<path d="M25 39.0625C26.2944 39.0625 27.3438 38.0132 27.3438 36.7188C27.3438 35.4243 26.2944 34.375 25 34.375C23.7056 34.375 22.6562 35.4243 22.6562 36.7188C22.6562 38.0132 23.7056 39.0625 25 39.0625Z" fill="#00A699"/>
<path d="M32.8125 39.0625C34.1069 39.0625 35.1562 38.0132 35.1562 36.7188C35.1562 35.4243 34.1069 34.375 32.8125 34.375C31.5181 34.375 30.4688 35.4243 30.4688 36.7188C30.4688 38.0132 31.5181 39.0625 32.8125 39.0625Z" fill="#00A699"/>
</svg>
