<svg width="50" height="50" viewBox="0 0 50 50" fill="none" xmlns="http://www.w3.org/2000/svg">
<path d="M17.9688 26.9993H23.4375L20.3125 30.9055C20.8263 30.9055 21.3322 31.0322 21.7854 31.2744C22.2386 31.5166 22.625 31.8668 22.9106 32.294C23.1961 32.7212 23.3719 33.2122 23.4224 33.7235C23.4729 34.2348 23.3965 34.7507 23.2 35.2255C23.0035 35.7003 22.693 36.1193 22.2959 36.4454C21.8988 36.7715 21.4275 36.9947 20.9236 37.0952C20.4196 37.1957 19.8987 37.1703 19.407 37.0214C18.9152 36.8725 18.4677 36.6047 18.1041 36.2416" stroke="#00A699" stroke-width="2" stroke-linecap="round" stroke-linejoin="round"/>
<path d="M28 29.3437L31.125 27V37.1563" stroke="#00A699" stroke-width="2" stroke-linecap="round" stroke-linejoin="round"/>
<path d="M40.4545 10H9.54545C8.69192 10 8 10.6919 8 11.5455V42.4545C8 43.3081 8.69192 44 9.54545 44H40.4545C41.3081 44 42 43.3081 42 42.4545V11.5455C42 10.6919 41.3081 10 40.4545 10Z" stroke="#00A699" stroke-width="2" stroke-linecap="round" stroke-linejoin="round"/>
<path d="M34 7V13" stroke="#00A699" stroke-width="2" stroke-linecap="round" stroke-linejoin="round"/>
<path d="M16 7V13" stroke="#00A699" stroke-width="2" stroke-linecap="round" stroke-linejoin="round"/>
<path d="M8 19L42 19" stroke="#00A699" stroke-width="2" stroke-linecap="round" stroke-linejoin="round"/>
</svg>
