<svg width="50" height="50" viewBox="0 0 50 50" fill="none" xmlns="http://www.w3.org/2000/svg">
<path d="M3.125 23.4375H46.875" stroke="#00A699" stroke-width="2" stroke-linecap="round" stroke-linejoin="round"/>
<path d="M43.75 35.9375V40.625C43.75 41.0394 43.5854 41.4368 43.2924 41.7299C42.9993 42.0229 42.6019 42.1875 42.1875 42.1875H37.5C37.0856 42.1875 36.6882 42.0229 36.3951 41.7299C36.1021 41.4368 35.9375 41.0394 35.9375 40.625V35.9375" stroke="#00A699" stroke-width="2" stroke-linecap="round" stroke-linejoin="round"/>
<path d="M14.0625 35.9375V40.625C14.0625 41.0394 13.8979 41.4368 13.6049 41.7299C13.3118 42.0229 12.9144 42.1875 12.5 42.1875H7.8125C7.3981 42.1875 7.00067 42.0229 6.70765 41.7299C6.41462 41.4368 6.25 41.0394 6.25 40.625V35.9375" stroke="#00A699" stroke-width="2" stroke-linecap="round" stroke-linejoin="round"/>
<path d="M12.5 29.6875H15.625" stroke="#00A699" stroke-width="2" stroke-linecap="round" stroke-linejoin="round"/>
<path d="M34.375 29.6875H37.5" stroke="#00A699" stroke-width="2" stroke-linecap="round" stroke-linejoin="round"/>
<path d="M43.75 23.4375L37.9102 10.3125C37.789 10.0348 37.5897 9.79838 37.3365 9.63193C37.0834 9.46548 36.7873 9.37622 36.4844 9.375H13.5156C13.2127 9.37622 12.9166 9.46548 12.6635 9.63193C12.4103 9.79838 12.211 10.0348 12.0898 10.3125L6.25 23.4375V35.9375H43.75V23.4375Z" stroke="#00A699" stroke-width="2" stroke-linecap="round" stroke-linejoin="round"/>
</svg>
