<svg width="50" height="50" viewBox="0 0 50 50" fill="none" xmlns="http://www.w3.org/2000/svg">
<path d="M9.37396 7.81421L40.624 42.1892" stroke="#00A699" stroke-width="2" stroke-linecap="round" stroke-linejoin="round"/>
<path d="M27 17.2846L36.4628 7.45231C36.6707 7.23634 36.9355 7.08926 37.2238 7.02967C37.5121 6.97009 37.8109 7.00067 38.0825 7.11755C38.3541 7.23444 38.5862 7.43237 38.7495 7.68633C38.9128 7.94028 39 8.23886 39 8.54429V31" stroke="#00A699" stroke-width="2" stroke-linecap="round" stroke-linejoin="round"/>
<path d="M40 42L5.52639 41.9984C5.2245 41.9984 4.92939 41.9088 4.67837 41.741C4.42736 41.5732 4.23172 41.3347 4.11619 41.0556C4.00066 40.7765 3.97043 40.4695 4.02933 40.1732C4.08823 39.8769 4.2336 39.6048 4.44707 39.3912L21.8285 22" stroke="#00A699" stroke-width="2" stroke-linecap="round" stroke-linejoin="round"/>
</svg>
