<svg width="50" height="50" viewBox="0 0 50 50" fill="none" xmlns="http://www.w3.org/2000/svg">
<path d="M43.75 20.3125L34.375 29.6875" stroke="#00A699" stroke-width="2" stroke-linecap="round" stroke-linejoin="round"/>
<path d="M43.75 29.6875L34.375 20.3125" stroke="#00A699" stroke-width="2" stroke-linecap="round" stroke-linejoin="round"/>
<path d="M39 33.7199V40.4504C39 40.8613 38.8367 41.2555 38.5461 41.5461C38.2555 41.8367 37.8613 42 37.4504 42H5.54965C5.24316 42 4.94355 41.9091 4.68871 41.7388C4.43387 41.5686 4.23525 41.3265 4.11796 41.0434C4.00067 40.7602 3.96998 40.4486 4.02978 40.148C4.08957 39.8474 4.23716 39.5713 4.45388 39.3546L36.3546 7.45388C36.5713 7.23716 36.8474 7.08957 37.148 7.02978C37.4486 6.96998 37.7602 7.00067 38.0434 7.11796C38.3265 7.23525 38.5686 7.43387 38.7388 7.68871C38.9091 7.94355 39 8.24316 39 8.54965V16.1878" stroke="#00A699" stroke-width="2" stroke-linecap="round" stroke-linejoin="round"/>
</svg>
