<svg width="50" height="50" viewBox="0 0 50 50" fill="none" xmlns="http://www.w3.org/2000/svg">
<path d="M7.79883 35.2038C5.31293 31.0132 4.44234 26.0592 5.35055 21.2721C6.25876 16.485 8.88329 12.1941 12.7313 9.20513C16.5793 6.21617 21.3861 4.73476 26.2491 5.03907C31.1121 5.34338 35.6967 7.41248 39.1421 10.8578C42.5875 14.3032 44.6566 18.8878 44.9609 23.7508C45.2653 28.6138 43.7839 33.4206 40.7949 37.2686C37.806 41.1166 33.5151 43.7412 28.728 44.6494C23.9409 45.5577 18.9869 44.6871 14.7963 42.2012L14.7963 42.201L7.88583 44.1754C7.59992 44.2571 7.29736 44.2609 7.00952 44.1863C6.72167 44.1117 6.45901 43.9615 6.24875 43.7512C6.03849 43.541 5.88829 43.2783 5.8137 42.9905C5.73911 42.7026 5.74286 42.4001 5.82455 42.1142L7.79898 35.2037L7.79883 35.2038Z" stroke="#00A699" stroke-width="2" stroke-linecap="round" stroke-linejoin="round"/>
<path d="M25 34C25 34 16 29.2273 16 23.4318C16.0002 22.4075 16.375 21.4149 17.0607 20.6227C17.7464 19.8305 18.7007 19.2876 19.7613 19.0864C20.8219 18.8852 21.9233 19.038 22.8784 19.5189C23.8334 19.9998 24.5831 20.7791 25 21.7243L25 21.7243C25.4169 20.7791 26.1666 19.9998 27.1216 19.5189C28.0767 19.038 29.1781 18.8852 30.2387 19.0864C31.2993 19.2876 32.2536 19.8305 32.9393 20.6227C33.625 21.4149 33.9998 22.4075 34 23.4318C34 29.2273 25 34 25 34Z" stroke="#00A699" stroke-width="2" stroke-linecap="round" stroke-linejoin="round"/>
</svg>
