<svg width="50" height="50" viewBox="0 0 50 50" fill="none" xmlns="http://www.w3.org/2000/svg">
<path d="M7.79883 35.2038C5.31293 31.0132 4.44234 26.0592 5.35055 21.2721C6.25876 16.485 8.88329 12.1941 12.7313 9.20513C16.5793 6.21617 21.3861 4.73476 26.2491 5.03907C31.1121 5.34338 35.6967 7.41248 39.1421 10.8578C42.5875 14.3032 44.6566 18.8878 44.9609 23.7508C45.2653 28.6138 43.7839 33.4206 40.7949 37.2686C37.806 41.1166 33.5151 43.7412 28.728 44.6494C23.9409 45.5577 18.9869 44.6871 14.7963 42.2012L14.7963 42.201L7.88583 44.1754C7.59992 44.2571 7.29736 44.2609 7.00952 44.1863C6.72167 44.1117 6.45901 43.9615 6.24875 43.7512C6.03849 43.541 5.88829 43.2783 5.8137 42.9905C5.73911 42.7026 5.74286 42.4001 5.82455 42.1142L7.79898 35.2037L7.79883 35.2038Z" stroke="#00A699" stroke-width="2" stroke-linecap="round" stroke-linejoin="round"/>
<path d="M25.3393 30.3386L29.219 32.8949C29.7149 33.2217 30.3306 32.7357 30.1834 32.1337L29.0625 27.5479C29.031 27.4201 29.0347 27.2857 29.0733 27.1601C29.1119 27.0345 29.1838 26.9228 29.2808 26.8378L32.7598 23.8263C33.2169 23.4306 32.981 22.6416 32.3937 22.602L27.8503 22.2953C27.7279 22.2862 27.6106 22.2412 27.5119 22.1654C27.4132 22.0896 27.3372 21.9862 27.2928 21.8673L25.5983 17.4294C25.5522 17.3032 25.4703 17.1945 25.3635 17.1178C25.2566 17.0411 25.1298 17 25 17C24.8702 17 24.7434 17.0411 24.6365 17.1178C24.5297 17.1945 24.4478 17.3032 24.4017 17.4294L22.7072 21.8673C22.6628 21.9862 22.5868 22.0896 22.4881 22.1654C22.3894 22.2412 22.2721 22.2862 22.1497 22.2953L17.6063 22.602C17.019 22.6416 16.7831 23.4306 17.2402 23.8263L20.7192 26.8378C20.8162 26.9228 20.8881 27.0345 20.9267 27.1601C20.9653 27.2857 20.969 27.4201 20.9375 27.5479L19.898 31.8007C19.7214 32.5231 20.4602 33.1063 21.0553 32.7142L24.6607 30.3386C24.7621 30.2715 24.8798 30.2358 25 30.2358C25.1202 30.2358 25.2379 30.2715 25.3393 30.3386V30.3386Z" stroke="#00A699" stroke-width="2" stroke-linecap="round" stroke-linejoin="round"/>
</svg>
