<svg width="50" height="50" viewBox="0 0 50 50" fill="none" xmlns="http://www.w3.org/2000/svg">
<path d="M6.02915 27.8978C4.22687 24.8595 3.5957 21.2679 4.25415 17.7973C4.91261 14.3266 6.81539 11.2157 9.60521 9.04872C12.395 6.88172 15.88 5.8077 19.4056 6.02832C22.9313 6.24895 26.2551 7.74905 28.753 10.2469C31.2509 12.7448 32.751 16.0687 32.9717 19.5943C33.1923 23.12 32.1183 26.6049 29.9513 29.3947C27.7843 32.1846 24.6735 34.0874 21.2028 34.7458C17.7322 35.4043 14.1405 34.7732 11.1023 32.9709L11.1023 32.9707L6.09222 34.4022C5.88494 34.4614 5.66559 34.4641 5.4569 34.4101C5.24821 34.356 5.05779 34.2471 4.90535 34.0947C4.75291 33.9422 4.64401 33.7518 4.58994 33.5431C4.53586 33.3344 4.53858 33.1151 4.5978 32.9078L6.02927 27.8977L6.02915 27.8978Z" stroke="#00A699" stroke-width="2" stroke-linecap="round" stroke-linejoin="round"/>
<path d="M18 35.3046C18.7082 37.3296 19.8534 39.1712 21.3532 40.6968C22.853 42.2224 24.6701 43.394 26.6735 44.1272C28.6769 44.8604 30.8168 45.1369 32.9391 44.9368C35.0613 44.7368 37.1131 44.0651 38.9467 42.9703L38.9467 42.9701L43.9222 44.402C44.1281 44.4613 44.3459 44.464 44.5532 44.4099C44.7604 44.3558 44.9495 44.2469 45.1009 44.0944C45.2523 43.9419 45.3605 43.7514 45.4142 43.5427C45.4679 43.3339 45.4652 43.1145 45.4064 42.9071L43.9848 37.8954L43.9849 37.8955C45.248 35.7499 45.9407 33.3125 45.9964 30.8186C46.052 28.3247 45.4686 25.8585 44.3024 23.6579C43.1362 21.4572 41.4266 19.5965 39.3386 18.2551C37.2506 16.9138 34.8546 16.1371 32.3818 16" stroke="#00A699" stroke-width="2" stroke-linecap="round" stroke-linejoin="round"/>
</svg>
