<svg width="50" height="50" viewBox="0 0 50 50" fill="none" xmlns="http://www.w3.org/2000/svg">
<path d="M24 16V25" stroke="#00A699" stroke-width="2" stroke-linecap="round" stroke-linejoin="round"/>
<path d="M32 30L24 25" stroke="#00A699" stroke-width="2" stroke-linecap="round" stroke-linejoin="round"/>
<path d="M35 20H43V12" stroke="#00A699" stroke-width="2" stroke-linecap="round" stroke-linejoin="round"/>
<path d="M36.3654 37.0208C33.9596 39.3983 30.8946 41.0174 27.5577 41.6733C24.2209 42.3293 20.7622 41.9926 17.619 40.7059C14.4757 39.4193 11.7892 37.2403 9.89903 34.4447C8.00887 31.6491 7 28.3623 7 25C7 21.6377 8.00887 18.3509 9.89903 15.5553C11.7892 12.7597 14.4757 10.5807 17.619 9.29405C20.7622 8.00737 24.2209 7.67071 27.5577 8.32666C30.8946 8.98261 33.9596 10.6017 36.3654 12.9792L43 19.536" stroke="#00A699" stroke-width="2" stroke-linecap="round" stroke-linejoin="round"/>
</svg>
