<svg width="50" height="50" viewBox="0 0 50 50" fill="none" xmlns="http://www.w3.org/2000/svg">
<path d="M42.1875 9.375H7.8125C6.94956 9.375 6.25 10.0746 6.25 10.9375V39.0625C6.25 39.9254 6.94956 40.625 7.8125 40.625H42.1875C43.0504 40.625 43.75 39.9254 43.75 39.0625V10.9375C43.75 10.0746 43.0504 9.375 42.1875 9.375Z" stroke="#00A699" stroke-width="2" stroke-linecap="round" stroke-linejoin="round"/>
<path d="M22.6563 28.8273C21.896 29.6033 20.9218 30.1353 19.8579 30.3553C18.7941 30.5754 17.6888 30.4737 16.683 30.0631C15.6772 29.6525 14.8165 28.9516 14.2107 28.0499C13.6048 27.1481 13.2812 26.0864 13.2813 25C13.2813 23.9136 13.6048 22.8519 14.2107 21.9501C14.8165 21.0484 15.6772 20.3475 16.683 19.9369C17.6888 19.5263 18.7941 19.4246 19.858 19.6447C20.9218 19.8648 21.896 20.3967 22.6563 21.1727" stroke="#00A699" stroke-width="2" stroke-linecap="round" stroke-linejoin="round"/>
<path d="M36.7188 28.8273C35.9585 29.6033 34.9843 30.1353 33.9204 30.3553C32.8566 30.5754 31.7513 30.4737 30.7455 30.0631C29.7397 29.6525 28.879 28.9516 28.2732 28.0499C27.6673 27.1481 27.3437 26.0864 27.3438 25C27.3438 23.9136 27.6673 22.8519 28.2732 21.9501C28.879 21.0484 29.7397 20.3475 30.7455 19.9369C31.7513 19.5263 32.8566 19.4246 33.9205 19.6447C34.9843 19.8648 35.9585 20.3967 36.7188 21.1727" stroke="#00A699" stroke-width="2" stroke-linecap="round" stroke-linejoin="round"/>
</svg>
