<svg width="50" height="50" viewBox="0 0 50 50" fill="none" xmlns="http://www.w3.org/2000/svg">
<path d="M18.75 40.625H14.0625C11.1617 40.625 8.3797 39.4727 6.32852 37.4215C4.27734 35.3703 3.125 32.5883 3.125 29.6875C3.125 26.7867 4.27734 24.0047 6.32852 21.9535C8.3797 19.9023 11.1617 18.75 14.0625 18.75C14.9776 18.7497 15.8893 18.8612 16.7773 19.082" stroke="#00A699" stroke-width="2" stroke-linecap="round" stroke-linejoin="round"/>
<path d="M15.625 25C15.625 22.5242 16.2133 20.0838 17.3415 17.88C18.4697 15.6762 20.1054 13.772 22.1139 12.3243C24.1224 10.8767 26.4461 9.92708 28.8936 9.55371C31.3411 9.18033 33.8423 9.39391 36.1911 10.1768C38.5398 10.9597 40.6689 12.2896 42.4029 14.0568C44.1369 15.824 45.4261 17.9779 46.1643 20.3411C46.9025 22.7043 47.0686 25.2091 46.6488 27.6491C46.229 30.0891 45.2355 32.3944 43.75 34.375" stroke="#00A699" stroke-width="2" stroke-linecap="round" stroke-linejoin="round"/>
<path d="M23.0664 31.6211L29.6875 25L36.3086 31.6211" stroke="#00A699" stroke-width="2" stroke-linecap="round" stroke-linejoin="round"/>
<path d="M29.6875 40.625V25" stroke="#00A699" stroke-width="2" stroke-linecap="round" stroke-linejoin="round"/>
</svg>
