<svg width="50" height="50" viewBox="0 0 50 50" fill="none" xmlns="http://www.w3.org/2000/svg">
<path d="M15.5638 25C15.5638 21.8355 16.4856 18.7421 18.2128 16.1109C19.9399 13.4797 22.3947 11.4289 25.2668 10.2179C28.1389 9.00693 31.2993 8.69008 34.3483 9.30744C37.3973 9.92481 40.198 11.4487 42.3963 13.6863C44.5945 15.9239 46.0915 18.7749 46.698 21.8786C47.3045 24.9823 46.9932 28.1993 45.8035 31.1229C44.6139 34.0466 42.5992 36.5454 40.0144 38.3035C37.4296 40.0616 34.3906 41 31.2819 41H13.992C12.4316 40.9985 10.8895 40.6591 9.46781 40.0045C8.04617 39.3498 6.77757 38.3949 5.74621 37.203C4.71486 36.0111 3.94435 34.6095 3.48581 33.0913C3.02728 31.5731 2.89121 29.973 3.08664 28.3972C3.28208 26.8214 3.80454 25.3059 4.61935 23.9514C5.43417 22.5968 6.52269 21.4341 7.81268 20.5406C9.10268 19.647 10.5646 19.0429 12.1015 18.7685C13.6384 18.494 15.215 18.5555 16.7268 18.9487" stroke="#00A699" stroke-width="2" stroke-linecap="round" stroke-linejoin="round"/>
<path d="M38 23L28 32L23 27.5" stroke="#00A699" stroke-width="2" stroke-linecap="round" stroke-linejoin="round"/>
</svg>
