<svg width="50" height="50" viewBox="0 0 50 50" fill="none" xmlns="http://www.w3.org/2000/svg">
<path d="M18.75 14.0625C18.75 12.4049 19.4085 10.8152 20.5806 9.64308C21.7527 8.47098 23.3424 7.8125 25 7.8125C26.6576 7.8125 28.2473 8.47098 29.4194 9.64308C30.5915 10.8152 31.25 12.4049 31.25 14.0625L3.75 34.6875C3.48765 34.8843 3.29385 35.1586 3.19607 35.4716C3.09829 35.7846 3.10148 36.1205 3.20518 36.4316C3.30889 36.7427 3.50785 37.0133 3.77389 37.2051C4.03993 37.3968 4.35956 37.5 4.6875 37.5H45.3125C45.6404 37.5 45.9601 37.3968 46.2261 37.2051C46.4922 37.0133 46.6911 36.7427 46.7948 36.4316C46.8985 36.1205 46.9017 35.7846 46.8039 35.4716C46.7061 35.1586 46.5124 34.8843 46.25 34.6875L25 18.75" stroke="#00A699" stroke-width="2" stroke-linecap="round" stroke-linejoin="round"/>
</svg>
