<svg width="50" height="50" viewBox="0 0 50 50" fill="none" xmlns="http://www.w3.org/2000/svg">
<path d="M18.75 23.4375C27.3794 23.4375 34.375 20.2895 34.375 16.4062C34.375 12.523 27.3794 9.375 18.75 9.375C10.1206 9.375 3.125 12.523 3.125 16.4062C3.125 20.2895 10.1206 23.4375 18.75 23.4375Z" stroke="#00A699" stroke-width="2" stroke-linecap="round" stroke-linejoin="round"/>
<path d="M3.125 16.4062V24.2188C3.125 28.1055 10.1172 31.25 18.75 31.25C27.3828 31.25 34.375 28.1055 34.375 24.2188V16.4062" stroke="#00A699" stroke-width="2" stroke-linecap="round" stroke-linejoin="round"/>
<path d="M12.5 22.8516V30.6641" stroke="#00A699" stroke-width="2" stroke-linecap="round" stroke-linejoin="round"/>
<path d="M34.375 18.8867C41.5039 19.5508 46.875 22.3828 46.875 25.7813C46.875 29.668 39.8828 32.8125 31.25 32.8125C27.4219 32.8125 23.9062 32.1875 21.1914 31.1719" stroke="#00A699" stroke-width="2" stroke-linecap="round" stroke-linejoin="round"/>
<path d="M15.625 31.1133V33.5938C15.625 37.4805 22.6172 40.625 31.25 40.625C39.8828 40.625 46.875 37.4805 46.875 33.5938V25.7812" stroke="#00A699" stroke-width="2" stroke-linecap="round" stroke-linejoin="round"/>
<path d="M37.5 32.2266V40.0391" stroke="#00A699" stroke-width="2" stroke-linecap="round" stroke-linejoin="round"/>
<path d="M25 22.8516V40.0391" stroke="#00A699" stroke-width="2" stroke-linecap="round" stroke-linejoin="round"/>
</svg>
