<svg width="50" height="50" viewBox="0 0 50 50" fill="none" xmlns="http://www.w3.org/2000/svg">
<path d="M35.1562 9.375C36.6067 9.375 37.9977 9.95117 39.0232 10.9768C40.0488 12.0023 40.625 13.3933 40.625 14.8438C40.625 16.2942 40.0488 17.6852 39.0232 18.7107C37.9977 19.7363 36.6067 20.3125 35.1562 20.3125H29.6875V14.8438C29.6875 13.3933 30.2637 12.0023 31.2893 10.9768C32.3148 9.95117 33.7058 9.375 35.1562 9.375V9.375Z" stroke="#00A699" stroke-width="2" stroke-linecap="round" stroke-linejoin="round"/>
<path d="M20.3125 20.3125H14.8438C13.3933 20.3125 12.0023 19.7363 10.9768 18.7107C9.95117 17.6852 9.375 16.2942 9.375 14.8438C9.375 13.3933 9.95117 12.0023 10.9768 10.9768C12.0023 9.95117 13.3933 9.375 14.8437 9.375C16.2942 9.375 17.6852 9.95117 18.7107 10.9768C19.7363 12.0023 20.3125 13.3933 20.3125 14.8438V20.3125Z" stroke="#00A699" stroke-width="2" stroke-linecap="round" stroke-linejoin="round"/>
<path d="M29.6875 29.6875H35.1562C36.6067 29.6875 37.9977 30.2637 39.0232 31.2893C40.0488 32.3148 40.625 33.7058 40.625 35.1562C40.625 36.6067 40.0488 37.9977 39.0232 39.0232C37.9977 40.0488 36.6067 40.625 35.1562 40.625C33.7058 40.625 32.3148 40.0488 31.2893 39.0232C30.2637 37.9977 29.6875 36.6067 29.6875 35.1562V29.6875Z" stroke="#00A699" stroke-width="2" stroke-linecap="round" stroke-linejoin="round"/>
<path d="M14.8438 40.625C13.3933 40.625 12.0023 40.0488 10.9768 39.0232C9.95117 37.9977 9.375 36.6067 9.375 35.1562C9.375 33.7058 9.95117 32.3148 10.9768 31.2893C12.0023 30.2637 13.3933 29.6875 14.8438 29.6875H20.3125V35.1562C20.3125 36.6067 19.7363 37.9977 18.7107 39.0232C17.6852 40.0488 16.2942 40.625 14.8438 40.625V40.625Z" stroke="#00A699" stroke-width="2" stroke-linecap="round" stroke-linejoin="round"/>
<path d="M29.6875 20.3125H20.3125V29.6875H29.6875V20.3125Z" stroke="#00A699" stroke-width="2" stroke-linecap="round" stroke-linejoin="round"/>
</svg>
