<svg width="50" height="50" viewBox="0 0 50 50" fill="none" xmlns="http://www.w3.org/2000/svg">
<path d="M7.40225 40.6055L17.9101 11.6797C18 11.4322 18.1511 11.2114 18.3492 11.0379C18.5473 10.8644 18.7861 10.7438 19.0433 10.6873C19.3005 10.6308 19.5679 10.6402 19.8205 10.7147C20.0731 10.7891 20.3028 10.9263 20.4882 11.1133L38.8866 29.5117C39.0736 29.6971 39.2108 29.9268 39.2852 30.1794C39.3597 30.432 39.3691 30.6994 39.3126 30.9566C39.2561 31.2138 39.1355 31.4526 38.962 31.6507C38.7885 31.8488 38.5677 31.9999 38.3202 32.0898L9.39443 42.5977C9.11615 42.704 8.81302 42.7276 8.52165 42.6654C8.23027 42.6033 7.96313 42.4581 7.75246 42.2474C7.5418 42.0368 7.39663 41.7696 7.33448 41.4783C7.27233 41.1869 7.29587 40.8838 7.40225 40.6055V40.6055Z" stroke="#00A699" stroke-width="2" stroke-linecap="round" stroke-linejoin="round"/>
<path d="M32.8125 14.0625C32.8125 14.0625 32.8125 9.375 37.5 9.375C42.1875 9.375 42.1875 4.6875 42.1875 4.6875" stroke="#00A699" stroke-width="2" stroke-linecap="round" stroke-linejoin="round"/>
<path d="M20 38.75L11.25 30" stroke="#00A699" stroke-width="2" stroke-linecap="round" stroke-linejoin="round"/>
<path d="M28.125 3.125V7.8125" stroke="#00A699" stroke-width="2" stroke-linecap="round" stroke-linejoin="round"/>
<path d="M42.1875 21.875L45.3125 25" stroke="#00A699" stroke-width="2" stroke-linecap="round" stroke-linejoin="round"/>
<path d="M42.1875 15.625L46.875 14.0625" stroke="#00A699" stroke-width="2" stroke-linecap="round" stroke-linejoin="round"/>
<path d="M15 19.6875L30.3125 35" stroke="#00A699" stroke-width="2" stroke-linecap="round" stroke-linejoin="round"/>
</svg>
