<svg width="50" height="50" viewBox="0 0 50 50" fill="none" xmlns="http://www.w3.org/2000/svg">
<path d="M43.9995 24.8956C44.0183 27.4152 43.5349 29.9134 42.5775 32.2439C41.6201 34.5744 40.2079 36.6904 38.4235 38.4683C31.1113 45.7726 19.1649 45.8547 11.7581 38.6465C9.03968 36.0029 7.17365 32.606 6.39996 28.8926C5.62627 25.1793 5.98029 21.3192 7.41651 17.8088C8.85272 14.2984 11.3055 11.2981 14.4593 9.19382C17.6132 7.08951 21.324 5.97735 25.1146 6.00035C25.352 6.00083 25.5863 6.05463 25.8001 6.15778C26.014 6.26093 26.2019 6.4108 26.3502 6.59634C26.4984 6.78187 26.6032 6.99834 26.6567 7.22978C26.7102 7.46122 26.7111 7.70173 26.6593 7.93356C26.4516 8.85511 26.4524 9.81148 26.6617 10.7327C26.8711 11.6539 27.2836 12.5165 27.8691 13.2576C28.4546 13.9987 29.1983 14.5993 30.0458 15.0156C30.8933 15.4319 31.823 15.6534 32.767 15.6637C33.1838 15.6671 33.5826 15.8344 33.8773 16.1293C34.1721 16.4242 34.3392 16.8232 34.3426 17.2403C34.3529 18.185 34.5742 19.1153 34.9902 19.9634C35.4062 20.8114 36.0065 21.5556 36.747 22.1415C37.4876 22.7274 38.3497 23.1402 39.2702 23.3497C40.1908 23.5592 41.1465 23.56 42.0674 23.3522C42.2989 23.3003 42.5391 23.3011 42.7703 23.3545C43.0014 23.4078 43.2177 23.5124 43.4031 23.6605C43.5885 23.8086 43.7383 23.9965 43.8415 24.2102C43.9448 24.424 43.9987 24.6582 43.9995 24.8956V24.8956Z" stroke="#00A699" stroke-width="2" stroke-linecap="round" stroke-linejoin="round"/>
<path d="M31 36C32.1046 36 33 35.1046 33 34C33 32.8954 32.1046 32 31 32C29.8954 32 29 32.8954 29 34C29 35.1046 29.8954 36 31 36Z" fill="#00A699"/>
<path d="M18 34C19.1046 34 20 33.1046 20 32C20 30.8954 19.1046 30 18 30C16.8954 30 16 30.8954 16 32C16 33.1046 16.8954 34 18 34Z" fill="#00A699"/>
<path d="M17 23C18.1046 23 19 22.1046 19 21C19 19.8954 18.1046 19 17 19C15.8954 19 15 19.8954 15 21C15 22.1046 15.8954 23 17 23Z" fill="#00A699"/>
<path d="M27 26C28.1046 26 29 25.1046 29 24C29 22.8954 28.1046 22 27 22C25.8954 22 25 22.8954 25 24C25 25.1046 25.8954 26 27 26Z" fill="#00A699"/>
</svg>
