<svg width="50" height="50" viewBox="0 0 50 50" fill="none" xmlns="http://www.w3.org/2000/svg">
<path d="M8.81417 38.2844C8.86288 38.4898 8.95264 38.6832 9.07805 38.853C9.20345 39.0228 9.36192 39.1655 9.5439 39.2725C9.72588 39.3794 9.92762 39.4485 10.137 39.4754C10.3463 39.5024 10.559 39.4867 10.7621 39.4294C20.0764 36.8577 29.9134 36.8567 39.2281 39.4267C39.4312 39.484 39.6438 39.4996 39.8531 39.4727C40.0624 39.4457 40.264 39.3767 40.4459 39.2698C40.6279 39.1629 40.7863 39.0203 40.9117 38.8506C41.0371 38.6809 41.1269 38.4876 41.1757 38.2823L46.1539 17.1266C46.2206 16.8434 46.2068 16.5472 46.1142 16.2714C46.0216 15.9956 45.8538 15.7511 45.6298 15.5655C45.4057 15.3799 45.1343 15.2605 44.8461 15.2208C44.5578 15.1811 44.2643 15.2227 43.9984 15.3409L34.1187 19.7318C33.762 19.8904 33.3588 19.9097 32.9886 19.7858C32.6183 19.662 32.3079 19.4041 32.1183 19.0628L26.3659 8.70847C26.2305 8.46489 26.0325 8.26192 25.7924 8.12061C25.5522 7.9793 25.2786 7.90479 25 7.90479C24.7213 7.90479 24.4478 7.9793 24.2076 8.12061C23.9674 8.26192 23.7694 8.46489 23.6341 8.70847L17.8817 19.0628C17.6921 19.4041 17.3816 19.662 17.0114 19.7858C16.6412 19.9097 16.238 19.8904 15.8812 19.7318L6.0001 15.3402C5.73428 15.2221 5.44075 15.1805 5.15257 15.2201C4.86439 15.2598 4.593 15.3791 4.36895 15.5646C4.1449 15.7501 3.9771 15.9945 3.88442 16.2703C3.79175 16.546 3.77789 16.8421 3.8444 17.1253L8.81417 38.2844Z" stroke="#00A699" stroke-width="2" stroke-linecap="round" stroke-linejoin="round"/>
<path d="M18.75 31.5779C22.9052 31.1407 27.0948 31.1407 31.25 31.5779" stroke="#00A699" stroke-width="2" stroke-linecap="round" stroke-linejoin="round"/>
</svg>
