<svg width="50" height="50" viewBox="0 0 50 50" fill="none" xmlns="http://www.w3.org/2000/svg">
<path d="M43.75 34.6288V15.371C43.7485 15.0929 43.6737 14.82 43.5331 14.58C43.3925 14.3399 43.1911 14.1412 42.9492 14.0038L25.7617 4.33588C25.5301 4.20217 25.2674 4.13177 25 4.13177C24.7326 4.13177 24.4699 4.20217 24.2383 4.33588L7.05078 14.0038C6.80889 14.1412 6.60749 14.3399 6.4669 14.58C6.32631 14.82 6.25149 15.0929 6.25 15.371V34.6288C6.25149 34.907 6.32631 35.1799 6.4669 35.4199C6.60749 35.6599 6.80889 35.8587 7.05078 35.996L24.2383 45.664C24.4699 45.7977 24.7326 45.8681 25 45.8681C25.2674 45.8681 25.5301 45.7977 25.7617 45.664L42.9492 35.996C43.1911 35.8587 43.3925 35.6599 43.5331 35.4199C43.6737 35.1799 43.7485 34.907 43.75 34.6288V34.6288Z" stroke="#00A699" stroke-width="2" stroke-linecap="round" stroke-linejoin="round"/>
<path d="M43.5352 14.5703L25.1758 25L6.46484 14.5703" stroke="#00A699" stroke-width="2" stroke-linecap="round" stroke-linejoin="round"/>
<path d="M25.1758 25L25 45.8594" stroke="#00A699" stroke-width="2" stroke-linecap="round" stroke-linejoin="round"/>
</svg>
