<svg width="50" height="50" viewBox="0 0 50 50" fill="none" xmlns="http://www.w3.org/2000/svg">
<path d="M25 4.6875V9.375" stroke="#00A699" stroke-width="2" stroke-linecap="round" stroke-linejoin="round"/>
<path d="M25 40.625V45.3125" stroke="#00A699" stroke-width="2" stroke-linecap="round" stroke-linejoin="round"/>
<path d="M35.9375 17.1875C35.9375 16.1615 35.7354 15.1456 35.3428 14.1978C34.9502 13.2499 34.3747 12.3887 33.6493 11.6632C32.9238 10.9378 32.0626 10.3623 31.1147 9.96969C30.1669 9.57708 29.151 9.375 28.125 9.375H21.0938C19.0217 9.375 17.0346 10.1981 15.5695 11.6632C14.1044 13.1284 13.2813 15.1155 13.2812 17.1875C13.2813 19.2595 14.1044 21.2466 15.5695 22.7118C17.0346 24.1769 19.0217 25 21.0938 25H29.6875C31.7595 25 33.7466 25.8231 35.2118 27.2882C36.6769 28.7534 37.5 30.7405 37.5 32.8125C37.5 34.8845 36.6769 36.8716 35.2118 38.3368C33.7466 39.8019 31.7595 40.625 29.6875 40.625H20.3125C18.2405 40.625 16.2534 39.8019 14.7882 38.3368C13.3231 36.8716 12.5 34.8845 12.5 32.8125" stroke="#00A699" stroke-width="2" stroke-linecap="round" stroke-linejoin="round"/>
</svg>
