<?xml version="1.0" encoding="UTF-8"?>
<svg width="50px" height="50px" viewBox="0 0 50 50" version="1.1" xmlns="http://www.w3.org/2000/svg" xmlns:xlink="http://www.w3.org/1999/xlink">
    <title>Customer support</title>
    <defs>
        <polygon id="path-1" points="0.0825 0.3416 1.0825 0.3416 1.0825 1 0.0825 1"></polygon>
    </defs>
    <g id="Customer-support" stroke="none" stroke-width="1" fill="none" fill-rule="evenodd">
        <path d="M10,20 C10,11.1633067 16.9394534,4 25.5,4 C34.0605466,4 41,11.1633067 41,20" id="Stroke-3" stroke="#1D1D1D" stroke-width="2"></path>
        <path d="M28,42.0004723 L28,42.0004723 C28,40.8953955 27.1030984,40 25.9949939,40 L22.432959,40 C21.6421323,40 21,40.6403778 21,41.4299882 L21,42.5709563 C21,43.3596222 21.6421323,44 22.432959,44 L25.9949939,44 C27.1030984,44 28,43.1046045 28,42.0004723 Z" id="Stroke-5" stroke="#000000" stroke-width="0.5" stroke-linecap="round"></path>
        <path d="M30.4194775,40 C30.7813017,40.4719834 31.0019747,41.1028758 30.9999867,41.7930626 C30.9979986,42.7156834 30.6013836,43.5280166 30,44" id="Stroke-13" stroke="#1D1D1D" stroke-width="0.5" stroke-linecap="round" stroke-dasharray="0,1"></path>
        <path d="M32.4921136,39 C33.4098998,39.6533286 34.003364,40.6922805 34,41.8597734 C33.9966073,43.2206091 33.1869284,44.4008499 32,45" id="Stroke-19" stroke="#1D1D1D" stroke-width="0.5" stroke-linecap="round" stroke-dasharray="0,1"></path>
        <g id="Group-23" transform="translate(31.000000, 43.000000)">
            <mask id="mask-2" fill="white">
                <use xlink:href="#path-1"></use>
            </mask>
            <g id="Clip-22"></g>
            <line x1="0.5825" y1="0.8416" x2="0.5825" y2="0.8416" id="Stroke-21" stroke="#1D1D1D" stroke-width="0.317" stroke-linecap="round" mask="url(#mask-2)"></line>
        </g>
        <path d="M11,33 C11,37.9705627 15.0294373,42 20,42 L21,42 L21,42" id="Path-7" stroke="#1D1D1D" stroke-width="0.5" stroke-linecap="square"></path>
        <path d="M4,25.9817991 C4.00884361,22.1156968 7.14334241,18.9901002 11,19 C11,19 11,33.0000236 11,33.0000236 C7.14331891,32.9900529 3.99010057,29.8479013 4,25.9817991 Z" id="Fill-7" stroke="#00A699" stroke-width="0.5" fill="#00A699"></path>
        <path d="M40,25.9817991 C40.0088436,22.1156968 43.1433424,18.9901002 47,19 C47,19 47,33.0000236 47,33.0000236 C43.1433189,32.9900529 39.9901006,29.8479013 40,25.9817991 Z" id="Fill-7-Copy" stroke="#00A699" stroke-width="0.5" fill="#00A699" transform="translate(43.500000, 26.000012) rotate(-180.000000) translate(-43.500000, -26.000012) "></path>
        <line x1="29.5" y1="38.5" x2="29.5" y2="38.5" id="Stroke-11" stroke="#1D1D1D" stroke-width="0.317" stroke-linecap="round"></line>
        <line x1="29.5" y1="42.5" x2="29.5" y2="42.5" id="Stroke-15" stroke="#1D1D1D" stroke-width="0.317" stroke-linecap="round"></line>
        <line x1="31.5" y1="37.5" x2="31.5" y2="37.5" id="Stroke-17" stroke="#1D1D1D" stroke-width="0.5" stroke-linecap="round"></line>
        <g id="noun_Tool_3492190" transform="translate(-285.000000, -91.000000)" fill="#000000">
            <path d="M125,82 L244,201 C265,193 290,198 308,215 C326,233 330,260 319,282 L281,243 C262,224 233,253 252,272 L291,311 C269,321 242,317 224,299 C206,282 202,256 210,235 L91,116 C70,124 44,120 27,102 C9,84 5,57 15,35 L54,74 C73,93 102,64 83,45 L44,7 C66,-4 93,-1.25455202e-14 111,18 C128,36 133,61 125,82 Z M18,263 L115,166 L159,210 L62,307 C33,336 -11,292 18,263 Z M187,118 L239,66 L265,25 L303,2 L323,21 L299,60 L259,85 L206,138 L187,118 Z" id="Shape"></path>
        </g>
    </g>
</svg>