<svg width="50" height="50" viewBox="0 0 50 50" fill="none" xmlns="http://www.w3.org/2000/svg">
<path d="M25 28C26.6569 28 28 26.6569 28 25C28 23.3431 26.6569 22 25 22C23.3431 22 22 23.3431 22 25C22 26.6569 23.3431 28 25 28Z" fill="#00A699"/>
<path d="M25 12C26.6569 12 28 10.6569 28 9C28 7.34315 26.6569 6 25 6C23.3431 6 22 7.34315 22 9C22 10.6569 23.3431 12 25 12Z" fill="#00A699"/>
<path d="M25 44C26.6569 44 28 42.6569 28 41C28 39.3431 26.6569 38 25 38C23.3431 38 22 39.3431 22 41C22 42.6569 23.3431 44 25 44Z" fill="#00A699"/>
</svg>
