<svg width="50" height="50" viewBox="0 0 50 50" fill="none" xmlns="http://www.w3.org/2000/svg">
<path d="M6 21.2273L5.34638 20.4705C5.12643 20.6604 5 20.9367 5 21.2273H6ZM44 21.2273H45C45 20.948 44.8832 20.6815 44.6779 20.4922L44 21.2273ZM14 5.5H36V3.5H14V5.5ZM5.28559 21.927L18.2856 35.1997L19.7144 33.8003L6.71441 20.5276L5.28559 21.927ZM19 35.5H30.6533V33.5H19V35.5ZM31.3585 35.2091L44.7051 21.9364L43.2949 20.5182L29.9482 33.7909L31.3585 35.2091ZM42 44.5H8V46.5H42V44.5ZM37 6.5V15.694H39V6.5H37ZM37 15.694V27.194H39V15.694H37ZM44.6779 20.4922L38.6779 14.9589L37.3221 16.4292L43.3221 21.9624L44.6779 20.4922ZM13 27.3532V16.0455H11V27.3532H13ZM13 16.0455V6.5H11V16.0455H13ZM6.65362 21.9841L12.6536 16.8023L11.3464 15.2886L5.34638 20.4705L6.65362 21.9841ZM43 21.2273V43.4091H45V21.2273H43ZM43 43.4091V43.5H45V43.4091H43ZM30.0981 35.3317L43.4448 44.2408L44.5552 42.5774L31.2085 33.6683L30.0981 35.3317ZM7 43.5V43.4091H5V43.5H7ZM7 43.4091V21.2273H5V43.4091H7ZM18.4347 33.6751L5.4347 42.5842L6.5653 44.234L19.5653 35.3249L18.4347 33.6751ZM8 44.5C7.44772 44.5 7 44.0523 7 43.5H5C5 45.1569 6.34314 46.5 8 46.5V44.5ZM42 46.5C43.6569 46.5 45 45.1569 45 43.5H43C43 44.0523 42.5523 44.5 42 44.5V46.5ZM36 5.5C36.5523 5.5 37 5.94772 37 6.5H39C39 4.84315 37.6569 3.5 36 3.5V5.5ZM14 3.5C12.3431 3.5 11 4.84315 11 6.5H13C13 5.94772 13.4477 5.5 14 5.5V3.5Z" fill="#00A699"/>
<path d="M24.5 22.5C26.433 22.5 28 20.933 28 19C28 17.067 26.433 15.5 24.5 15.5C22.567 15.5 21 17.067 21 19C21 20.933 22.567 22.5 24.5 22.5Z" stroke="#00A699" stroke-width="2" stroke-linecap="round" stroke-linejoin="round"/>
<path d="M29.2002 26.0822C27.6223 27.1294 25.7399 27.6197 23.8516 27.4752C21.9634 27.3308 20.1774 26.5599 18.7772 25.2848C17.3769 24.0098 16.4426 22.3036 16.1224 20.4371C15.8022 18.5706 16.1145 16.6506 17.0098 14.9817C17.905 13.3129 19.332 11.9909 21.0642 11.2254C22.7963 10.4599 24.7345 10.2948 26.5713 10.7562C28.408 11.2177 30.038 12.2793 31.2026 13.7727C32.3673 15.266 32.9998 17.1055 33 18.9993C33 20.9551 32.2917 22.5406 30.521 22.5406C28.7504 22.5406 28.0421 20.9551 28.0421 18.9993V15.4579" stroke="#00A699" stroke-width="2" stroke-linecap="round" stroke-linejoin="round"/>
</svg>
