<svg width="50" height="50" viewBox="0 0 50 50" fill="none" xmlns="http://www.w3.org/2000/svg">
<path d="M9 7L42 42.5" stroke="#00A699" stroke-width="2" stroke-linecap="round" stroke-linejoin="round"/>
<path d="M31 30.9079C29.3574 32.3432 27.1889 33.0925 24.9717 32.9909C22.7544 32.8893 20.6699 31.9451 19.1768 30.3661C17.6836 28.7872 16.904 26.7026 17.0095 24.5711C17.1149 22.4396 18.0969 20.4356 19.7392 19" stroke="#00A699" stroke-width="2" stroke-linecap="round" stroke-linejoin="round"/>
<path d="M13.8786 13C5.5281 17.2422 2 25.2066 2 25.2066C2 25.2066 8.55431 39.9992 24.9401 39.9992C28.7793 40.0299 32.5705 39.1428 36 37.4113" stroke="#00A699" stroke-width="2" stroke-linecap="round" stroke-linejoin="round"/>
<path d="M41.6122 33C46.0488 29.0292 48 24.6426 48 24.6426C48 24.6426 41.4882 10 25.2087 10C23.7987 9.99773 22.391 10.1123 21 10.3425" stroke="#00A699" stroke-width="2" stroke-linecap="round" stroke-linejoin="round"/>
<path d="M27 17C28.5794 17.3216 30.0178 18.1777 31.0996 19.4398C32.1814 20.7019 32.8482 22.302 33 24" stroke="#00A699" stroke-width="2" stroke-linecap="round" stroke-linejoin="round"/>
</svg>
