<svg width="50" height="50" viewBox="0 0 50 50" fill="none" xmlns="http://www.w3.org/2000/svg">
<path d="M42.1875 26.5628C42.1875 36.6214 27.6563 40.0784 25.3125 40.5667C25.106 40.6058 24.894 40.6058 24.6875 40.5667C22.3438 40.0784 7.81252 36.6214 7.81252 26.5628V15.1565C7.81089 14.8349 7.90978 14.5209 8.09538 14.2582C8.28097 13.9956 8.544 13.7975 8.84768 13.6917L24.4727 8.00809C24.8144 7.89053 25.1856 7.89053 25.5274 8.00809L41.1524 13.6917C41.456 13.7975 41.7191 13.9956 41.9047 14.2582C42.0903 14.5209 42.1892 14.8349 42.1875 15.1565V26.5628Z" stroke="#00A699" stroke-width="2" stroke-linecap="round" stroke-linejoin="round"/>
<path d="M17.1875 21.875H32.8125" stroke="#00A699" stroke-width="2" stroke-linecap="round" stroke-linejoin="round"/>
<path d="M17.1875 28.125H32.8125" stroke="#00A699" stroke-width="2" stroke-linecap="round" stroke-linejoin="round"/>
<path d="M41.6797 29.6875H43.75C44.3663 29.6901 44.977 29.5706 45.5469 29.336C46.1168 29.1013 46.6345 28.7562 47.0703 28.3204C47.5061 27.8846 47.8513 27.3668 48.086 26.7969C48.3206 26.227 48.4401 25.6163 48.4375 25V20.3125C48.4401 19.6962 48.3206 19.0855 48.086 18.5157C47.8513 17.9458 47.5061 17.428 47.0703 16.9922C46.6345 16.5564 46.1168 16.2112 45.5469 15.9766C44.977 15.7419 44.3663 15.6225 43.75 15.625H42.1875" stroke="#00A699" stroke-width="2" stroke-linecap="round" stroke-linejoin="round"/>
<path d="M8.32035 29.6875H6.25004C5.63375 29.6901 5.02304 29.5706 4.45316 29.336C3.88328 29.1013 3.36551 28.7562 2.92972 28.3204C2.49393 27.8846 2.14875 27.3668 1.91409 26.7969C1.67944 26.227 1.55996 25.6163 1.56254 25V20.3125C1.55996 19.6962 1.67944 19.0855 1.91409 18.5157C2.14875 17.9458 2.49393 17.428 2.92972 16.9922C3.36551 16.5564 3.88328 16.2112 4.45316 15.9766C5.02304 15.7419 5.63375 15.6225 6.25004 15.625H7.81254" stroke="#00A699" stroke-width="2" stroke-linecap="round" stroke-linejoin="round"/>
</svg>
