<svg width="50" height="50" viewBox="0 0 50 50" fill="none" xmlns="http://www.w3.org/2000/svg">
<path d="M32.4375 44H10.5625C10.1481 44 9.75067 43.8314 9.45765 43.5314C9.16462 43.2313 9 42.8243 9 42.4V13.6C9 13.1757 9.16462 12.7687 9.45765 12.4686C9.75067 12.1686 10.1481 12 10.5625 12H26.1875L34 20V42.4C34 42.8243 33.8354 43.2313 33.5424 43.5314C33.2493 43.8314 32.8519 44 32.4375 44Z" stroke="#00A699" stroke-width="2" stroke-linecap="round" stroke-linejoin="round"/>
<path d="M16 12V7.5625C16 7.1481 16.1646 6.75067 16.4576 6.45765C16.7507 6.16462 17.1481 6 17.5625 6H33.1875L41 13.8125V35.4404C41 35.8548 40.8354 36.2522 40.5424 36.5452C40.2493 36.8383 39.8519 37.0029 39.4375 37.0029H34.75" stroke="#00A699" stroke-width="2" stroke-linecap="round" stroke-linejoin="round"/>
<path d="M17 30H26.375" stroke="#00A699" stroke-width="2" stroke-linecap="round" stroke-linejoin="round"/>
<path d="M17 36H26.375" stroke="#00A699" stroke-width="2" stroke-linecap="round" stroke-linejoin="round"/>
</svg>
