<svg width="50" height="50" viewBox="0 0 50 50" fill="none" xmlns="http://www.w3.org/2000/svg">
<path d="M28.0846 32.7732L31.2096 35.8982" stroke="#00A699" stroke-width="2" stroke-linecap="round" stroke-linejoin="round"/>
<path d="M24.2176 34.375C27.2379 34.375 29.6863 31.9266 29.6863 28.9062C29.6863 25.8859 27.2379 23.4375 24.2176 23.4375C21.1973 23.4375 18.7488 25.8859 18.7488 28.9062C18.7488 31.9266 21.1973 34.375 24.2176 34.375Z" stroke="#00A699" stroke-width="2" stroke-linecap="round" stroke-linejoin="round"/>
<path d="M39.4001 44H10.5999C10.1756 44 9.76863 43.8332 9.46859 43.5362C9.16855 43.2393 8.99999 42.8366 9 42.4167V7.58333C8.99999 7.16342 9.16855 6.7607 9.46859 6.46376C9.76863 6.16683 10.1756 6.00001 10.5999 6H30L41 17V42.4167C41 42.8366 40.8315 43.2393 40.5314 43.5362C40.2314 43.8332 39.8244 44 39.4001 44Z" stroke="#00A699" stroke-width="2" stroke-linecap="round" stroke-linejoin="round"/>
<path d="M30 6V17H41" stroke="#00A699" stroke-width="2" stroke-linecap="round" stroke-linejoin="round"/>
</svg>
