<svg width="50" height="50" viewBox="0 0 50 50" fill="none" xmlns="http://www.w3.org/2000/svg">
<path d="M7.8125 21.875H42.1875V39.0625C42.1875 39.4769 42.0229 39.8743 41.7299 40.1674C41.4368 40.4604 41.0394 40.625 40.625 40.625H9.375C8.9606 40.625 8.56317 40.4604 8.27015 40.1674C7.97712 39.8743 7.8125 39.4769 7.8125 39.0625V21.875Z" stroke="#00A699" stroke-width="2" stroke-linecap="round" stroke-linejoin="round"/>
<path d="M7.81249 21.875L41.0156 12.9688L39.3945 6.93364C39.3425 6.73502 39.2515 6.54877 39.1266 6.38579C39.0017 6.22282 38.8456 6.08641 38.6673 5.98455C38.4891 5.88268 38.2923 5.81742 38.0885 5.79258C37.8847 5.76774 37.678 5.78383 37.4805 5.83989L7.30468 13.9258C7.10567 13.978 6.91894 14.069 6.75519 14.1936C6.59144 14.3181 6.4539 14.4738 6.35046 14.6516C6.24702 14.8295 6.17972 15.026 6.15242 15.2299C6.12513 15.4338 6.13837 15.6411 6.19139 15.8399L7.81249 21.875Z" stroke="#00A699" stroke-width="2" stroke-linecap="round" stroke-linejoin="round"/>
<path d="M25.4102 9.0625L34.9805 14.5898" stroke="#00A699" stroke-width="2" stroke-linecap="round" stroke-linejoin="round"/>
<path d="M11.836 12.7148L21.3867 18.2422" stroke="#00A699" stroke-width="2" stroke-linecap="round" stroke-linejoin="round"/>
</svg>
