<svg width="50" height="50" viewBox="0 0 50 50" fill="none" xmlns="http://www.w3.org/2000/svg">
<path d="M11 36C12.6483 32.5254 13.5035 28.6971 13.4981 24.8172C13.4964 22.9317 13.9002 21.07 14.6796 19.3705C15.459 17.6709 16.5939 16.1771 18 15" stroke="#00A699" stroke-width="2" stroke-linecap="round" stroke-linejoin="round"/>
<path d="M25 25C25.0084 31.2972 23.6316 37.4927 21 43" stroke="#00A699" stroke-width="2" stroke-linecap="round" stroke-linejoin="round"/>
<path d="M20 25.2791C20 23.6138 20.5795 22.0167 21.6109 20.8391C22.6424 19.6615 24.0413 19 25.5 19C26.9587 19 28.3576 19.6615 29.3891 20.8391C30.4205 22.0167 31 23.6138 31 25.2791C31.008 31.7513 29.7592 38.1449 27.3433 44" stroke="#00A699" stroke-width="2" stroke-linecap="round" stroke-linejoin="round"/>
<path d="M42.9529 36C43.6511 32.3594 44.0018 28.6577 44 24.9474C44 19.9222 42.0536 15.1029 38.589 11.5496C35.1244 7.99623 30.4253 6 25.5256 6C20.6259 6 15.9269 7.99623 12.4623 11.5496C8.99765 15.1029 7.05124 19.9222 7.05124 24.9474C7.05354 27.0986 6.69803 29.2345 6 31.2632" stroke="#00A699" stroke-width="2" stroke-linecap="round" stroke-linejoin="round"/>
<path d="M19 31C18.2459 34.5159 16.895 37.893 15 41" stroke="#00A699" stroke-width="2" stroke-linecap="round" stroke-linejoin="round"/>
<path d="M24 12.098C25.7515 11.875 27.5296 12.0336 29.2164 12.5631C30.9032 13.0927 32.4601 13.9812 33.7839 15.1697C35.1078 16.3581 36.1683 17.8195 36.8951 19.4568C37.622 21.0941 37.9986 22.87 38 24.6667C38.0005 26.7839 37.8719 28.8991 37.6149 31" stroke="#00A699" stroke-width="2" stroke-linecap="round" stroke-linejoin="round"/>
<path d="M36 38C35.706 39.0147 35.3726 40.0147 35 41" stroke="#00A699" stroke-width="2" stroke-linecap="round" stroke-linejoin="round"/>
</svg>
