<svg width="50" height="50" viewBox="0 0 50 50" fill="none" xmlns="http://www.w3.org/2000/svg">
<path d="M25 30C27.7614 30 30 27.7614 30 25C30 22.2386 27.7614 20 25 20C22.2386 20 20 22.2386 20 25C20 27.7614 22.2386 30 25 30Z" stroke="#00A699" stroke-width="2" stroke-linecap="round" stroke-linejoin="round"/>
<path d="M22.2203 20C20.6506 16.7218 19 12.6378 19 9.95884C19 8.37846 19.6321 6.8628 20.7574 5.7453C21.8826 4.6278 23.4087 4 25 4C26.5913 4 28.1174 4.6278 29.2426 5.7453C30.3679 6.8628 31 8.37846 31 9.95884C31 12.6378 29.3494 16.7218 27.7797 20" stroke="#00A699" stroke-width="2" stroke-linecap="round" stroke-linejoin="round"/>
<path d="M19.2452 25C15.6343 24.719 11.2869 24.1138 8.97173 22.8114C7.60642 22.0428 6.6103 20.7772 6.20241 19.2931C5.79453 17.809 6.00829 16.2277 6.79668 14.8971C7.58507 13.5665 8.88353 12.5955 10.4065 12.1977C11.9295 11.7998 13.5523 12.0076 14.9181 12.7755C17.2332 14.0779 19.9448 17.444 22 20.3506" stroke="#00A699" stroke-width="2" stroke-linecap="round" stroke-linejoin="round"/>
<path d="M22 29.6494C19.9448 32.556 17.2332 35.9221 14.9181 37.2245C13.5523 37.9924 11.9295 38.2002 10.4065 37.8023C8.88353 37.4045 7.58507 36.4335 6.79668 35.1029C6.00829 33.7723 5.79453 32.191 6.20241 30.7069C6.6103 29.2228 7.60642 27.9572 8.97173 27.1886C11.2869 25.8862 15.6343 25.281 19.2452 25" stroke="#00A699" stroke-width="2" stroke-linecap="round" stroke-linejoin="round"/>
<path d="M27.7797 30C29.3494 33.2782 31 37.3622 31 40.0412C31 41.6215 30.3679 43.1372 29.2426 44.2547C28.1174 45.3722 26.5913 46 25 46C23.4087 46 21.8826 45.3722 20.7574 44.2547C19.6321 43.1372 19 41.6215 19 40.0412C19 37.3622 20.6506 33.2782 22.2203 30" stroke="#00A699" stroke-width="2" stroke-linecap="round" stroke-linejoin="round"/>
<path d="M30.7548 25C34.3657 25.281 38.7131 25.8862 41.0283 27.1886C42.3936 27.9572 43.3897 29.2228 43.7976 30.7069C44.2055 32.191 43.9917 33.7723 43.2033 35.1029C42.4149 36.4335 41.1165 37.4045 39.5935 37.8023C38.0705 38.2002 36.4477 37.9924 35.0819 37.2245C32.7668 35.9221 30.0552 32.556 28 29.6494" stroke="#00A699" stroke-width="2" stroke-linecap="round" stroke-linejoin="round"/>
<path d="M28 20.3506C30.0552 17.444 32.7668 14.0779 35.0819 12.7755C36.4477 12.0076 38.0705 11.7998 39.5935 12.1977C41.1165 12.5955 42.4149 13.5665 43.2033 14.8971C43.9917 16.2277 44.2055 17.809 43.7976 19.2931C43.3897 20.7772 42.3936 22.0428 41.0283 22.8114C38.7131 24.1138 34.3657 24.719 30.7548 25" stroke="#00A699" stroke-width="2" stroke-linecap="round" stroke-linejoin="round"/>
</svg>
