<svg width="50" height="50" viewBox="0 0 50 50" fill="none" xmlns="http://www.w3.org/2000/svg">
<path d="M20 28H29.375" stroke="#00A699" stroke-width="2" stroke-linecap="round" stroke-linejoin="round"/>
<path d="M44 17.3158V39.5965C44 39.9687 43.8517 40.3257 43.5878 40.5889C43.3238 40.8521 42.9659 41 42.5926 41H7.58333C7.16341 41 6.76068 40.8336 6.46375 40.5375C6.16682 40.2414 6 39.8398 6 39.4211V12.5789C6 12.1602 6.16682 11.7586 6.46375 11.4625C6.76068 11.1664 7.16341 11 7.58333 11H18.1389C18.4815 11 18.8148 11.1108 19.0889 11.3158L24.5778 15.4211C24.8518 15.626 25.1852 15.7368 25.5278 15.7368H42.4167C42.8366 15.7368 43.2393 15.9032 43.5363 16.1993C43.8332 16.4954 44 16.897 44 17.3158Z" stroke="#00A699" stroke-width="2" stroke-linecap="round" stroke-linejoin="round"/>
</svg>
