<?xml version="1.0" encoding="UTF-8"?>
<svg width="50px" height="50px" viewBox="0 0 50 50" version="1.1" xmlns="http://www.w3.org/2000/svg" xmlns:xlink="http://www.w3.org/1999/xlink">
    <title>Get paid fast</title>
    <g id="Get-paid-fast" stroke="none" stroke-width="1" fill="none" fill-rule="evenodd">
        <path d="M25.0111543,25.0073501 C25.0111543,9.67401674 25.0111543,2.00735007 25.0111543,2.00735007 C12.3086051,2.00735007 2.01115433,12.3048008 2.01115433,25.0073501 C2.01115433,25.0073501 13.5111543,25.0073501 25.0111543,25.0073501 Z" id="Oval-Copy" fill="#00A699" transform="translate(13.511154, 13.507350) rotate(-360.000000) translate(-13.511154, -13.507350) "></path>
        <path d="M25,22 C26.6582192,22 28,23.3433756 28,24.998973 C28,26.6566244 26.6582192,28 25,28 C23.3417808,28 22,26.6566244 22,24.998973 C22,23.3433756 23.3417808,22 25,22 Z" id="Stroke-11-Copy" fill="#1D1D1D"></path>
        <line x1="24.75" y1="25.4172619" x2="35" y2="15" id="Line-3-Copy" stroke="#1D1D1D" stroke-linecap="square"></line>
        <circle id="Oval" stroke="#1D1D1D" stroke-width="0.5" cx="25" cy="25" r="20.75"></circle>
        <path d="M15.0567935,35 C12.3630621,32.2659718 11.0108192,28.6858097 10.999873,25.1022694 M25.0440103,11.0013456 C28.2484683,11.0462093 31.4405794,12.2129337 34,14.5013909" id="Shape" stroke="#1D1D1D" stroke-width="2"></path>
        <path d="M11,25.1022694 C10.9894751,21.4900004 12.341718,17.8742989 15.0570446,15.1183524 C17.8111015,12.3230963 21.4355109,10.9508216 25.0442614,11.0013456" id="Path" stroke="#FFFFFF" stroke-width="2"></path>
    </g>
</svg>