<svg width="50" height="50" viewBox="0 0 50 50" fill="none" xmlns="http://www.w3.org/2000/svg">
<path d="M41.5 18H8.5C7.67157 18 7 18.6716 7 19.5V25.5C7 26.3284 7.67157 27 8.5 27H41.5C42.3284 27 43 26.3284 43 25.5V19.5C43 18.6716 42.3284 18 41.5 18Z" stroke="#00A699" stroke-width="2" stroke-linecap="round" stroke-linejoin="round"/>
<path d="M40 27V40.5C40 40.8978 39.842 41.2794 39.5607 41.5607C39.2794 41.842 38.8978 42 38.5 42H11.5C11.1022 42 10.7206 41.842 10.4393 41.5607C10.158 41.2794 10 40.8978 10 40.5V27" stroke="#00A699" stroke-width="2" stroke-linecap="round" stroke-linejoin="round"/>
<path d="M25 18V42" stroke="#00A699" stroke-width="2" stroke-linecap="round" stroke-linejoin="round"/>
<path d="M33.6571 15.8357C31.4929 18 25 18 25 18C25 18 25 11.5071 27.1643 9.34287C28.0255 8.48267 29.193 7.99965 30.4102 8C31.6274 8.00035 32.7946 8.48403 33.6553 9.34471C34.516 10.2054 34.9997 11.3726 35 12.5898C35.0003 13.807 34.5173 14.9745 33.6571 15.8357V15.8357Z" stroke="#00A699" stroke-width="2" stroke-linecap="round" stroke-linejoin="round"/>
<path d="M16.3429 15.8357C18.5071 18 25 18 25 18C25 18 25 11.5071 22.8357 9.34287C21.9745 8.48267 20.807 7.99965 19.5898 8C18.3726 8.00035 17.2054 8.48403 16.3447 9.34471C15.484 10.2054 15.0003 11.3726 15 12.5898C14.9997 13.807 15.4827 14.9745 16.3429 15.8357V15.8357Z" stroke="#00A699" stroke-width="2" stroke-linecap="round" stroke-linejoin="round"/>
</svg>
