<svg width="50" height="50" viewBox="0 0 50 50" fill="none" xmlns="http://www.w3.org/2000/svg">
<path d="M25 45C36.0457 45 45 36.0457 45 25C45 13.9543 36.0457 5 25 5C13.9543 5 5 13.9543 5 25C5 36.0457 13.9543 45 25 45Z" stroke="#00A699" stroke-width="2" stroke-linecap="round" stroke-linejoin="round"/>
<path d="M43 33.8394L31.4043 26.8874C31.201 26.7655 30.9738 26.6865 30.7373 26.6554L25.8632 26.0149C25.4972 25.9668 25.1251 26.0356 24.8025 26.211C24.48 26.3864 24.2244 26.6589 24.0741 26.9877L21.148 33.388C21.0119 33.6856 20.9684 34.0156 21.0228 34.3371C21.0772 34.6587 21.2271 34.9576 21.4541 35.1968L25.4698 39.4309C25.6519 39.6228 25.785 39.8538 25.8585 40.1052C25.932 40.3566 25.9437 40.6214 25.8928 40.878L25.0748 45" stroke="#00A699" stroke-width="2" stroke-linecap="round" stroke-linejoin="round"/>
<path d="M11.9374 10L10.1278 14.2766C9.96647 14.6579 9.95755 15.0865 10.1029 15.4742L12.4277 21.6754C12.5229 21.9294 12.6804 22.1553 12.8859 22.3325C13.0913 22.5097 13.338 22.6324 13.6032 22.6894L17.9389 23.6207C18.1794 23.6724 18.4051 23.7782 18.5986 23.9301C18.7921 24.0821 18.9484 24.2761 19.0556 24.4974L19.8255 26.0872C19.958 26.3607 20.165 26.5915 20.4226 26.7529C20.6803 26.9144 20.9783 27 21.2824 27H24" stroke="#00A699" stroke-width="2" stroke-linecap="round" stroke-linejoin="round"/>
<path d="M29.9106 6L31.7951 9.3683C31.9732 9.68672 32.0379 10.056 31.9785 10.4159C31.9192 10.7757 31.7392 11.1048 31.4682 11.3494L26.0347 16.2528C25.9425 16.336 25.841 16.4083 25.7321 16.4683L23.2605 17.8303C23.0214 17.962 22.7527 18.0311 22.4796 18.0311H18.1699C17.8521 18.0311 17.5413 18.1247 17.2765 18.3001C17.0117 18.4755 16.8047 18.725 16.6813 19.0172L15 23" stroke="#00A699" stroke-width="2" stroke-linecap="round" stroke-linejoin="round"/>
</svg>
