<svg width="50" height="50" viewBox="0 0 50 50" fill="none" xmlns="http://www.w3.org/2000/svg">
<path d="M25 44C35.4934 44 44 35.4934 44 25C44 14.5066 35.4934 6 25 6C14.5066 6 6 14.5066 6 25C6 35.4934 14.5066 44 25 44Z" stroke="#00A699" stroke-width="2" stroke-miterlimit="10"/>
<path d="M7 19H43" stroke="#00A699" stroke-width="2" stroke-linecap="round" stroke-linejoin="round"/>
<path d="M7 31H43" stroke="#00A699" stroke-width="2" stroke-linecap="round" stroke-linejoin="round"/>
<path d="M25 43C29.4183 43 33 34.9411 33 25C33 15.0589 29.4183 7 25 7C20.5817 7 17 15.0589 17 25C17 34.9411 20.5817 43 25 43Z" stroke="#00A699" stroke-width="2" stroke-miterlimit="10"/>
</svg>
