<svg width="50" height="50" viewBox="0 0 50 50" fill="none" xmlns="http://www.w3.org/2000/svg">
<path d="M9.53129 18.75C9.2982 18.7495 9.06816 18.6968 8.85806 18.5959C8.64795 18.495 8.46308 18.3483 8.31701 18.1666C8.17094 17.985 8.06737 17.773 8.01387 17.5461C7.96038 17.3192 7.95832 17.0832 8.00785 16.8555C9.25785 10.8398 16.3868 6.25 25 6.25C33.6133 6.25 40.7422 10.8398 41.9922 16.8555C42.0418 17.0832 42.0397 17.3192 41.9862 17.5461C41.9327 17.773 41.8291 17.985 41.6831 18.1666C41.537 18.3483 41.3521 18.495 41.142 18.5959C40.9319 18.6968 40.7019 18.7495 40.4688 18.75H9.53129Z" stroke="#00A699" stroke-width="2" stroke-linecap="round" stroke-linejoin="round"/>
<path d="M40.625 32.8125V35.9375C40.625 37.5951 39.9665 39.1848 38.7944 40.3569C37.6223 41.529 36.0326 42.1875 34.375 42.1875H15.625C13.9674 42.1875 12.3777 41.529 11.2056 40.3569C10.0335 39.1848 9.375 37.5951 9.375 35.9375V32.8125" stroke="#00A699" stroke-width="2" stroke-linecap="round" stroke-linejoin="round"/>
<path d="M5.46875 34.375L13.2812 31.25L21.0938 34.375L28.9062 31.25L36.7188 34.375L44.5312 31.25" stroke="#00A699" stroke-width="2" stroke-linecap="round" stroke-linejoin="round"/>
<path d="M4.6875 25H45.3125" stroke="#00A699" stroke-width="2" stroke-linecap="round" stroke-linejoin="round"/>
</svg>
