<svg width="50" height="50" viewBox="0 0 50 50" fill="none" xmlns="http://www.w3.org/2000/svg">
<path d="M15.625 20.3125H34.375C36.0326 20.3125 37.6223 20.971 38.7944 22.1431C39.9665 23.3152 40.625 24.9049 40.625 26.5625V42.1875C40.625 42.6019 40.4604 42.9993 40.1674 43.2924C39.8743 43.5854 39.4769 43.75 39.0625 43.75H10.9375C10.5231 43.75 10.1257 43.5854 9.83265 43.2924C9.53962 42.9993 9.375 42.6019 9.375 42.1875V26.5625C9.375 24.9049 10.0335 23.3152 11.2056 22.1431C12.3777 20.971 13.9674 20.3125 15.625 20.3125V20.3125Z" stroke="#00A699" stroke-width="2" stroke-linecap="round" stroke-linejoin="round"/>
<path d="M15.625 20.3125V17.1875C15.6225 16.5712 15.7419 15.9605 15.9766 15.3907C16.2112 14.8208 16.5564 14.303 16.9922 13.8672C17.428 13.4314 17.9458 13.0862 18.5157 12.8516C19.0855 12.6169 19.6962 12.4975 20.3125 12.5H29.6875C30.3038 12.4975 30.9145 12.6169 31.4844 12.8516C32.0543 13.0862 32.5721 13.4314 33.0079 13.8672C33.4437 14.303 33.7888 14.8208 34.0235 15.3907C34.2581 15.9605 34.3776 16.5712 34.375 17.1875V20.3125" stroke="#00A699" stroke-width="2" stroke-linecap="round" stroke-linejoin="round"/>
<path d="M35.9375 7.8125C35.9375 6.9837 35.6083 6.18884 35.0222 5.60279C34.4362 5.01674 33.6413 4.6875 32.8125 4.6875H20.3125" stroke="#00A699" stroke-width="2" stroke-linecap="round" stroke-linejoin="round"/>
<path d="M25 4.6875V12.5" stroke="#00A699" stroke-width="2" stroke-linecap="round" stroke-linejoin="round"/>
</svg>
