<svg width="50" height="50" viewBox="0 0 50 50" fill="none" xmlns="http://www.w3.org/2000/svg">
<path d="M44 22.8571H37.7143C36.8808 22.8571 36.0814 23.1883 35.492 23.7777C34.9026 24.3671 34.5715 25.1665 34.5715 26V33.8571C34.5715 34.6907 34.9026 35.4901 35.492 36.0795C36.0814 36.6689 36.8808 37 37.7143 37H40.8572C41.6907 37 42.4901 36.6689 43.0795 36.0795C43.6689 35.4901 44 34.6907 44 33.8571V22.8571ZM44 22.8571C44 20.3688 43.5075 17.905 42.5509 15.6078C41.5943 13.3107 40.1925 11.2256 38.4263 9.47268C36.6601 7.71981 34.5644 6.33384 32.2601 5.39466C29.9557 4.45549 27.4883 3.98168 25 4.00054C22.5117 3.98168 20.0443 4.45549 17.7399 5.39466C15.4356 6.33384 13.3399 7.71981 11.5737 9.47268C9.80754 11.2256 8.40573 13.3107 7.44912 15.6078C6.4925 17.905 6 20.3688 6 22.8571V33.8571C6 34.6907 6.33112 35.4901 6.92052 36.0795C7.50991 36.6689 8.3093 37 9.14284 37H12.2857C13.1192 37 13.9186 36.6689 14.508 36.0795C15.0974 35.4901 15.4285 34.6907 15.4285 33.8571V26C15.4285 25.1665 15.0974 24.3671 14.508 23.7777C13.9186 23.1883 13.1192 22.8571 12.2857 22.8571H6" stroke="#00A699" stroke-width="2" stroke-linecap="round" stroke-linejoin="round"/>
<path d="M44 34V38.7143C44 40.3814 43.3593 41.9802 42.2189 43.159C41.0784 44.3378 39.5316 45 37.9188 45H27" stroke="#00A699" stroke-width="2" stroke-linecap="round" stroke-linejoin="round"/>
</svg>
