<svg width="50" height="50" viewBox="0 0 50 50" fill="none" xmlns="http://www.w3.org/2000/svg">
<path d="M25 42C25 42 6 31.1818 6 18.0455C6.00039 15.7237 6.79164 13.4737 8.23924 11.678C9.68683 9.88238 11.7014 8.65189 13.9405 8.19579C16.1795 7.73968 18.5048 8.08611 20.521 9.17617C22.5373 10.2662 24.12 12.0326 25 14.1751L25 14.1751C25.88 12.0326 27.4627 10.2662 29.4789 9.17618C31.4952 8.08611 33.8205 7.73968 36.0595 8.19579C38.2986 8.65189 40.3132 9.88237 41.7608 11.678C43.2084 13.4737 43.9996 15.7237 44 18.0455C44 31.1818 25 42 25 42Z" stroke="#00A699" stroke-width="2" stroke-linecap="round" stroke-linejoin="round"/>
</svg>
