<svg width="50" height="50" viewBox="0 0 50 50" fill="none" xmlns="http://www.w3.org/2000/svg">
<path d="M25 43.75C35.3553 43.75 43.75 35.3553 43.75 25C43.75 14.6447 35.3553 6.25 25 6.25C14.6447 6.25 6.25 14.6447 6.25 25C6.25 35.3553 14.6447 43.75 25 43.75Z" stroke="#00A699" stroke-width="2" stroke-linecap="round" stroke-linejoin="round"/>
<path d="M20.3125 28.125V18.75L29.6875 14.0625V28.125" stroke="#00A699" stroke-width="2" stroke-linecap="round" stroke-linejoin="round"/>
<path d="M32.8125 42.0508V29.6875C32.8125 29.2731 32.6479 28.8757 32.3549 28.5826C32.0618 28.2896 31.6644 28.125 31.25 28.125H18.75C18.3356 28.125 17.9382 28.2896 17.6451 28.5826C17.3521 28.8757 17.1875 29.2731 17.1875 29.6875V42.0508" stroke="#00A699" stroke-width="2" stroke-linecap="round" stroke-linejoin="round"/>
</svg>
