<svg width="50" height="50" viewBox="0 0 50 50" fill="none" xmlns="http://www.w3.org/2000/svg">
<path d="M29.6352 40.4535V31.1815C29.6352 30.7717 29.4724 30.3786 29.1826 30.0888C28.8928 29.799 28.4997 29.6362 28.0898 29.6362H21.908C21.4981 29.6362 21.105 29.799 20.8152 30.0888C20.5253 30.3786 20.3625 30.7717 20.3625 31.1815V40.4535C20.3625 40.8633 20.1997 41.2563 19.9099 41.5461C19.6201 41.8359 19.2271 41.9987 18.8172 41.9988L9.54565 42C9.34268 42 9.14169 41.9601 8.95417 41.8824C8.76664 41.8048 8.59625 41.691 8.45272 41.5475C8.30919 41.404 8.19534 41.2336 8.11766 41.0461C8.03998 40.8586 8 40.6576 8 40.4547V22.5949C8 22.3796 8.04499 22.1667 8.13209 21.9698C8.21918 21.7729 8.34647 21.5964 8.50577 21.4515L23.9593 7.40196C24.2437 7.14333 24.6144 7.00001 24.9989 7C25.3834 6.99999 25.7541 7.14328 26.0385 7.40189L41.4942 21.4515C41.6535 21.5964 41.7808 21.7729 41.8679 21.9698C41.955 22.1667 42 22.3796 42 22.5949V40.4547C42 40.6577 41.96 40.8586 41.8823 41.0461C41.8047 41.2336 41.6908 41.404 41.5473 41.5475C41.4037 41.691 41.2334 41.8048 41.0458 41.8824C40.8583 41.9601 40.6573 42 40.4543 42L31.1805 41.9988C30.7706 41.9987 30.3776 41.8359 30.0878 41.5461C29.798 41.2563 29.6352 40.8633 29.6352 40.4535V40.4535Z" stroke="#00A699" stroke-width="2" stroke-linecap="round" stroke-linejoin="round"/>
</svg>
