<svg width="50" height="50" viewBox="0 0 50 50" fill="none" xmlns="http://www.w3.org/2000/svg">
<path d="M29.6875 21.875H37.5" stroke="#00A699" stroke-width="2" stroke-linecap="round" stroke-linejoin="round"/>
<path d="M29.6875 28.125H37.5" stroke="#00A699" stroke-width="2" stroke-linecap="round" stroke-linejoin="round"/>
<path d="M17.9883 28.125C20.5771 28.125 22.6758 26.0263 22.6758 23.4375C22.6758 20.8487 20.5771 18.75 17.9883 18.75C15.3995 18.75 13.3008 20.8487 13.3008 23.4375C13.3008 26.0263 15.3995 28.125 17.9883 28.125Z" stroke="#00A699" stroke-width="2" stroke-linecap="round" stroke-linejoin="round"/>
<path d="M11.9336 32.8125C12.2778 31.4681 13.0597 30.2766 14.156 29.4256C15.2522 28.5747 16.6005 28.1128 17.9883 28.1128C19.3761 28.1128 20.7244 28.5747 21.8206 29.4256C22.9169 30.2766 23.6988 31.4681 24.043 32.8125" stroke="#00A699" stroke-width="2" stroke-linecap="round" stroke-linejoin="round"/>
<path d="M42.1875 9.375H7.8125C6.94956 9.375 6.25 10.0746 6.25 10.9375V39.0625C6.25 39.9254 6.94956 40.625 7.8125 40.625H42.1875C43.0504 40.625 43.75 39.9254 43.75 39.0625V10.9375C43.75 10.0746 43.0504 9.375 42.1875 9.375Z" stroke="#00A699" stroke-width="2" stroke-linecap="round" stroke-linejoin="round"/>
</svg>
