<svg width="50" height="50" viewBox="0 0 50 50" fill="none" xmlns="http://www.w3.org/2000/svg">
<path d="M42.4167 9H7.58333C6.70888 9 6 9.71634 6 10.6V39.4C6 40.2837 6.70888 41 7.58333 41H42.4167C43.2911 41 44 40.2837 44 39.4V10.6C44 9.71634 43.2911 9 42.4167 9Z" stroke="#00A699" stroke-width="2" stroke-linecap="round" stroke-linejoin="round"/>
<path d="M6 32.7388L15.9637 22.4776C16.1108 22.3262 16.2853 22.2061 16.4774 22.1241C16.6695 22.0422 16.8754 22 17.0833 22C17.2912 22 17.4971 22.0422 17.6892 22.1241C17.8813 22.2061 18.0559 22.3262 18.2029 22.4776L27.0471 31.5858C27.1941 31.7372 27.3686 31.8573 27.5607 31.9393C27.7528 32.0212 27.9587 32.0634 28.1667 32.0634C28.3746 32.0634 28.5805 32.0212 28.7726 31.9393C28.9647 31.8573 29.1392 31.7372 29.2862 31.5858L33.3804 27.3694C33.5274 27.218 33.702 27.0979 33.8941 27.0159C34.0862 26.934 34.2921 26.8918 34.5 26.8918C34.7079 26.8918 34.9138 26.934 35.1059 27.0159C35.298 27.0979 35.4726 27.218 35.6196 27.3694L44 36" stroke="#00A699" stroke-width="2" stroke-linecap="round" stroke-linejoin="round"/>
<path d="M30.5 22C31.8807 22 33 20.8807 33 19.5C33 18.1193 31.8807 17 30.5 17C29.1193 17 28 18.1193 28 19.5C28 20.8807 29.1193 22 30.5 22Z" fill="#00A699"/>
</svg>
