<svg width="50" height="50" viewBox="0 0 50 50" fill="none" xmlns="http://www.w3.org/2000/svg">
<path d="M18.2031 23.9844C17.5258 22.3227 17.1808 20.5444 17.1875 18.75C17.1875 15.9687 18.0123 13.2499 19.5575 10.9373C21.1027 8.62473 23.2989 6.82231 25.8685 5.75795C28.4381 4.69359 31.2656 4.41511 33.9935 4.95771C36.7213 5.50032 39.227 6.83964 41.1937 8.80632C43.1604 10.773 44.4997 13.2787 45.0423 16.0066C45.5849 18.7344 45.3064 21.5619 44.2421 24.1315C43.1777 26.7011 41.3753 28.8973 39.0627 30.4425C36.7501 31.9878 34.0313 32.8125 31.25 32.8125C29.4556 32.8193 27.6773 32.4742 26.0156 31.7969V31.7969L23.4375 34.375H18.75V39.0625H14.0625V43.75H6.25V35.9375L18.2031 23.9844Z" stroke="#00A699" stroke-width="2" stroke-linecap="round" stroke-linejoin="round"/>
<path d="M35.1562 17.1875C36.4507 17.1875 37.5 16.1382 37.5 14.8438C37.5 13.5493 36.4507 12.5 35.1562 12.5C33.8618 12.5 32.8125 13.5493 32.8125 14.8438C32.8125 16.1382 33.8618 17.1875 35.1562 17.1875Z" fill="#00A699"/>
</svg>
