<svg width="50" height="50" viewBox="0 0 50 50" fill="none" xmlns="http://www.w3.org/2000/svg">
<path d="M25 43.75C35.3553 43.75 43.75 35.3553 43.75 25C43.75 14.6447 35.3553 6.25 25 6.25C14.6447 6.25 6.25 14.6447 6.25 25C6.25 35.3553 14.6447 43.75 25 43.75Z" stroke="#00A699" stroke-width="2" stroke-linecap="round" stroke-linejoin="round"/>
<path d="M27.6172 25.898C28.6843 25.3164 29.5273 24.3958 30.013 23.2817C30.4988 22.1677 30.5995 20.9235 30.2994 19.7458C29.9993 18.568 29.3154 17.5238 28.3558 16.7781C27.3961 16.0323 26.2154 15.6274 25 15.6274C23.7846 15.6274 22.6039 16.0323 21.6442 16.7781C20.6846 17.5238 20.0007 18.568 19.7006 19.7458C19.4005 20.9235 19.5012 22.1677 19.987 23.2817C20.4727 24.3958 21.3157 25.3164 22.3828 25.898L19.6875 32.1871C19.5839 32.4244 19.541 32.6837 19.5624 32.9417C19.5839 33.1997 19.6692 33.4484 19.8106 33.6653C19.9519 33.8822 20.145 34.0606 20.3724 34.1844C20.5998 34.3082 20.8544 34.3735 21.1133 34.3746H28.8867C29.1456 34.3735 29.4002 34.3082 29.6276 34.1844C29.855 34.0606 30.0481 33.8822 30.1895 33.6653C30.3308 33.4484 30.4161 33.1997 30.4376 32.9417C30.459 32.6837 30.4161 32.4244 30.3125 32.1871L27.6172 25.898Z" stroke="#00A699" stroke-width="2" stroke-linecap="round" stroke-linejoin="round"/>
</svg>
