<svg width="50" height="50" viewBox="0 0 50 50" fill="none" xmlns="http://www.w3.org/2000/svg">
<path d="M13.5351 7.8125H36.4648C36.7705 7.8124 37.0698 7.90089 37.3263 8.06727C37.5828 8.23365 37.7856 8.47079 37.9101 8.75L45.9375 27.5C46.041 27.7373 46.084 27.9966 46.0625 28.2546C46.041 28.5127 45.9558 28.7613 45.8144 28.9782C45.673 29.1951 45.48 29.3735 45.2526 29.4973C45.0252 29.6211 44.7706 29.6865 44.5117 29.6875H5.48824C5.22933 29.6865 4.97473 29.6211 4.74734 29.4973C4.51995 29.3735 4.32688 29.1951 4.18551 28.9782C4.04413 28.7613 3.95887 28.5127 3.93739 28.2546C3.91591 27.9966 3.95889 27.7373 4.06246 27.5L12.0898 8.75C12.2144 8.47079 12.4172 8.23365 12.6737 8.06727C12.9302 7.90089 13.2294 7.8124 13.5351 7.8125V7.8125Z" stroke="#00A699" stroke-width="2" stroke-linecap="round" stroke-linejoin="round"/>
<path d="M25 29.6875V42.1875" stroke="#00A699" stroke-width="2" stroke-linecap="round" stroke-linejoin="round"/>
<path d="M18.75 42.1875H31.25" stroke="#00A699" stroke-width="2" stroke-linecap="round" stroke-linejoin="round"/>
<path d="M39.0625 29.6875V37.5" stroke="#00A699" stroke-width="2" stroke-linecap="round" stroke-linejoin="round"/>
</svg>
