<svg width="50" height="50" viewBox="0 0 50 50" fill="none" xmlns="http://www.w3.org/2000/svg">
<path d="M7.8125 34.375V14.0625C7.8125 13.2337 8.14174 12.4388 8.72779 11.8528C9.31384 11.2667 10.1087 10.9375 10.9375 10.9375H39.0625C39.8913 10.9375 40.6862 11.2667 41.2722 11.8528C41.8583 12.4388 42.1875 13.2337 42.1875 14.0625V34.375" stroke="#00A699" stroke-width="2" stroke-linecap="round" stroke-linejoin="round"/>
<path d="M4.6875 34.375H45.3125V37.5C45.3125 38.3288 44.9833 39.1237 44.3972 39.7097C43.8112 40.2958 43.0163 40.625 42.1875 40.625H7.8125C6.9837 40.625 6.18884 40.2958 5.60279 39.7097C5.01674 39.1237 4.6875 38.3288 4.6875 37.5V34.375Z" stroke="#00A699" stroke-width="2" stroke-linecap="round" stroke-linejoin="round"/>
<path d="M28.125 17.1875H21.875" stroke="#00A699" stroke-width="2" stroke-linecap="round" stroke-linejoin="round"/>
</svg>
