<svg width="50" height="50" viewBox="0 0 50 50" fill="none" xmlns="http://www.w3.org/2000/svg">
<path d="M17 46H33" stroke="#00A699" stroke-width="2" stroke-linecap="round" stroke-linejoin="round"/>
<path d="M15.1407 32.4398C13.2382 30.9623 11.6973 29.0753 10.6337 26.9205C9.57018 24.7657 9.01169 22.3992 9.00024 19.9989C8.95232 11.3758 15.944 4.20752 24.6142 4.00461C27.9739 3.92417 31.2738 4.89764 34.0458 6.78693C36.8179 8.67621 38.9212 11.3854 40.0576 14.5302C41.1939 17.675 41.3056 21.0957 40.3767 24.3071C39.4478 27.5185 37.5255 30.3576 34.8825 32.4216C34.3004 32.8701 33.8284 33.4443 33.5023 34.1008C33.1762 34.7573 33.0044 35.4789 33 36.2111L33 37.4091C33 37.831 32.8314 38.2357 32.5314 38.534C32.2313 38.8324 31.8244 39 31.4 39H18.6C18.1756 39 17.7687 38.8324 17.4686 38.534C17.1685 38.2357 17 37.8311 17 37.4091L16.9999 36.2098C16.9981 35.4823 16.8298 34.7647 16.5077 34.1116C16.1855 33.4584 15.7181 32.8867 15.1407 32.4398V32.4398Z" stroke="#00A699" stroke-width="2" stroke-linecap="round" stroke-linejoin="round"/>
<path d="M27 11C28.7471 11.3398 30.359 12.292 31.6129 13.725C32.8668 15.1581 33.7009 17.0012 34 19" stroke="#00A699" stroke-width="2" stroke-linecap="round" stroke-linejoin="round"/>
</svg>
