<svg width="50" height="50" viewBox="0 0 50 50" fill="none" xmlns="http://www.w3.org/2000/svg">
<path d="M41.4062 7.03125H8.59375C7.73081 7.03125 7.03125 7.73081 7.03125 8.59375V41.4062C7.03125 42.2692 7.73081 42.9688 8.59375 42.9688H41.4062C42.2692 42.9688 42.9688 42.2692 42.9688 41.4062V8.59375C42.9688 7.73081 42.2692 7.03125 41.4062 7.03125Z" stroke="#00A699" stroke-width="2" stroke-linecap="round" stroke-linejoin="round"/>
<path d="M23.4375 21.875V34.375" stroke="#00A699" stroke-width="2" stroke-linecap="round" stroke-linejoin="round"/>
<path d="M17.1875 21.875V34.375" stroke="#00A699" stroke-width="2" stroke-linecap="round" stroke-linejoin="round"/>
<path d="M23.4375 27.3438C23.4375 25.8933 24.0137 24.5023 25.0393 23.4768C26.0648 22.4512 27.4558 21.875 28.9062 21.875C30.3567 21.875 31.7477 22.4512 32.7732 23.4768C33.7988 24.5023 34.375 25.8933 34.375 27.3438V34.375" stroke="#00A699" stroke-width="2" stroke-linecap="round" stroke-linejoin="round"/>
<path d="M17.1875 17.9688C18.4819 17.9688 19.5312 16.9194 19.5312 15.625C19.5312 14.3306 18.4819 13.2812 17.1875 13.2812C15.8931 13.2812 14.8438 14.3306 14.8438 15.625C14.8438 16.9194 15.8931 17.9688 17.1875 17.9688Z" fill="#00A699"/>
</svg>
