<svg width="50" height="50" viewBox="0 0 50 50" fill="none" xmlns="http://www.w3.org/2000/svg">
<path d="M23.7231 13.4671L27.7438 9.55154C28.5733 8.74289 29.5584 8.10134 30.6426 7.66354C31.7268 7.22574 32.889 7.00027 34.0627 7C35.2365 6.99973 36.3988 7.22468 37.4832 7.66199C38.5676 8.0993 39.553 8.74041 40.3829 9.54868C41.2129 10.3569 41.8712 11.3165 42.3202 12.3727C42.7693 13.4288 43.0003 14.5607 43 15.7038C42.9997 16.8468 42.7682 17.9786 42.3187 19.0345C41.8691 20.0904 41.2103 21.0497 40.38 21.8576L34.6363 27.4513C33.8065 28.2594 32.8215 28.9003 31.7375 29.3376C30.6534 29.7749 29.4915 30 28.3181 30C27.1447 30 25.9828 29.7749 24.8988 29.3376C23.8147 28.9003 22.8297 28.2594 22 27.4513" stroke="#00A699" stroke-width="2" stroke-linecap="round" stroke-linejoin="round"/>
<path d="M26.2769 36.5329L22.2562 40.4485C21.4267 41.2571 20.4416 41.8987 19.3574 42.3365C18.2732 42.7743 17.111 42.9997 15.9373 43C14.7635 43.0003 13.6012 42.7753 12.5168 42.338C11.4324 41.9007 10.447 41.2596 9.61705 40.4513C8.7871 39.6431 8.12879 38.6835 7.67975 37.6273C7.23071 36.5712 6.99973 35.4393 7 34.2962C7.00027 33.1532 7.2318 32.0214 7.68134 30.9655C8.13089 29.9096 8.78965 28.9503 9.62 28.1424L15.3637 22.5487C16.1935 21.7406 17.1785 21.0997 18.2625 20.6624C19.3466 20.2251 20.5085 20 21.6819 20C22.8553 20 24.0172 20.2251 25.1012 20.6624C26.1853 21.0997 27.1703 21.7406 28 22.5487" stroke="#00A699" stroke-width="2" stroke-linecap="round" stroke-linejoin="round"/>
</svg>
