<svg width="50" height="50" viewBox="0 0 50 50" fill="none" xmlns="http://www.w3.org/2000/svg">
<path d="M25 27C28.866 27 32 23.866 32 20C32 16.134 28.866 13 25 13C21.134 13 18 16.134 18 20C18 23.866 21.134 27 25 27Z" stroke="#00A699" stroke-width="2" stroke-linecap="round" stroke-linejoin="round"/>
<path d="M42 19.9231C42 35.1538 25 47 25 47C25 47 8 35.1538 8 19.9231C8 15.4348 9.79107 11.1303 12.9792 7.95665C16.1673 4.78296 20.4913 3 25 3C29.5087 3 33.8327 4.78296 37.0208 7.95665C40.2089 11.1303 42 15.4348 42 19.9231V19.9231Z" stroke="#00A699" stroke-width="2" stroke-linecap="round" stroke-linejoin="round"/>
</svg>
