<svg width="50" height="50" viewBox="0 0 50 50" fill="none" xmlns="http://www.w3.org/2000/svg">
<path d="M20.625 15.625V39.7852C20.6274 40.0448 20.5642 40.3009 20.4413 40.5296C20.3184 40.7584 20.1397 40.9524 19.9219 41.0937L17.7734 42.5195C17.5653 42.6585 17.3268 42.7454 17.0781 42.773C16.8294 42.8006 16.5776 42.7681 16.3441 42.6781C16.1106 42.5881 15.9021 42.4434 15.7362 42.256C15.5702 42.0687 15.4517 41.8442 15.3906 41.6016L12.8125 31.25" stroke="#00A699" stroke-width="2" stroke-linecap="round" stroke-linejoin="round"/>
<path d="M12.8125 31.2503C10.7405 31.2503 8.75336 30.4272 7.28823 28.9621C5.8231 27.497 5 25.5098 5 23.4378C5 21.3658 5.8231 19.3787 7.28823 17.9135C8.75336 16.4484 10.7405 15.6253 12.8125 15.6253H20.625C20.625 15.6253 31.2695 15.6253 41.5039 7.0511C41.7315 6.86272 42.0079 6.74276 42.301 6.70512C42.594 6.66747 42.8918 6.7137 43.1596 6.83842C43.4275 6.96315 43.6545 7.16126 43.8143 7.40978C43.9741 7.6583 44.0602 7.94704 44.0625 8.2425V38.6331C44.0602 38.9286 43.9741 39.2173 43.8143 39.4658C43.6545 39.7144 43.4275 39.9125 43.1596 40.0372C42.8918 40.1619 42.594 40.2082 42.301 40.1705C42.0079 40.1329 41.7315 40.0129 41.5039 39.8245C31.2695 31.2503 20.625 31.2503 20.625 31.2503H12.8125Z" stroke="#00A699" stroke-width="2" stroke-linecap="round" stroke-linejoin="round"/>
</svg>
