<svg width="50" height="50" viewBox="0 0 50 50" fill="none" xmlns="http://www.w3.org/2000/svg">
<path d="M8.65889 34.6936C6.29728 30.7125 5.47022 26.0062 6.33302 21.4585C7.19582 16.9107 9.68913 12.8344 13.3447 9.99487C17.0004 7.15536 21.5668 5.74802 26.1867 6.03711C30.8065 6.32621 35.1619 8.29186 38.435 11.565C41.7081 14.838 43.6738 19.1934 43.9629 23.8133C44.252 28.4331 42.8447 32.9995 40.0052 36.6552C37.1657 40.3108 33.0894 42.8041 28.5416 43.667C23.9939 44.5298 19.2876 43.7027 15.3065 41.3412L15.3065 41.341L8.74153 43.2167C8.46992 43.2943 8.18249 43.2978 7.90904 43.227C7.63559 43.1561 7.38606 43.0134 7.18631 42.8137C6.98657 42.6139 6.84387 42.3644 6.77301 42.0909C6.70216 41.8175 6.70572 41.5301 6.78332 41.2585L8.65903 34.6935L8.65889 34.6936Z" stroke="#00A699" stroke-width="2" stroke-linecap="round" stroke-linejoin="round"/>
</svg>
