<svg width="50" height="50" viewBox="0 0 50 50" fill="none" xmlns="http://www.w3.org/2000/svg">
<path d="M8.87281 34.5699C6.54325 30.6428 5.72741 26.0004 6.57851 21.5143C7.4296 17.0283 9.88907 13.0073 13.4951 10.2063C17.1011 7.40531 21.6056 6.01706 26.1627 6.30224C30.7199 6.58741 35.0162 8.52638 38.2449 11.7551C41.4735 14.9837 43.4125 19.28 43.6977 23.8372C43.9829 28.3943 42.5947 32.8988 39.7937 36.5048C36.9928 40.1109 32.9718 42.5703 28.4857 43.4215C23.9997 44.2726 19.3573 43.4568 15.4302 41.1272L15.4302 41.127L8.95433 42.9773C8.6864 43.0538 8.40288 43.0573 8.13314 42.9874C7.86339 42.9175 7.61725 42.7768 7.42022 42.5798C7.22318 42.3827 7.08242 42.1366 7.01252 41.8668C6.94263 41.5971 6.94614 41.3136 7.02269 41.0456L8.87295 34.5697L8.87281 34.5699Z" stroke="#00A699" stroke-width="2" stroke-linecap="round" stroke-linejoin="round"/>
<path d="M15.625 28.125L21.875 21.875L28.125 28.125L34.375 21.875" stroke="#00A699" stroke-width="2" stroke-linecap="round" stroke-linejoin="round"/>
</svg>
