<svg width="50" height="50" viewBox="0 0 50 50" fill="none" xmlns="http://www.w3.org/2000/svg">
<path d="M25 4H25C27.1217 4 29.1566 4.84871 30.6569 6.35942C32.1571 7.87013 33 9.91909 33 12.0556V24.9444C33 27.0809 32.1571 29.1299 30.6569 30.6406C29.1566 32.1513 27.1217 33 25 33H25C23.9494 33 22.9091 32.7916 21.9385 32.3868C20.9679 31.982 20.086 31.3886 19.3431 30.6406C18.6003 29.8926 18.011 29.0045 17.609 28.0272C17.2069 27.0498 17 26.0023 17 24.9445V12.0555C17 9.91908 17.8429 7.87012 19.3431 6.35941C20.8434 4.84871 22.8783 4 25 4V4Z" stroke="#00A699" stroke-width="2" stroke-linecap="round" stroke-linejoin="round"/>
<path d="M25 40V46" stroke="#00A699" stroke-width="2" stroke-linecap="round" stroke-linejoin="round"/>
<path d="M39 27C38.6147 30.5753 36.9738 33.8777 34.3911 36.2759C31.8084 38.6741 28.4649 40 25 40C21.535 40 18.1916 38.6741 15.6089 36.2759C13.0262 33.8776 11.3853 30.5752 11 27" stroke="#00A699" stroke-width="2" stroke-linecap="round" stroke-linejoin="round"/>
</svg>
