<svg width="50" height="50" viewBox="0 0 50 50" fill="none" xmlns="http://www.w3.org/2000/svg">
<path d="M35 36.1978C32.9544 38.0102 30.4349 39.2365 27.7196 39.7412C25.0043 40.2459 22.1988 40.0095 19.6126 39.058C17.0264 38.1065 14.7601 36.477 13.0639 34.3492C11.3676 32.2214 10.3073 29.6781 10 27" stroke="#00A699" stroke-width="2" stroke-linecap="round" stroke-linejoin="round"/>
<path d="M30 31.648C28.4609 33.1642 26.4528 34.0032 24.3704 34H24.3704C22.1504 34 20.0214 33.0467 18.4516 31.3499C16.8819 29.6531 16 27.3518 16 24.9521V15" stroke="#00A699" stroke-width="2" stroke-linecap="round" stroke-linejoin="round"/>
<path d="M25 40V47" stroke="#00A699" stroke-width="2" stroke-linecap="round" stroke-linejoin="round"/>
<path d="M8 6L42 44" stroke="#00A699" stroke-width="2" stroke-linecap="round" stroke-linejoin="round"/>
<path d="M17 6.96968C17.8225 5.75556 18.9726 4.75338 20.3407 4.05852C21.7088 3.36367 23.2494 2.99926 24.8159 3H24.8159C26.022 3 27.2162 3.21634 28.3305 3.63668C29.4448 4.05701 30.4572 4.67311 31.31 5.44979C32.1629 6.22646 32.8394 7.14851 33.3009 8.16329C33.7624 9.17807 34 10.2657 34 11.3641V24" stroke="#00A699" stroke-width="2" stroke-linecap="round" stroke-linejoin="round"/>
<path d="M40 27C39.8465 28.3707 39.5102 29.7156 39 31" stroke="#00A699" stroke-width="2" stroke-linecap="round" stroke-linejoin="round"/>
</svg>
