<svg width="50" height="50" viewBox="0 0 50 50" fill="none" xmlns="http://www.w3.org/2000/svg">
<path fill-rule="evenodd" clip-rule="evenodd" d="M20.1429 19H29.8571C32.6975 19 35 21.2386 35 24C35 26.7614 32.6975 29 29.8571 29H20.1429C17.3025 29 15 26.7614 15 24C15 21.2386 17.3025 19 20.1429 19ZM32.5 24C32.5 25.3807 31.3807 26.5 30 26.5C28.6193 26.5 27.5 25.3807 27.5 24C27.5 22.6193 28.6193 21.5 30 21.5C31.3807 21.5 32.5 22.6193 32.5 24Z" fill="#00A699"/>
<path d="M38 42.7692V7.23077C38 5.44646 36.5449 4 34.75 4L15.25 4C13.4551 4 12 5.44646 12 7.23077L12 42.7692C12 44.5535 13.4551 46 15.25 46H34.75C36.5449 46 38 44.5535 38 42.7692Z" stroke="#00A699" stroke-width="2" stroke-linecap="round" stroke-linejoin="round"/>
<path d="M21.5 4H28.5V5C28.5 5.55228 28.0523 6 27.5 6H22.5C21.9477 6 21.5 5.55228 21.5 5V4Z" fill="#00A699"/>
</svg>
