<svg width="50" height="50" viewBox="0 0 50 50" fill="none" xmlns="http://www.w3.org/2000/svg">
<path d="M27.0315 32.4097L25.6431 34.6478C25.5765 34.7552 25.4822 34.8441 25.3695 34.9058C25.2568 34.9676 25.1295 35 25 35C24.8705 35 24.7432 34.9676 24.6305 34.9058C24.5178 34.8441 24.4235 34.7552 24.3569 34.6478L22.9685 32.4096C22.9018 32.3022 22.8076 32.2133 22.6949 32.1516C22.5822 32.0899 22.4549 32.0575 22.3254 32.0575H16.75C16.5511 32.0575 16.3603 31.981 16.2197 31.845C16.079 31.7089 16 31.5244 16 31.332V19.7254C16 19.533 16.079 19.3485 16.2197 19.2125C16.3603 19.0764 16.5511 19 16.75 19H33.25C33.4489 19 33.6397 19.0764 33.7803 19.2125C33.921 19.3485 34 19.533 34 19.7254V31.3321C34 31.4273 33.9806 31.5217 33.9429 31.6097C33.9052 31.6977 33.85 31.7777 33.7803 31.845C33.7107 31.9124 33.628 31.9658 33.537 32.0023C33.446 32.0387 33.3485 32.0575 33.25 32.0575L27.6746 32.0575C27.5451 32.0575 27.4178 32.0899 27.3051 32.1516C27.1924 32.2133 27.0982 32.3022 27.0315 32.4097Z" stroke="#00A699" stroke-width="2" stroke-linecap="round" stroke-linejoin="round"/>
<path d="M38 42.7692V7.23077C38 5.44646 36.5449 4 34.75 4L15.25 4C13.4551 4 12 5.44646 12 7.23077L12 42.7692C12 44.5535 13.4551 46 15.25 46H34.75C36.5449 46 38 44.5535 38 42.7692Z" stroke="#00A699" stroke-width="2" stroke-linecap="round" stroke-linejoin="round"/>
<path d="M21.5 4H28.5V5C28.5 5.55228 28.0523 6 27.5 6H22.5C21.9477 6 21.5 5.55228 21.5 5V4Z" fill="#00A699"/>
<path d="M25 27C25.5523 27 26 26.5523 26 26C26 25.4477 25.5523 25 25 25C24.4477 25 24 25.4477 24 26C24 26.5523 24.4477 27 25 27Z" fill="#00A699"/>
<path d="M29 27C29.5523 27 30 26.5523 30 26C30 25.4477 29.5523 25 29 25C28.4477 25 28 25.4477 28 26C28 26.5523 28.4477 27 29 27Z" fill="#00A699"/>
<path d="M21 27C21.5523 27 22 26.5523 22 26C22 25.4477 21.5523 25 21 25C20.4477 25 20 25.4477 20 26C20 26.5523 20.4477 27 21 27Z" fill="#00A699"/>
</svg>
