<svg width="50" height="50" viewBox="0 0 50 50" fill="none" xmlns="http://www.w3.org/2000/svg">
<path d="M24 24H25.5V33H27" stroke="#00A699" stroke-width="2" stroke-linecap="round" stroke-linejoin="round"/>
<path d="M25 21C26.1046 21 27 20.1046 27 19C27 17.8954 26.1046 17 25 17C23.8954 17 23 17.8954 23 19C23 20.1046 23.8954 21 25 21Z" fill="#00A699"/>
<path d="M38 42.7692V7.23077C38 5.44646 36.5449 4 34.75 4L15.25 4C13.4551 4 12 5.44646 12 7.23077L12 42.7692C12 44.5535 13.4551 46 15.25 46H34.75C36.5449 46 38 44.5535 38 42.7692Z" stroke="#00A699" stroke-width="2" stroke-linecap="round" stroke-linejoin="round"/>
<path d="M21.5 4H28.5V5C28.5 5.55228 28.0523 6 27.5 6H22.5C21.9477 6 21.5 5.55228 21.5 5V4Z" fill="#00A699"/>
</svg>
