<svg width="50" height="50" viewBox="0 0 50 50" fill="none" xmlns="http://www.w3.org/2000/svg">
<path d="M25 26C26.1046 26 27 25.1046 27 24C27 22.8954 26.1046 22 25 22C23.8954 22 23 22.8954 23 24C23 25.1046 23.8954 26 25 26Z" stroke="#00A699" stroke-width="2" stroke-linecap="round" stroke-linejoin="round"/>
<path d="M33 24.3077C33 30.8846 25 36 25 36C25 36 17 30.8846 17 24.3077C17 22.3696 17.8429 20.5108 19.3431 19.1404C20.8434 17.7699 22.8783 17 25 17C27.1217 17 29.1566 17.7699 30.6569 19.1404C32.1571 20.5108 33 22.3696 33 24.3077V24.3077Z" stroke="#00A699" stroke-width="2" stroke-linecap="round" stroke-linejoin="round"/>
<path d="M38 42.7692V7.23077C38 5.44646 36.5449 4 34.75 4L15.25 4C13.4551 4 12 5.44646 12 7.23077L12 42.7692C12 44.5535 13.4551 46 15.25 46H34.75C36.5449 46 38 44.5535 38 42.7692Z" stroke="#00A699" stroke-width="2" stroke-linecap="round" stroke-linejoin="round"/>
<path d="M21.5 4H28.5V5C28.5 5.55228 28.0523 6 27.5 6H22.5C21.9477 6 21.5 5.55228 21.5 5V4Z" fill="#00A699"/>
</svg>
