<svg width="50" height="50" viewBox="0 0 50 50" fill="none" xmlns="http://www.w3.org/2000/svg">
<path d="M46.3571 12H3.64286C2.73553 12 2 12.7275 2 13.625V36.375C2 37.2725 2.73553 38 3.64286 38H46.3571C47.2645 38 48 37.2725 48 36.375V13.625C48 12.7275 47.2645 12 46.3571 12Z" stroke="#00A699" stroke-width="2" stroke-linecap="round" stroke-linejoin="round"/>
<path d="M25.5 32C29.0899 32 32 29.0899 32 25.5C32 21.9101 29.0899 19 25.5 19C21.9101 19 19 21.9101 19 25.5C19 29.0899 21.9101 32 25.5 32Z" stroke="#00A699" stroke-width="2" stroke-linecap="round" stroke-linejoin="round"/>
<path d="M35 12L48 23" stroke="#00A699" stroke-width="2" stroke-linecap="round" stroke-linejoin="round"/>
<path d="M35 38L48 27" stroke="#00A699" stroke-width="2" stroke-linecap="round" stroke-linejoin="round"/>
<path d="M15 12L2 23" stroke="#00A699" stroke-width="2" stroke-linecap="round" stroke-linejoin="round"/>
<path d="M15 38L2 27" stroke="#00A699" stroke-width="2" stroke-linecap="round" stroke-linejoin="round"/>
</svg>
