<svg width="50" height="50" viewBox="0 0 50 50" fill="none" xmlns="http://www.w3.org/2000/svg">
<path d="M40.4545 18H9.54545C8.69192 18 8 18.7275 8 19.625V42.375C8 43.2725 8.69192 44 9.54545 44H40.4545C41.3081 44 42 43.2725 42 42.375V19.625C42 18.7275 41.3081 18 40.4545 18Z" stroke="#00A699" stroke-width="2" stroke-linecap="round" stroke-linejoin="round"/>
<path d="M18 18V10.5C18 8.51088 18.7375 6.60322 20.0503 5.1967C21.363 3.79018 23.1435 3 25 3C26.8565 3 28.637 3.79018 29.9497 5.1967C31.2625 6.60322 32 8.51088 32 10.5" stroke="#00A699" stroke-width="2" stroke-linecap="round" stroke-linejoin="round"/>
<path d="M25 33C26.1046 33 27 32.1046 27 31C27 29.8954 26.1046 29 25 29C23.8954 29 23 29.8954 23 31C23 32.1046 23.8954 33 25 33Z" fill="#00A699"/>
</svg>
