<svg width="50" height="50" viewBox="0 0 50 50" fill="none" xmlns="http://www.w3.org/2000/svg">
<path d="M7.8125 21.875H42.1875" stroke="#00A699" stroke-width="2" stroke-linecap="round" stroke-linejoin="round"/>
<path d="M20.0781 29.6875H10.9375C10.1087 29.6875 9.31384 29.3583 8.72779 28.7722C8.14174 28.1862 7.8125 27.3913 7.8125 26.5625V12.5C7.8125 10.8424 8.47098 9.25268 9.64308 8.08058C10.8152 6.90848 12.4049 6.25 14.0625 6.25H42.1875V26.5625C42.1875 27.3913 41.8583 28.1862 41.2722 28.7722C40.6862 29.3583 39.8913 29.6875 39.0625 29.6875H29.9219C29.6989 29.6882 29.4787 29.7365 29.276 29.8294C29.0733 29.9222 28.8928 30.0573 28.7467 30.2257C28.6005 30.394 28.4921 30.5917 28.4286 30.8055C28.3652 31.0192 28.3483 31.244 28.3789 31.4648L29.6875 40.625C29.6875 41.8682 29.1936 43.0605 28.3146 43.9396C27.4355 44.8186 26.2432 45.3125 25 45.3125C23.7568 45.3125 22.5645 44.8186 21.6854 43.9396C20.8064 43.0605 20.3125 41.8682 20.3125 40.625L21.6211 31.4648C21.6517 31.244 21.6348 31.0192 21.5714 30.8055C21.5079 30.5917 21.3995 30.394 21.2533 30.2257C21.1072 30.0573 20.9267 29.9222 20.724 29.8294C20.5213 29.7365 20.3011 29.6882 20.0781 29.6875V29.6875Z" stroke="#00A699" stroke-width="2" stroke-linecap="round" stroke-linejoin="round"/>
<path d="M35.9375 6.25V15.625" stroke="#00A699" stroke-width="2" stroke-linecap="round" stroke-linejoin="round"/>
</svg>
