<svg width="50" height="50" viewBox="0 0 50 50" fill="none" xmlns="http://www.w3.org/2000/svg">
<path d="M44.5027 29.9811C44.8467 28.4324 45.0133 26.8481 44.9992 25.26C44.9067 14.0143 35.8002 4.88776 24.7943 5.00104C20.0936 5.05125 15.5603 6.79147 11.9901 9.9163C8.41992 13.0411 6.04087 17.3509 5.27048 22.0893C4.50009 26.8277 5.38758 31.692 7.77722 35.8285C10.1669 39.9649 13.9059 43.1093 18.3383 44.7098C19.0924 44.9812 19.8993 45.0639 20.6912 44.9509C21.483 44.8379 22.2368 44.5325 22.8894 44.0604C23.5419 43.5883 24.0741 42.9631 24.4413 42.2374C24.8086 41.5118 25.0001 40.7067 25 39.8897V39.059C25 37.704 25.5267 36.4046 26.4644 35.4465C27.4021 34.4884 28.6739 33.9501 29.9999 33.9501H39.6269C40.7595 33.9509 41.8588 33.5586 42.7446 32.8375C43.6305 32.1164 44.2504 31.1093 44.5027 29.9811V29.9811Z" stroke="#00A699" stroke-width="2" stroke-linecap="round" stroke-linejoin="round"/>
<path d="M25.5 17C26.8807 17 28 15.8807 28 14.5C28 13.1193 26.8807 12 25.5 12C24.1193 12 23 13.1193 23 14.5C23 15.8807 24.1193 17 25.5 17Z" fill="#00A699"/>
<path d="M16.5 23C17.8807 23 19 21.8807 19 20.5C19 19.1193 17.8807 18 16.5 18C15.1193 18 14 19.1193 14 20.5C14 21.8807 15.1193 23 16.5 23Z" fill="#00A699"/>
<path d="M15.5 33C16.8807 33 18 31.8807 18 30.5C18 29.1193 16.8807 28 15.5 28C14.1193 28 13 29.1193 13 30.5C13 31.8807 14.1193 33 15.5 33Z" fill="#00A699"/>
<path d="M34.5 23C35.8807 23 37 21.8807 37 20.5C37 19.1193 35.8807 18 34.5 18C33.1193 18 32 19.1193 32 20.5C32 21.8807 33.1193 23 34.5 23Z" fill="#00A699"/>
</svg>
