<svg width="50" height="50" viewBox="0 0 50 50" fill="none" xmlns="http://www.w3.org/2000/svg">
<path d="M16.915 26.7876L34.8485 42.6014C35.056 42.7844 35.3074 42.9102 35.578 42.9666C35.8486 43.0229 36.1292 43.0078 36.3923 42.9228C36.6553 42.8378 36.8918 42.6858 37.0786 42.4817C37.2654 42.2775 37.3961 42.0283 37.4578 41.7583L44.9597 8.95596C45.0245 8.67235 45.0109 8.37638 44.9203 8.09995C44.8297 7.82351 44.6656 7.57709 44.4455 7.38724C44.2255 7.19739 43.9579 7.07131 43.6717 7.02258C43.3854 6.97385 43.0913 7.00433 42.821 7.11072L6.01214 21.6009C5.69134 21.7272 5.41998 21.9542 5.23865 22.2479C5.05733 22.5416 4.97579 22.8863 5.00624 23.2303C5.03669 23.5743 5.1775 23.8992 5.40759 24.1564C5.63767 24.4135 5.94467 24.5891 6.28264 24.6568L16.915 26.7876Z" stroke="#00A699" stroke-width="2" stroke-linecap="round" stroke-linejoin="round"/>
<path d="M17 27L44.5 7.5" stroke="#00A699" stroke-width="2" stroke-linecap="round" stroke-linejoin="round"/>
<path d="M25 34.1077L19.4329 40.5192C19.2336 40.7488 18.9797 40.9051 18.7032 40.9684C18.4267 41.0318 18.1402 40.9993 17.8798 40.875C17.6194 40.7508 17.3968 40.5404 17.2402 40.2705C17.0836 40.0006 17 39.6833 17 39.3586V27" stroke="#00A699" stroke-width="2" stroke-linecap="round" stroke-linejoin="round"/>
</svg>
