<svg width="50" height="50" viewBox="0 0 50 50" fill="none" xmlns="http://www.w3.org/2000/svg">
<path d="M32.5 9H38.5C38.8978 9 39.2794 9.16491 39.5607 9.45844C39.842 9.75198 40 10.1501 40 10.5652V43.4348C40 43.8499 39.842 44.248 39.5607 44.5416C39.2794 44.8351 38.8978 45 38.5 45H11.5C11.1022 45 10.7206 44.8351 10.4393 44.5416C10.158 44.248 10 43.8499 10 43.4348V10.5652C10 10.1501 10.158 9.75198 10.4393 9.45844C10.7206 9.16491 11.1022 9 11.5 9H17.5" stroke="#00A699" stroke-width="2" stroke-linecap="round" stroke-linejoin="round"/>
<path d="M17 14V12.5C17 10.5109 17.8429 8.60322 19.3431 7.1967C20.8434 5.79018 22.8783 5 25 5C27.1217 5 29.1566 5.79018 30.6569 7.1967C32.1571 8.60322 33 10.5109 33 12.5V14H17Z" stroke="#00A699" stroke-width="2" stroke-linecap="round" stroke-linejoin="round"/>
</svg>
