<svg width="50" height="50" viewBox="0 0 50 50" fill="none" xmlns="http://www.w3.org/2000/svg">
<path d="M39.0625 7.8125H32.0312C31.1683 7.8125 30.4688 8.51206 30.4688 9.375V40.625C30.4688 41.4879 31.1683 42.1875 32.0312 42.1875H39.0625C39.9254 42.1875 40.625 41.4879 40.625 40.625V9.375C40.625 8.51206 39.9254 7.8125 39.0625 7.8125Z" stroke="#00A699" stroke-width="2" stroke-linecap="round" stroke-linejoin="round"/>
<path d="M17.9688 7.8125H10.9375C10.0746 7.8125 9.375 8.51206 9.375 9.375V40.625C9.375 41.4879 10.0746 42.1875 10.9375 42.1875H17.9688C18.8317 42.1875 19.5312 41.4879 19.5312 40.625V9.375C19.5312 8.51206 18.8317 7.8125 17.9688 7.8125Z" stroke="#00A699" stroke-width="2" stroke-linecap="round" stroke-linejoin="round"/>
</svg>
