<svg width="50" height="50" viewBox="0 0 50 50" fill="none" xmlns="http://www.w3.org/2000/svg">
<path d="M41.3984 14H3.60161C2.71706 14 2 14.6964 2 15.5556V40.4444C2 41.3036 2.71706 42 3.60161 42H41.3984C42.2829 42 43 41.3036 43 40.4444V15.5556C43 14.6964 42.2829 14 41.3984 14Z" stroke="#00A699" stroke-width="2" stroke-linecap="round" stroke-linejoin="round"/>
<path d="M7 13.0444V9.55556C7 8.69645 7.70601 8 8.57692 8H46.4231C47.294 8 48 8.69645 48 9.55556V34.4444C48 35.3036 47.294 36 46.4231 36H43.6477" stroke="#00A699" stroke-width="2" stroke-linecap="round" stroke-linejoin="round"/>
<path d="M31 36H37" stroke="#00A699" stroke-width="2" stroke-linecap="round" stroke-linejoin="round"/>
<path d="M21 36H24" stroke="#00A699" stroke-width="2" stroke-linecap="round" stroke-linejoin="round"/>
<path d="M2 22H43" stroke="#00A699" stroke-width="2" stroke-linecap="round" stroke-linejoin="round"/>
</svg>
