<svg width="50" height="50" viewBox="0 0 50 50" fill="none" xmlns="http://www.w3.org/2000/svg">
<path d="M17.3972 45H6.77103C6.30132 45 5.85085 44.8134 5.51872 44.4813C5.18659 44.1491 5 43.6987 5 43.229V33.3364C5 33.1038 5.04581 32.8735 5.13481 32.6587C5.22381 32.4438 5.35427 32.2486 5.51872 32.0841L32.0841 5.51872C32.4162 5.18659 32.8667 5 33.3364 5C33.8061 5 34.2566 5.18659 34.5887 5.51872L44.4813 15.4113C44.8134 15.7434 45 16.1939 45 16.6636C45 17.1333 44.8134 17.5838 44.4813 17.9159L17.3972 45Z" stroke="#00A699" stroke-width="2" stroke-linecap="round" stroke-linejoin="round"/>
<path d="M27 11L39 23" stroke="#00A699" stroke-width="2" stroke-linecap="round" stroke-linejoin="round"/>
</svg>
