<svg width="50" height="50" viewBox="0 0 50 50" fill="none" xmlns="http://www.w3.org/2000/svg">
<path d="M22.5 31C24.433 31 26 29.433 26 27.5C26 25.567 24.433 24 22.5 24C20.567 24 19 25.567 19 27.5C19 29.433 20.567 31 22.5 31Z" stroke="#00A699" stroke-width="2" stroke-linecap="round" stroke-linejoin="round"/>
<path d="M7 43L20 30" stroke="#00A699" stroke-width="2" stroke-linecap="round" stroke-linejoin="round"/>
<path d="M7 43L32.7311 38.7115C32.9866 38.6689 33.2264 38.5598 33.4264 38.3952C33.6264 38.2306 33.7796 38.0163 33.8706 37.7737L38 26.7619L23.2381 12L12.2263 16.1294C11.9837 16.2204 11.7694 16.3736 11.6048 16.5736C11.4402 16.7736 11.3311 17.0134 11.2885 17.2689L7 43Z" stroke="#00A699" stroke-width="2" stroke-linecap="round" stroke-linejoin="round"/>
<path d="M37.9852 26L42.5904 21.3948C42.7202 21.265 42.8233 21.1108 42.8935 20.9411C42.9638 20.7714 43 20.5896 43 20.4059C43 20.2223 42.9638 20.0404 42.8935 19.8707C42.8233 19.7011 42.7202 19.5469 42.5904 19.417L30.583 7.40962C30.3207 7.14734 29.965 7 29.5941 7C29.2232 7 28.8675 7.14734 28.6052 7.40962L24 12.0148" stroke="#00A699" stroke-width="2" stroke-linecap="round" stroke-linejoin="round"/>
</svg>
