<svg width="50" height="50" viewBox="0 0 50 50" fill="none" xmlns="http://www.w3.org/2000/svg">
<path d="M16.8566 25.1352C18.5734 28.6451 21.4185 31.4773 24.9361 33.1781C25.1935 33.3 25.4782 33.3529 25.7622 33.3314C26.0462 33.3099 26.3197 33.2148 26.5558 33.0555L31.7353 29.6017C31.9643 29.449 32.2279 29.3558 32.5021 29.3306C32.7763 29.3054 33.0524 29.349 33.3055 29.4575L42.9953 33.6103C43.3245 33.7501 43.5993 33.9931 43.7784 34.3027C43.9574 34.6123 44.031 34.9717 43.9881 35.3268C43.6818 37.7233 42.5125 39.9261 40.699 41.5226C38.8856 43.1191 36.5524 43.9999 34.1364 44C26.6742 44 19.5176 41.0356 14.241 35.759C8.96436 30.4824 6 23.3258 6 15.8636C6.00013 13.4476 6.8809 11.1144 8.47741 9.30096C10.0739 7.48754 12.2767 6.31822 14.6732 6.01195C15.0283 5.96898 15.3877 6.04257 15.6973 6.22161C16.0069 6.40066 16.2499 6.67547 16.3897 7.00463L20.5461 16.703C20.6536 16.9538 20.6975 17.2274 20.6737 17.4993C20.6499 17.7711 20.5592 18.0329 20.4097 18.2613L16.9679 23.5202C16.8113 23.7568 16.7187 24.03 16.6991 24.313C16.6796 24.5961 16.7339 24.8794 16.8566 25.1352Z" stroke="#00A699" stroke-width="2" stroke-linecap="round" stroke-linejoin="round"/>
</svg>
