<svg width="50" height="50" viewBox="0 0 50 50" fill="none" xmlns="http://www.w3.org/2000/svg">
<path d="M18.0664 24.3751C19.6743 27.6955 22.3591 30.3735 25.6836 31.9728C25.9288 32.0889 26.2001 32.1392 26.4706 32.1186C26.7412 32.0981 27.0017 32.0074 27.2266 31.8556L32.1094 28.5939C32.3251 28.4476 32.5744 28.3583 32.834 28.3344C33.0935 28.3105 33.3549 28.3527 33.5938 28.4572L42.7344 32.3829C43.0468 32.513 43.3078 32.7421 43.4772 33.035C43.6466 33.3279 43.715 33.6684 43.6719 34.004C43.3822 36.2652 42.2785 38.3434 40.5673 39.8497C38.8561 41.356 36.6547 42.1871 34.375 42.1876C27.3302 42.1876 20.5739 39.3891 15.5925 34.4076C10.611 29.4262 7.8125 22.6699 7.8125 15.6251C7.81301 13.3454 8.64417 11.144 10.1504 9.43285C11.6567 7.72167 13.7349 6.61796 15.9961 6.32825C16.3317 6.28514 16.6722 6.35355 16.9651 6.52295C17.258 6.69235 17.4872 6.95335 17.6172 7.26575L21.543 16.4259C21.6451 16.661 21.6878 16.9175 21.6673 17.173C21.6469 17.4284 21.5639 17.6749 21.4258 17.8907L18.1641 22.8517C18.0188 23.0761 17.9336 23.3339 17.9165 23.6007C17.8994 23.8674 17.951 24.134 18.0664 24.3751V24.3751Z" stroke="#00A699" stroke-width="2" stroke-linecap="round" stroke-linejoin="round"/>
<path d="M32.8125 9.375H40.625V17.1875" stroke="#00A699" stroke-width="2" stroke-linecap="round" stroke-linejoin="round"/>
<path d="M31.25 18.75L40.625 9.375" stroke="#00A699" stroke-width="2" stroke-linecap="round" stroke-linejoin="round"/>
</svg>
