<svg width="50" height="50" viewBox="0 0 50 50" fill="none" xmlns="http://www.w3.org/2000/svg">
<path d="M16 34L8 42" stroke="#00A699" stroke-width="2" stroke-linecap="round" stroke-linejoin="round"/>
<path d="M8 8L41 43" stroke="#00A699" stroke-width="2" stroke-linecap="round" stroke-linejoin="round"/>
<path d="M17.7046 17.4699L17.3539 17.8223C17.3539 17.8223 11.6781 14.9705 5.61141 19.8885C5.43226 20.0335 5.28546 20.2147 5.18054 20.4203C5.07562 20.626 5.01494 20.8515 5.00243 21.0823C4.98992 21.3131 5.02586 21.5439 5.10793 21.7598C5.18999 21.9757 5.31634 22.1719 5.47877 22.3355L27.552 44.5173C27.7173 44.6838 27.9162 44.8127 28.1354 44.8953C28.3546 44.9779 28.5888 45.0123 28.8223 44.9961C29.0559 44.9799 29.2832 44.9135 29.489 44.8014C29.6948 44.6893 29.8742 44.5341 30.0152 44.3463C31.5705 42.2688 33.9298 38.2051 32.617 33.9542" stroke="#00A699" stroke-width="2" stroke-linecap="round" stroke-linejoin="round"/>
<path d="M36.0416 29L44.5202 20.4149C44.8274 20.1038 45 19.6819 45 19.2419C45 18.802 44.8274 18.3801 44.5202 18.069L32.0932 5.48584C31.786 5.17476 31.3693 5 30.9349 5C30.5004 5 30.0837 5.17476 29.7765 5.48584L22 13.3601" stroke="#00A699" stroke-width="2" stroke-linecap="round" stroke-linejoin="round"/>
</svg>
