<svg width="50" height="50" viewBox="0 0 50 50" fill="none" xmlns="http://www.w3.org/2000/svg">
<path d="M16 34L8 42" stroke="#00A699" stroke-width="2" stroke-linecap="round" stroke-linejoin="round"/>
<path d="M29.9106 5.47605L17.2568 18.142C17.2568 18.142 11.6256 15.3237 5.60661 20.1839C5.42886 20.3272 5.28322 20.5062 5.17912 20.7095C5.07503 20.9127 5.01482 21.1356 5.00241 21.3637C4.99 21.5917 5.02566 21.8198 5.10708 22.0332C5.1885 22.2466 5.31386 22.4404 5.475 22.6021L27.3747 44.523C27.5387 44.6875 27.7361 44.8149 27.9536 44.8966C28.171 44.9782 28.4034 45.0122 28.6351 44.9961C28.8668 44.9801 29.0923 44.9145 29.2965 44.8037C29.5007 44.6929 29.6787 44.5396 29.8186 44.354C31.5221 42.0875 34.1978 37.4287 31.8706 32.77L44.5244 20.104C44.8289 19.7992 45 19.3858 45 18.9547C45 18.5236 44.8289 18.1102 44.5244 17.8054L32.2069 5.47605C31.9024 5.17124 31.4894 5 31.0588 5C30.6281 5 30.2151 5.17124 29.9106 5.47605V5.47605Z" stroke="#00A699" stroke-width="2" stroke-linecap="round" stroke-linejoin="round"/>
</svg>
