<svg width="50" height="50" viewBox="0 0 50 50" fill="none" xmlns="http://www.w3.org/2000/svg">
<path d="M23.4375 17.1875L17.1875 43.75" stroke="#00A699" stroke-width="2" stroke-linecap="round" stroke-linejoin="round"/>
<path d="M12.0204 30.5768C10.6612 28.5493 9.79584 26.2316 9.49377 23.8094C9.1917 21.3872 9.4613 18.9279 10.281 16.6287C11.1006 14.3295 12.4475 12.2542 14.2137 10.5694C15.98 8.8845 18.1163 7.63685 20.4516 6.92643C22.7869 6.21601 25.2562 6.06258 27.6614 6.47844C30.0667 6.8943 32.3411 7.86788 34.3023 9.32114C36.2635 10.7744 37.857 12.6669 38.955 14.847C40.0529 17.0271 40.6249 19.434 40.625 21.875C40.625 30.5044 34.375 35.9375 28.125 35.9375C21.875 35.9375 19.9939 31.8229 19.9939 31.8229" stroke="#00A699" stroke-width="2" stroke-linecap="round" stroke-linejoin="round"/>
</svg>
