<svg width="50" height="50" viewBox="0 0 50 50" fill="none" xmlns="http://www.w3.org/2000/svg">
<path d="M5.23515 14.2562C5.02751 13.9282 4.95357 13.5331 5.02857 13.1523C5.10358 12.7714 5.3218 12.4338 5.63831 12.209C11.2863 8.171 18.0562 6 25 6C31.9438 6 38.7137 8.171 44.3617 12.209C44.6782 12.4338 44.8964 12.7714 44.9714 13.1523C45.0464 13.5331 44.9725 13.9282 44.7649 14.2562L26.2758 43.2999C26.1392 43.5144 25.9507 43.6911 25.7277 43.8135C25.5047 43.9358 25.2544 44 25 44C24.7456 44 24.4953 43.9358 24.2723 43.8135C24.0493 43.6911 23.8608 43.5144 23.7242 43.2999L5.23515 14.2562Z" stroke="#00A699" stroke-width="2" stroke-linecap="round" stroke-linejoin="round"/>
<path d="M8 18C12.7951 14.1201 18.8019 12 25 12C31.1981 12 37.2049 14.1201 42 18" stroke="#00A699" stroke-width="2" stroke-linecap="round" stroke-linejoin="round"/>
<path d="M31.7216 34C30.9539 33.7823 30.2479 33.3895 29.6599 32.8527C29.0718 32.316 28.6179 31.6502 28.3344 30.9084C28.0508 30.1665 27.9454 29.3691 28.0266 28.5797C28.1077 27.7902 28.3731 27.0305 28.8017 26.3609C29.2303 25.6914 29.8103 25.1306 30.4954 24.7232C31.1805 24.3157 31.9518 24.0729 32.7479 24.014C33.5441 23.9552 34.343 24.0819 35.0812 24.3841C35.8194 24.6863 36.4765 25.1556 37 25.7547" stroke="#00A699" stroke-width="2" stroke-linecap="round" stroke-linejoin="round"/>
<path d="M12 24.5057C12.3416 23.5728 12.9163 22.7567 13.6622 22.1453C14.4081 21.5338 15.2969 21.1503 16.2328 21.036C17.1687 20.9217 18.1162 21.0809 18.9732 21.4966C19.8302 21.9123 20.5642 22.5686 21.0961 23.3948C21.628 24.221 21.9376 25.1858 21.9915 26.1851C22.0454 27.1845 21.8417 28.1806 21.4022 29.066C20.9626 29.9514 20.3041 30.6925 19.4974 31.2095C18.6907 31.7266 17.7665 31.9999 16.8245 32C16.7118 32 16.6 31.9962 16.4891 31.9886" stroke="#00A699" stroke-width="2" stroke-linecap="round" stroke-linejoin="round"/>
</svg>
