<svg width="50" height="50" viewBox="0 0 50 50" fill="none" xmlns="http://www.w3.org/2000/svg">
<path d="M44.5602 23.6669L16.4398 6.48158C16.2029 6.33683 15.9318 6.25779 15.6543 6.25259C15.3767 6.2474 15.1028 6.31623 14.8607 6.45201C14.6186 6.58779 14.417 6.78561 14.2767 7.02514C14.1364 7.26466 14.0625 7.53723 14.0625 7.81482V42.1854C14.0625 42.463 14.1364 42.7355 14.2767 42.9751C14.417 43.2146 14.6186 43.4124 14.8607 43.5482C15.1028 43.684 15.3767 43.7528 15.6543 43.7476C15.9318 43.7424 16.2029 43.6634 16.4398 43.5186L44.5602 26.3333C44.7886 26.1938 44.9773 25.9979 45.1082 25.7644C45.2392 25.5309 45.3079 25.2678 45.3079 25.0001C45.3079 24.7324 45.2392 24.4693 45.1082 24.2358C44.9773 24.0023 44.7886 23.8064 44.5602 23.6669Z" stroke="#00A699" stroke-width="2" stroke-linecap="round" stroke-linejoin="round"/>
</svg>
