<svg width="50" height="50" viewBox="0 0 50 50" fill="none" xmlns="http://www.w3.org/2000/svg">
<path d="M15.3577 42C15.1528 42 14.95 41.9601 14.7607 41.8826C14.5714 41.8051 14.3994 41.6916 14.2545 41.5484C14.1097 41.4052 13.9948 41.2353 13.9164 41.0482C13.838 40.8612 13.7976 40.6607 13.7976 40.4582L13.7977 32.2299C12.9654 32.6195 12.047 32.7947 11.1278 32.7392C10.2086 32.6838 9.31852 32.3995 8.54035 31.9128C7.76219 31.4261 7.12122 30.7529 6.67706 29.9556C6.23291 29.1584 6 28.2631 6 27.353C6 26.4429 6.23291 25.5476 6.67706 24.7504C7.12122 23.9531 7.76219 23.2798 8.54035 22.7932C9.31852 22.3065 10.2086 22.0222 11.1278 21.9668C12.047 21.9113 12.9654 22.0865 13.7977 22.4761L13.7976 14.2478C13.7976 14.0453 13.838 13.8448 13.9164 13.6578C13.9948 13.4707 14.1097 13.3007 14.2546 13.1576C14.3994 13.0144 14.5714 12.9008 14.7607 12.8233C14.95 12.7459 15.1529 12.706 15.3578 12.706L24.4639 12.7061C24.0697 11.8836 23.8924 10.9759 23.9485 10.0675C24.0046 9.15914 24.2923 8.27952 24.7847 7.5105C25.2772 6.74148 25.9585 6.10804 26.7652 5.66911C27.5719 5.23017 28.4779 5 29.3988 5C30.3197 5 31.2256 5.23017 32.0323 5.66911C32.839 6.10804 33.5203 6.74148 34.0128 7.5105C34.5053 8.27952 34.7929 9.15914 34.849 10.0675C34.9051 10.9759 34.7278 11.8836 34.3336 12.7061L43.4398 12.706C43.8535 12.706 44.2504 12.8684 44.5429 13.1576C44.8355 13.4467 44.9999 13.8388 44.9999 14.2478L45 22.4761C44.1677 22.0865 43.2493 21.9113 42.3301 21.9667C41.4109 22.0222 40.5208 22.3065 39.7426 22.7932C38.9645 23.2798 38.3235 23.9531 37.8794 24.7504C37.4352 25.5476 37.2023 26.4429 37.2023 27.353C37.2023 28.2631 37.4352 29.1584 37.8794 29.9556C38.3235 30.7529 38.9645 31.4261 39.7426 31.9128C40.5208 32.3995 41.4109 32.6838 42.3301 32.7392C43.2493 32.7947 44.1677 32.6195 45 32.2299L44.9999 40.4582C44.9999 40.8671 44.8355 41.2593 44.5429 41.5484C44.2504 41.8376 43.8535 42 43.4398 42L15.3577 42Z" stroke="#00A699" stroke-width="2" stroke-linecap="round" stroke-linejoin="round"/>
</svg>
