<svg width="50" height="50" viewBox="0 0 50 50" fill="none" xmlns="http://www.w3.org/2000/svg">
<path d="M6.85546 18.2227L12.207 40.9766C12.2897 41.3193 12.4845 41.6246 12.7605 41.844C13.0365 42.0634 13.3779 42.1843 13.7305 42.1875H36.2695C36.6221 42.1843 36.9635 42.0634 37.2395 41.844C37.5155 41.6246 37.7103 41.3193 37.793 40.9766L43.1445 18.2227C43.2042 17.957 43.1944 17.6805 43.1159 17.4198C43.0374 17.1591 42.893 16.923 42.6966 16.7345C42.5002 16.5459 42.2585 16.4113 41.9948 16.3435C41.7311 16.2757 41.4544 16.2772 41.1914 16.3477L32.8125 18.75L25.5859 15.8594C25.4003 15.782 25.2011 15.7422 25 15.7422C24.7989 15.7422 24.5997 15.782 24.4141 15.8594L17.1875 18.75L8.80858 16.3477C8.54561 16.2772 8.2689 16.2757 8.00521 16.3435C7.74152 16.4113 7.49978 16.5459 7.30338 16.7345C7.10698 16.923 6.96256 17.1591 6.88409 17.4198C6.80562 17.6805 6.79576 17.957 6.85546 18.2227V18.2227Z" stroke="#00A699" stroke-width="2" stroke-linecap="round" stroke-linejoin="round"/>
<path d="M17.1875 18.75L20.3125 42.1875" stroke="#00A699" stroke-width="2" stroke-linecap="round" stroke-linejoin="round"/>
<path d="M32.8125 18.75L29.6875 42.1875" stroke="#00A699" stroke-width="2" stroke-linecap="round" stroke-linejoin="round"/>
<path d="M42.1875 16.4062C42.188 15.1925 41.8743 13.9994 41.2769 12.943C40.6796 11.8865 39.819 11.0026 38.7788 10.3773C37.7387 9.75206 36.5543 9.40667 35.3411 9.37476C34.1279 9.34285 32.9271 9.62551 31.8555 10.1952C31.5187 8.62703 30.6545 7.22167 29.407 6.21355C28.1594 5.20544 26.604 4.65552 25 4.65552C23.396 4.65552 21.8406 5.20544 20.593 6.21355C19.3455 7.22167 18.4813 8.62703 18.1445 10.1952C17.0729 9.62551 15.8721 9.34285 14.6589 9.37476C13.4457 9.40667 12.2613 9.75206 11.2212 10.3773C10.181 11.0026 9.3204 11.8865 8.72307 12.943C8.12575 13.9994 7.81205 15.1925 7.8125 16.4062" stroke="#00A699" stroke-width="2" stroke-linecap="round" stroke-linejoin="round"/>
</svg>
