<svg width="50" height="50" viewBox="0 0 50 50" fill="none" xmlns="http://www.w3.org/2000/svg">
<path d="M25 43.75C35.3553 43.75 43.75 35.3553 43.75 25C43.75 14.6447 35.3553 6.25 25 6.25C14.6447 6.25 6.25 14.6447 6.25 25C6.25 35.3553 14.6447 43.75 25 43.75Z" stroke="#00A699" stroke-width="2" stroke-linecap="round" stroke-linejoin="round"/>
<path d="M25 37.5C26.2944 37.5 27.3438 36.4507 27.3438 35.1562C27.3438 33.8618 26.2944 32.8125 25 32.8125C23.7056 32.8125 22.6562 33.8618 22.6562 35.1562C22.6562 36.4507 23.7056 37.5 25 37.5Z" fill="#00A699"/>
<path d="M24.9999 28.1259V26.5634C26.0816 26.5634 27.1389 26.2426 28.0382 25.6417C28.9375 25.0408 29.6385 24.1867 30.0524 23.1874C30.4663 22.1881 30.5746 21.0885 30.3636 20.0277C30.1526 18.9669 29.6317 17.9924 28.8669 17.2276C28.1021 16.4628 27.1277 15.9419 26.0668 15.7309C25.006 15.5199 23.9064 15.6282 22.9071 16.0421C21.9079 16.456 21.0538 17.157 20.4528 18.0563C19.8519 18.9557 19.5312 20.013 19.5312 21.0946" stroke="#00A699" stroke-width="2" stroke-linecap="round" stroke-linejoin="round"/>
</svg>
