<svg width="50" height="50" viewBox="0 0 50 50" fill="none" xmlns="http://www.w3.org/2000/svg">
<path d="M25 44C35.4934 44 44 35.4934 44 25C44 14.5066 35.4934 6 25 6C14.5066 6 6 14.5066 6 25C6 35.4934 14.5066 44 25 44Z" stroke="#00A699" stroke-width="2" stroke-miterlimit="10"/>
<path d="M23.125 26.5H16.75C16.5511 26.5 16.3603 26.421 16.2197 26.2803C16.079 26.1397 16 25.9489 16 25.75V19.75C16 19.5511 16.079 19.3603 16.2197 19.2197C16.3603 19.079 16.5511 19 16.75 19H22.375C22.5739 19 22.7647 19.079 22.9053 19.2197C23.046 19.3603 23.125 19.5511 23.125 19.75V28C23.125 28.9946 22.7299 29.9484 22.0267 30.6517C21.3234 31.3549 20.3696 31.75 19.375 31.75" stroke="#00A699" stroke-width="2" stroke-linecap="round" stroke-linejoin="round"/>
<path d="M34 26.5H27.625C27.4261 26.5 27.2353 26.421 27.0947 26.2803C26.954 26.1397 26.875 25.9489 26.875 25.75V19.75C26.875 19.5511 26.954 19.3603 27.0947 19.2197C27.2353 19.079 27.4261 19 27.625 19H33.25C33.4489 19 33.6397 19.079 33.7803 19.2197C33.921 19.3603 34 19.5511 34 19.75V28C34 28.9946 33.6049 29.9484 32.9017 30.6517C32.1984 31.3549 31.2446 31.75 30.25 31.75" stroke="#00A699" stroke-width="2" stroke-linecap="round" stroke-linejoin="round"/>
</svg>
