<svg width="50" height="50" viewBox="0 0 50 50" fill="none" xmlns="http://www.w3.org/2000/svg">
<path d="M28 47H22" stroke="#00A699" stroke-width="2" stroke-linecap="round" stroke-linejoin="round"/>
<path d="M24.0313 4.36342C20.1625 7.51128 7.22249 20.09 18.5373 40H31.5743C42.6539 20.1041 29.9032 7.52908 26.0749 4.37011C25.7864 4.13185 25.4262 4.00123 25.0543 4.00001C24.6824 3.99879 24.3214 4.12705 24.0313 4.36342V4.36342Z" stroke="#00A699" stroke-width="2" stroke-linecap="round" stroke-linejoin="round"/>
<path d="M13.6003 24L7.36858 31.7805C7.21292 31.9748 7.10217 32.2037 7.04484 32.4495C6.98751 32.6954 6.98512 32.9516 7.03787 33.1986L9.49536 44.7044C9.55394 44.9787 9.67869 45.2329 9.85784 45.4431C10.037 45.6534 10.2647 45.8127 10.5194 45.906C10.7741 45.9994 11.0474 46.0237 11.3137 45.9767C11.5799 45.9297 11.8303 45.813 12.0411 45.6374L18 40.6776" stroke="#00A699" stroke-width="2" stroke-linecap="round" stroke-linejoin="round"/>
<path d="M36.28 23L42.6314 31.2344C42.7871 31.4362 42.8978 31.6739 42.9552 31.9292C43.0125 32.1844 43.0149 32.4505 42.9621 32.707L40.5046 44.6546C40.4461 44.9394 40.3213 45.2034 40.1422 45.4217C39.963 45.64 39.7353 45.8055 39.4806 45.9024C39.2259 45.9993 38.9526 46.0246 38.6863 45.9758C38.4201 45.927 38.1697 45.8058 37.9589 45.6235L32 40.4732" stroke="#00A699" stroke-width="2" stroke-linecap="round" stroke-linejoin="round"/>
<path d="M25 23C26.1046 23 27 22.1046 27 21C27 19.8954 26.1046 19 25 19C23.8954 19 23 19.8954 23 21C23 22.1046 23.8954 23 25 23Z" fill="#00A699"/>
</svg>
