<svg width="50" height="50" viewBox="0 0 50 50" fill="none" xmlns="http://www.w3.org/2000/svg">
<path d="M11.7188 20.3125C14.7391 20.3125 17.1875 17.8641 17.1875 14.8438C17.1875 11.8234 14.7391 9.375 11.7188 9.375C8.69844 9.375 6.25 11.8234 6.25 14.8438C6.25 17.8641 8.69844 20.3125 11.7188 20.3125Z" stroke="#00A699" stroke-width="2" stroke-linecap="round" stroke-linejoin="round"/>
<path d="M11.7188 40.625C14.7391 40.625 17.1875 38.1766 17.1875 35.1562C17.1875 32.1359 14.7391 29.6875 11.7188 29.6875C8.69844 29.6875 6.25 32.1359 6.25 35.1562C6.25 38.1766 8.69844 40.625 11.7188 40.625Z" stroke="#00A699" stroke-width="2" stroke-linecap="round" stroke-linejoin="round"/>
<path d="M26.5625 25L16.2305 32.0703" stroke="#00A699" stroke-width="2" stroke-linecap="round" stroke-linejoin="round"/>
<path d="M45.3124 12.1682L32.0898 21.2112" stroke="#00A699" stroke-width="2" stroke-linecap="round" stroke-linejoin="round"/>
<path d="M45.3125 37.8323L16.2305 17.9299" stroke="#00A699" stroke-width="2" stroke-linecap="round" stroke-linejoin="round"/>
</svg>
