<svg width="50" height="50" viewBox="0 0 50 50" fill="none" xmlns="http://www.w3.org/2000/svg">
<path d="M25 34C29.9706 34 34 29.9706 34 25C34 20.0294 29.9706 16 25 16C20.0294 16 16 20.0294 16 25C16 29.9706 20.0294 34 25 34Z" stroke="#00A699" stroke-width="2" stroke-linecap="round" stroke-linejoin="round"/>
<path d="M38.3449 15.9178C38.7999 16.5841 39.204 17.2836 39.5539 18.0104L44.5427 20.773C45.1504 23.557 45.1524 26.4386 44.5488 29.2235L39.5572 31.9876C39.2062 32.7138 38.801 33.4127 38.345 34.0783L38.441 39.7695C36.3279 41.6864 33.8273 43.129 31.1078 44L26.2123 41.0698C25.4063 41.1297 24.597 41.129 23.7911 41.0679L18.8983 43.9965C16.1775 43.1294 13.6748 41.6904 11.5589 39.7765L11.655 34.0822C11.2001 33.4159 10.796 32.7164 10.4461 31.9896L5.45729 29.227C4.84964 26.443 4.84755 23.5614 5.45117 20.7765L10.4428 18.0124C10.7938 17.2862 11.199 16.5873 11.655 15.9217L11.559 10.2305C13.6721 8.31357 16.1727 6.87096 18.8922 6L23.7877 8.93018C24.5937 8.87032 25.403 8.87096 26.2089 8.93209L31.1017 6.00353C33.8224 6.87057 36.3252 8.30957 38.441 10.2235L38.3449 15.9178Z" stroke="#00A699" stroke-width="2" stroke-linecap="round" stroke-linejoin="round"/>
</svg>
