<svg width="50" height="50" viewBox="0 0 50 50" fill="none" xmlns="http://www.w3.org/2000/svg">
<path d="M10 28V40.5343C10 40.923 10.158 41.2958 10.4393 41.5707C10.7206 41.8456 11.1022 42 11.5 42H38.5C38.8978 42 39.2794 41.8456 39.5607 41.5707C39.842 41.2958 40 40.923 40 40.5343V28.0003" stroke="#00A699" stroke-width="2" stroke-linecap="round" stroke-linejoin="round"/>
<path d="M10.361 8H39.639C39.9831 8 40.3178 8.11124 40.5925 8.31688C40.8672 8.52252 41.0669 8.81138 41.1614 9.13972L44 19H6L8.83856 9.13972C8.93309 8.81138 9.13281 8.52252 9.4075 8.31688C9.68219 8.11124 10.0169 8 10.361 8Z" stroke="#00A699" stroke-width="2" stroke-linecap="round" stroke-linejoin="round"/>
<path d="M19 19V22C19 23.5913 18.3152 25.1174 17.0962 26.2426C15.8772 27.3679 14.2239 28 12.5 28C10.7761 28 9.12279 27.3679 7.90381 26.2426C6.68482 25.1174 6 23.5913 6 22V19" stroke="#00A699" stroke-width="2" stroke-linecap="round" stroke-linejoin="round"/>
<path d="M31 19V22C31 23.5913 30.3679 25.1174 29.2426 26.2426C28.1174 27.3679 26.5913 28 25 28C23.4087 28 21.8826 27.3679 20.7574 26.2426C19.6321 25.1174 19 23.5913 19 22V19" stroke="#00A699" stroke-width="2" stroke-linecap="round" stroke-linejoin="round"/>
<path d="M44 19V22C44 23.5913 43.3152 25.1174 42.0962 26.2426C40.8772 27.3679 39.2239 28 37.5 28C35.7761 28 34.1228 27.3679 32.9038 26.2426C31.6848 25.1174 31 23.5913 31 22V19" stroke="#00A699" stroke-width="2" stroke-linecap="round" stroke-linejoin="round"/>
</svg>
