<svg width="50" height="50" viewBox="0 0 50 50" fill="none" xmlns="http://www.w3.org/2000/svg">
<path d="M25 43C34.9411 43 43 34.9411 43 25C43 15.0589 34.9411 7 25 7C15.0589 7 7 15.0589 7 25C7 34.9411 15.0589 43 25 43Z" stroke="#00A699" stroke-width="2" stroke-miterlimit="10"/>
<path d="M17 31H33" stroke="#00A699" stroke-width="2" stroke-linecap="round" stroke-linejoin="round"/>
<path d="M18 23C19.1046 23 20 22.1046 20 21C20 19.8954 19.1046 19 18 19C16.8954 19 16 19.8954 16 21C16 22.1046 16.8954 23 18 23Z" fill="#00A699"/>
<path d="M32 23C33.1046 23 34 22.1046 34 21C34 19.8954 33.1046 19 32 19C30.8954 19 30 19.8954 30 21C30 22.1046 30.8954 23 32 23Z" fill="#00A699"/>
</svg>
