<svg width="50" height="50" viewBox="0 0 50 50" fill="none" xmlns="http://www.w3.org/2000/svg">
<path d="M42.7516 15.0586C45.3888 17.6958 46.8704 21.2727 46.8704 25.0023C46.8704 28.7319 45.3888 32.3087 42.7516 34.946" stroke="#00A699" stroke-width="2" stroke-linecap="round" stroke-linejoin="round"/>
<path d="M15.6238 17.1898V32.8148" stroke="#00A699" stroke-width="2" stroke-linecap="round" stroke-linejoin="round"/>
<path d="M37.2274 20.5829C38.3995 21.755 39.0579 23.3447 39.0579 25.0023C39.0579 26.6599 38.3995 28.2496 37.2274 29.4217" stroke="#00A699" stroke-width="2" stroke-linecap="round" stroke-linejoin="round"/>
<path d="M9.375 7.8125L40.625 42.1875" stroke="#00A699" stroke-width="2" stroke-linecap="round" stroke-linejoin="round"/>
<path d="M29.6875 30.1562V43.7523L15.625 32.8148H6.25C5.8356 32.8148 5.43817 32.6501 5.14515 32.3571C4.85212 32.0641 4.6875 31.6667 4.6875 31.2523V18.7523C4.6875 18.3379 4.85212 17.9404 5.14515 17.6474C5.43817 17.3544 5.8356 17.1898 6.25 17.1898H15.625L16.9576 16.1533" stroke="#00A699" stroke-width="2" stroke-linecap="round" stroke-linejoin="round"/>
<path d="M21.9054 12.3049L29.6874 6.25238V20.8651" stroke="#00A699" stroke-width="2" stroke-linecap="round" stroke-linejoin="round"/>
</svg>
