<svg width="50" height="50" viewBox="0 0 50 50" fill="none" xmlns="http://www.w3.org/2000/svg">
<path d="M25.8483 37.6792L35.5474 43.7504C36.7872 44.5265 38.3265 43.3723 37.9586 41.9424L35.1563 31.0512C35.0774 30.7478 35.0867 30.4286 35.1833 30.1303C35.2798 29.832 35.4596 29.5666 35.702 29.3648L44.3995 22.2125C45.5424 21.2727 44.9525 19.3988 43.4842 19.3047L32.1258 18.5764C31.8198 18.5548 31.5264 18.4478 31.2797 18.2678C31.0329 18.0878 30.843 17.8423 30.732 17.5598L26.4957 7.01988C26.3806 6.72003 26.1758 6.46188 25.9087 6.27972C25.6415 6.09756 25.3246 6 25 6C24.6754 6 24.3585 6.09756 24.0913 6.27972C23.8242 6.46188 23.6194 6.72003 23.5043 7.01988L19.268 17.5598C19.1571 17.8423 18.9671 18.0878 18.7204 18.2678C18.4736 18.4478 18.1802 18.5548 17.8742 18.5764L6.51577 19.3047C5.04749 19.3988 4.45763 21.2727 5.60046 22.2125L14.298 29.3648C14.5404 29.5666 14.7202 29.832 14.8167 30.1303C14.9133 30.4286 14.9226 30.7478 14.8437 31.0512L12.2449 41.1516C11.8034 42.8674 13.6506 44.2525 15.1383 43.3212L24.1517 37.6792C24.4052 37.5198 24.6995 37.4351 25 37.4351C25.3005 37.4351 25.5948 37.5198 25.8483 37.6792V37.6792Z" stroke="#00A699" stroke-width="2" stroke-linecap="round" stroke-linejoin="round"/>
</svg>
