<svg width="50" height="50" viewBox="0 0 50 50" fill="none" xmlns="http://www.w3.org/2000/svg">
<path d="M15 25.1262L30.7655 6.0417L44 6L43.9583 19.2345L24.8738 35" stroke="#00A699" stroke-width="2" stroke-linecap="round" stroke-linejoin="round"/>
<path d="M20 30L33 17" stroke="#00A699" stroke-width="2" stroke-linecap="round" stroke-linejoin="round"/>
<path d="M15.7208 39.2286L9.44094 45.5085C9.28513 45.6644 9.10016 45.788 8.89658 45.8723C8.693 45.9566 8.47481 46 8.25446 46C8.03411 46 7.81592 45.9566 7.61235 45.8723C7.40877 45.788 7.22379 45.6644 7.06798 45.5085L4.49146 42.932C4.33565 42.7762 4.21205 42.5912 4.12773 42.3876C4.0434 42.1841 4 41.9659 4 41.7455C4 41.5252 4.0434 41.307 4.12773 41.1034C4.21205 40.8998 4.33565 40.7149 4.49146 40.5591L10.7714 34.2792C10.9272 34.1233 11.0508 33.9384 11.1351 33.7348C11.2194 33.5312 11.2628 33.313 11.2628 33.0927C11.2628 32.8723 11.2194 32.6541 11.1351 32.4506C11.0508 32.247 10.9272 32.062 10.7714 31.9062L6.39043 27.5253C6.07575 27.2106 5.89897 26.7838 5.89897 26.3388C5.89897 25.8938 6.07575 25.467 6.39043 25.1523L9.05127 22.4915C9.36595 22.1768 9.79273 22 10.2378 22C10.6828 22 11.1096 22.1768 11.4242 22.4915L27.5085 38.5758C27.8232 38.8904 28 39.3172 28 39.7623C28 40.2073 27.8232 40.6341 27.5085 40.9487L24.8477 43.6096C24.533 43.9242 24.1062 44.101 23.6612 44.101C23.2162 44.101 22.7894 43.9242 22.4747 43.6096L18.0938 39.2286C17.7791 38.914 17.3523 38.7372 16.9073 38.7372C16.4623 38.7372 16.0355 38.914 15.7208 39.2286V39.2286Z" stroke="#00A699" stroke-width="2" stroke-linecap="round" stroke-linejoin="round"/>
</svg>
