<svg width="50" height="50" viewBox="0 0 50 50" fill="none" xmlns="http://www.w3.org/2000/svg">
<path d="M23.3807 5.02946L8.08799 8.08799L5.02946 23.3807C4.98048 23.6255 4.99272 23.8787 5.06509 24.1177C5.13745 24.3567 5.2677 24.5741 5.44428 24.7507L25.2493 44.5557C25.3901 44.6966 25.5573 44.8083 25.7414 44.8845C25.9254 44.9608 26.1227 45 26.3219 45C26.5211 45 26.7183 44.9608 26.9023 44.8845C27.0864 44.8083 27.2536 44.6966 27.3944 44.5557L44.5557 27.3944C44.6966 27.2536 44.8083 27.0864 44.8845 26.9023C44.9608 26.7183 45 26.5211 45 26.3219C45 26.1227 44.9608 25.9254 44.8845 25.7414C44.8083 25.5573 44.6966 25.3901 44.5557 25.2493L24.7507 5.44428C24.5741 5.2677 24.3567 5.13745 24.1177 5.06509C23.8787 4.99272 23.6255 4.98048 23.3807 5.02946V5.02946Z" stroke="#00A699" stroke-width="2" stroke-linecap="round" stroke-linejoin="round"/>
<path d="M16 18C17.1046 18 18 17.1046 18 16C18 14.8954 17.1046 14 16 14C14.8954 14 14 14.8954 14 16C14 17.1046 14.8954 18 16 18Z" fill="#00A699"/>
</svg>
