<svg width="50" height="50" viewBox="0 0 50 50" fill="none" xmlns="http://www.w3.org/2000/svg">
<path d="M25 25L44 6" stroke="#00A699" stroke-width="2" stroke-linecap="round" stroke-linejoin="round"/>
<path d="M38.4218 11.5517C35.0528 8.1894 30.5445 6.21403 25.7889 6.0164C21.0333 5.81877 16.3767 7.41329 12.7404 10.4845C9.10404 13.5557 6.75289 17.8799 6.15204 22.6015C5.5512 27.3232 6.74444 32.0984 9.49569 35.9824C12.2469 39.8665 16.3558 42.5764 21.0094 43.5761C25.6629 44.5758 30.5222 43.7925 34.6259 41.3811C38.7296 38.9697 41.7787 35.1059 43.1701 30.554C44.5614 26.0022 44.1937 21.0939 42.1395 16.8002" stroke="#00A699" stroke-width="2" stroke-linecap="round" stroke-linejoin="round"/>
<path d="M31.3638 18.6359C29.8758 17.148 27.9135 16.2285 25.818 16.0373C23.7224 15.846 21.6261 16.3951 19.8934 17.589C18.1607 18.783 16.9011 20.5464 16.3335 22.5726C15.766 24.5989 15.9264 26.76 16.7869 28.6803C17.6474 30.6006 19.1535 32.1586 21.0435 33.0837C22.9335 34.0087 25.0879 34.2423 27.1323 33.7438C29.1766 33.2452 30.9817 32.0461 32.2337 30.3548C33.4857 28.6635 34.1054 26.587 33.9853 24.4862" stroke="#00A699" stroke-width="2" stroke-linecap="round" stroke-linejoin="round"/>
</svg>
