<svg width="50" height="50" viewBox="0 0 50 50" fill="none" xmlns="http://www.w3.org/2000/svg">
<path d="M40.0989 18.8156L16.8184 43.6536C16.1212 44.3975 15.2934 44.9876 14.3824 45.3902C13.4714 45.7928 12.4949 46 11.5089 46C10.5228 46 9.54637 45.7928 8.63535 45.3902C7.72433 44.9876 6.89656 44.3975 6.1993 43.6536V43.6536C5.50204 42.9096 4.94894 42.0265 4.57158 41.0545C4.19422 40.0826 4 39.0408 4 37.9888C4 36.9367 4.19422 35.895 4.57158 34.923C4.94894 33.951 5.50204 33.0679 6.1993 32.324L32.7471 4L45 17.0726L40.0989 18.8156Z" stroke="#00A699" stroke-width="2" stroke-linecap="round" stroke-linejoin="round"/>
<path d="M12 26.5C12 26.5 16.0385 23.125 22.5 26.5C28.9615 29.875 33 26.5 33 26.5" stroke="#00A699" stroke-width="2" stroke-linecap="round" stroke-linejoin="round"/>
</svg>
