<svg width="50" height="50" viewBox="0 0 50 50" fill="none" xmlns="http://www.w3.org/2000/svg">
<path d="M19 11V39" stroke="#00A699" stroke-width="2" stroke-linecap="round" stroke-linejoin="round"/>
<path d="M5 32.6203C4.99993 32.262 5.12242 31.9146 5.34671 31.6371C5.57099 31.3596 5.88327 31.1691 6.23061 31.0978C7.6205 30.8107 8.86964 30.047 9.76675 28.9358C10.6639 27.8247 11.1538 26.4344 11.1538 25C11.1538 23.5656 10.6639 22.1753 9.76675 21.0642C8.86964 19.953 7.6205 19.1893 6.23061 18.9022C5.88327 18.8309 5.57099 18.6404 5.34671 18.3629C5.12242 18.0854 4.99993 17.738 5 17.3797V12.5556C5 12.143 5.16209 11.7473 5.4506 11.4556C5.73912 11.1639 6.13044 11 6.53846 11H43.4615C43.8696 11 44.2609 11.1639 44.5494 11.4556C44.8379 11.7473 45 12.143 45 12.5556V17.3797C45.0001 17.738 44.8776 18.0854 44.6533 18.3629C44.429 18.6404 44.1167 18.8309 43.7694 18.9022C42.3795 19.1893 41.1304 19.9531 40.2333 21.0642C39.3361 22.1753 38.8462 23.5656 38.8462 25C38.8462 26.4344 39.3361 27.8247 40.2333 28.9358C41.1304 30.047 42.3795 30.8107 43.7694 31.0978C44.1167 31.1691 44.429 31.3596 44.6533 31.6371C44.8776 31.9146 45.0001 32.262 45 32.6203V37.4444C45 37.857 44.8379 38.2527 44.5494 38.5444C44.2609 38.8361 43.8696 39 43.4615 39H6.53846C6.13044 39 5.73912 38.8361 5.4506 38.5444C5.16209 38.2527 5 37.857 5 37.4444V32.6203Z" stroke="#00A699" stroke-width="2" stroke-linecap="round" stroke-linejoin="round"/>
</svg>
