<svg width="50" height="50" viewBox="0 0 50 50" fill="none" xmlns="http://www.w3.org/2000/svg">
<path d="M8.59375 25H41.4062" stroke="#00A699" stroke-width="2" stroke-linecap="round" stroke-linejoin="round"/>
<path d="M8.59375 14.0625H41.4062" stroke="#00A699" stroke-width="2" stroke-linecap="round" stroke-linejoin="round"/>
<path d="M18.75 40.625L14.0625 46.875" stroke="#00A699" stroke-width="2" stroke-linecap="round" stroke-linejoin="round"/>
<path d="M31.25 40.625L35.9375 46.875" stroke="#00A699" stroke-width="2" stroke-linecap="round" stroke-linejoin="round"/>
<path d="M36.7188 6.25H13.2812C10.6924 6.25 8.59375 8.34867 8.59375 10.9375V35.9375C8.59375 38.5263 10.6924 40.625 13.2812 40.625H36.7188C39.3076 40.625 41.4062 38.5263 41.4062 35.9375V10.9375C41.4062 8.34867 39.3076 6.25 36.7188 6.25Z" stroke="#00A699" stroke-width="2" stroke-linecap="round" stroke-linejoin="round"/>
<path d="M25 14.0625V25" stroke="#00A699" stroke-width="2" stroke-linecap="round" stroke-linejoin="round"/>
<path d="M16.4062 35.9375C17.7007 35.9375 18.75 34.8882 18.75 33.5938C18.75 32.2993 17.7007 31.25 16.4062 31.25C15.1118 31.25 14.0625 32.2993 14.0625 33.5938C14.0625 34.8882 15.1118 35.9375 16.4062 35.9375Z" fill="#00A699"/>
<path d="M33.5938 35.9375C34.8882 35.9375 35.9375 34.8882 35.9375 33.5938C35.9375 32.2993 34.8882 31.25 33.5938 31.25C32.2993 31.25 31.25 32.2993 31.25 33.5938C31.25 34.8882 32.2993 35.9375 33.5938 35.9375Z" fill="#00A699"/>
</svg>
