<svg width="50" height="50" viewBox="0 0 50 50" fill="none" xmlns="http://www.w3.org/2000/svg">
<path d="M25 45.3125V17.1875" stroke="#00A699" stroke-width="2" stroke-linecap="round" stroke-linejoin="round"/>
<path d="M25 29.6875L15.625 25" stroke="#00A699" stroke-width="2" stroke-linecap="round" stroke-linejoin="round"/>
<path d="M25 25L34.375 20.3125" stroke="#00A699" stroke-width="2" stroke-linecap="round" stroke-linejoin="round"/>
<path d="M25.8789 35.3907C27.3124 36.3671 28.9335 37.0345 30.639 37.3504C32.3444 37.6663 34.097 37.6238 35.7851 37.2257C37.4732 36.8275 39.0601 36.0824 40.4446 35.0377C41.8291 33.993 42.9811 32.6715 43.8273 31.1575C44.6734 29.6434 45.1952 27.9698 45.3594 26.2431C45.5237 24.5164 45.3268 22.7745 44.7813 21.128C44.2357 19.4816 43.3535 17.9667 42.1908 16.6797C41.028 15.3927 39.6102 14.3618 38.0273 13.6525C37.6798 13.4777 37.4037 13.1878 37.2461 12.8322C36.2335 10.42 34.5312 8.36055 32.3525 6.91228C30.1739 5.46401 27.6161 4.69141 25 4.69141C22.3839 4.69141 19.8261 5.46401 17.6475 6.91228C15.4689 8.36055 13.7665 10.42 12.7539 12.8322C12.5963 13.1878 12.3202 13.4777 11.9727 13.6525C10.3899 14.3618 8.97198 15.3927 7.80922 16.6797C6.64646 17.9667 5.76427 19.4816 5.21876 21.128C4.67324 22.7745 4.47634 24.5164 4.64058 26.2431C4.80482 27.9698 5.3266 29.6434 6.17274 31.1575C7.01888 32.6715 8.17086 33.993 9.55541 35.0377C10.94 36.0824 12.5268 36.8275 14.2149 37.2257C15.9031 37.6238 17.6556 37.6663 19.3611 37.3504C21.0665 37.0345 22.6876 36.3671 24.1211 35.3907C24.3822 35.2194 24.6877 35.128 25 35.128C25.3123 35.128 25.6178 35.2194 25.8789 35.3907Z" stroke="#00A699" stroke-width="2" stroke-linecap="round" stroke-linejoin="round"/>
</svg>
