<svg width="50" height="50" viewBox="0 0 50 50" fill="none" xmlns="http://www.w3.org/2000/svg">
<path d="M38 37H15.5714L10.0917 7.27273C10.0259 6.91559 9.83509 6.59257 9.55255 6.35998C9.27001 6.1274 8.91368 6 8.54567 6H5" stroke="#00A699" stroke-width="2" stroke-linecap="round" stroke-linejoin="round"/>
<path d="M18 45C20.2091 45 22 43.2091 22 41C22 38.7909 20.2091 37 18 37C15.7909 37 14 38.7909 14 41C14 43.2091 15.7909 45 18 45Z" stroke="#00A699" stroke-width="2" stroke-linecap="round" stroke-linejoin="round"/>
<path d="M38 45C40.2091 45 42 43.2091 42 41C42 38.7909 40.2091 37 38 37C35.7909 37 34 38.7909 34 41C34 43.2091 35.7909 45 38 45Z" stroke="#00A699" stroke-width="2" stroke-linecap="round" stroke-linejoin="round"/>
<path d="M14.7706 29H38.686C39.3997 29 40.0908 28.7534 40.6387 28.3033C41.1867 27.8531 41.5568 27.2279 41.6844 26.5367L44 14H12" stroke="#00A699" stroke-width="2" stroke-linecap="round" stroke-linejoin="round"/>
</svg>
