<svg width="50" height="50" viewBox="0 0 50 50" fill="none" xmlns="http://www.w3.org/2000/svg">
<path d="M37 23H42.567C42.8727 23 43.1724 22.9224 43.4324 22.776C43.6924 22.6295 43.9026 22.42 44.0393 22.1708L47.8262 15.2692C48.0144 14.9262 48.0513 14.5306 47.9294 14.1637C47.8074 13.7967 47.5359 13.4862 47.1706 13.296L37 8" stroke="#00A699" stroke-width="2" stroke-linecap="round" stroke-linejoin="round"/>
<path d="M13 23H7.43299C7.12729 23 6.82763 22.9224 6.56759 22.776C6.30755 22.6295 6.0974 22.42 5.96069 22.1708L2.17378 15.2692C1.98561 14.9262 1.9487 14.5306 2.07063 14.1637C2.19256 13.7967 2.46408 13.4862 2.8294 13.296L13 8" stroke="#00A699" stroke-width="2" stroke-linecap="round" stroke-linejoin="round"/>
<path d="M31 8C31 9.63952 30.3679 11.2119 29.2426 12.3712C28.1174 13.5305 26.5913 14.1818 25 14.1818C23.4087 14.1818 21.8826 13.5305 20.7574 12.3712C19.6321 11.2119 19 9.63952 19 8H13V40.4545C13 40.8644 13.158 41.2575 13.4393 41.5473C13.7206 41.8372 14.1022 42 14.5 42H35.5C35.8978 42 36.2794 41.8372 36.5607 41.5473C36.842 41.2575 37 40.8644 37 40.4545V8H31Z" stroke="#00A699" stroke-width="2" stroke-linecap="round" stroke-linejoin="round"/>
</svg>
