<svg width="50" height="50" viewBox="0 0 50 50" fill="none" xmlns="http://www.w3.org/2000/svg">
<path d="M25 17.1881C25.0002 15.3931 25.6184 13.6529 26.7506 12.26C27.8829 10.8672 29.4602 9.90661 31.2173 9.53985C32.9744 9.17309 34.8043 9.42249 36.3991 10.2461C37.994 11.0697 39.2567 12.4174 39.9749 14.0624L46.875 14.0625L40.5738 20.3638C40.1635 26.7016 37.3565 32.6458 32.7228 36.9892C28.0891 41.3327 21.9761 43.7499 15.625 43.75C9.37502 43.75 7.81252 41.4063 7.81252 41.4063C7.81252 41.4063 14.0625 39.0625 17.1875 34.375C17.1875 34.375 4.68752 28.125 7.81252 10.9375C7.81252 10.9375 15.625 18.75 24.9973 20.3125L25 17.1881Z" stroke="#00A699" stroke-width="2" stroke-linecap="round" stroke-linejoin="round"/>
</svg>
