<svg width="50" height="50" viewBox="0 0 50 50" fill="none" xmlns="http://www.w3.org/2000/svg">
<path d="M40 30H48" stroke="#00A699" stroke-width="2" stroke-linecap="round" stroke-linejoin="round"/>
<path d="M19.5 34C26.4036 34 32 28.4036 32 21.5C32 14.5964 26.4036 9 19.5 9C12.5964 9 7 14.5964 7 21.5C7 28.4036 12.5964 34 19.5 34Z" stroke="#00A699" stroke-width="2" stroke-miterlimit="10"/>
<path d="M2 41.9999C4.14453 39.4947 6.8225 37.4803 9.84579 36.0982C12.8691 34.7162 16.1643 34 19.5 34C22.8357 34 26.131 34.7162 29.1543 36.0983C32.1775 37.4804 34.8555 39.4948 37 42" stroke="#00A699" stroke-width="2" stroke-linecap="round" stroke-linejoin="round"/>
<path d="M44 26V34" stroke="#00A699" stroke-width="2" stroke-linecap="round" stroke-linejoin="round"/>
</svg>
