<svg width="50" height="50" viewBox="0 0 50 50" fill="none" xmlns="http://www.w3.org/2000/svg">
<path d="M25 44C35.4934 44 44 35.4934 44 25C44 14.5066 35.4934 6 25 6C14.5066 6 6 14.5066 6 25C6 35.4934 14.5066 44 25 44Z" stroke="#00A699" stroke-width="2" stroke-linecap="round" stroke-linejoin="round"/>
<path d="M25 31C29.4183 31 33 27.4183 33 23C33 18.5817 29.4183 15 25 15C20.5817 15 17 18.5817 17 23C17 27.4183 20.5817 31 25 31Z" stroke="#00A699" stroke-width="2" stroke-linecap="round" stroke-linejoin="round"/>
<path d="M12 39C13.2202 36.5928 15.0805 34.5713 17.3749 33.1593C19.6694 31.7474 22.3084 31 25 31C27.6915 31 30.3306 31.7473 32.625 33.1593C34.9195 34.5712 36.7798 36.5927 38 38.9999" stroke="#00A699" stroke-width="2" stroke-linecap="round" stroke-linejoin="round"/>
</svg>
