<svg width="50" height="50" viewBox="0 0 50 50" fill="none" xmlns="http://www.w3.org/2000/svg">
<path d="M16.5 33C22.299 33 27 28.0751 27 22C27 15.9249 22.299 11 16.5 11C10.701 11 6 15.9249 6 22C6 28.0751 10.701 33 16.5 33Z" stroke="#00A699" stroke-width="2" stroke-miterlimit="10"/>
<path d="M26 15.241C29.5461 10.5368 33.8176 10.8844 35.271 11.1147C36.7243 11.345 38.113 11.894 39.3434 12.7246C40.5739 13.5553 41.6175 14.6484 42.404 15.9303C43.1905 17.2121 43.7017 18.653 43.903 20.1559C44.1044 21.6588 43.9913 23.1887 43.5713 24.6427C43.1514 26.0966 42.4343 27.4408 41.4684 28.5848C40.5026 29.7287 39.3103 30.6458 37.972 31.2743C35.7849 32.3015 29.5461 33.0124 26 27.7855" stroke="#00A699" stroke-width="2" stroke-linecap="round" stroke-linejoin="round"/>
<path d="M2 40C3.69189 37.8377 5.93798 36.0728 8.54865 34.8545C11.1593 33.6362 14.0579 33.0001 16.9997 33C19.9415 32.9999 22.8401 33.6358 25.4509 34.8539C28.0617 36.0721 30.3079 37.8368 32 39.999" stroke="#00A699" stroke-width="2" stroke-linecap="round" stroke-linejoin="round"/>
<path d="M48 40C46.356 37.8362 44.1719 36.0702 41.6326 34.8518C39.0934 33.6333 36.2738 32.9981 33.4125 33C30.5513 33.0019 26.556 33.7189 25 34.6774" stroke="#00A699" stroke-width="2" stroke-linecap="round" stroke-linejoin="round"/>
</svg>
