<svg width="40" height="35" viewBox="0 0 40 35" fill="none" xmlns="http://www.w3.org/2000/svg">
<path d="M39 19.8571H32.7143C31.8808 19.8571 31.0814 20.1883 30.492 20.7777C29.9026 21.3671 29.5715 22.1665 29.5715 23V30.8571C29.5715 31.6907 29.9026 32.4901 30.492 33.0795C31.0814 33.6689 31.8808 34 32.7143 34H35.8572C36.6907 34 37.4901 33.6689 38.0795 33.0795C38.6689 32.4901 39 31.6907 39 30.8571V19.8571ZM39 19.8571C39 17.3688 38.5075 14.905 37.5509 12.6078C36.5943 10.3107 35.1925 8.22555 33.4263 6.47268C31.6601 4.71981 29.5644 3.33384 27.2601 2.39466C24.9557 1.45549 22.4883 0.981677 20 1.00054C17.5117 0.981677 15.0443 1.45549 12.7399 2.39466C10.4356 3.33384 8.33994 4.71981 6.57374 6.47268C4.80754 8.22555 3.40573 10.3107 2.44912 12.6078C1.4925 14.905 1 17.3688 1 19.8571V30.8571C1 31.6907 1.33112 32.4901 1.92052 33.0795C2.50991 33.6689 3.3093 34 4.14284 34H7.28567C8.11921 34 8.9186 33.6689 9.50799 33.0795C10.0974 32.4901 10.4285 31.6907 10.4285 30.8571V23C10.4285 22.1665 10.0974 21.3671 9.50799 20.7777C8.9186 20.1883 8.11921 19.8571 7.28567 19.8571H1" stroke="#00A699" stroke-width="2" stroke-linecap="round" stroke-linejoin="round"/>
</svg>
