<svg width="50" height="50" viewBox="0 0 50 50" fill="none" xmlns="http://www.w3.org/2000/svg">
<path d="M7 13V37C7 37.7956 7.32981 38.5587 7.91688 39.1213C8.50395 39.6839 9.30019 40 10.1304 40H41.4348C41.8499 40 42.248 39.842 42.5416 39.5607C42.8351 39.2794 43 38.8978 43 38.5V17.5C43 17.1022 42.8351 16.7206 42.5416 16.4393C42.248 16.158 41.8499 16 41.4348 16H10.1304C9.30019 16 8.50395 15.6839 7.91688 15.1213C7.32981 14.5587 7 13.7956 7 13ZM7 13C7 12.2044 7.32981 11.4413 7.91688 10.8787C8.50395 10.3161 9.30019 10 10.1304 10H36.7391" stroke="#00A699" stroke-width="2" stroke-linecap="round" stroke-linejoin="round"/>
<path d="M34 30C35.1046 30 36 29.1046 36 28C36 26.8954 35.1046 26 34 26C32.8954 26 32 26.8954 32 28C32 29.1046 32.8954 30 34 30Z" fill="#00A699"/>
</svg>
