<svg width="50" height="50" viewBox="0 0 50 50" fill="none" xmlns="http://www.w3.org/2000/svg">
<path d="M25 21L25 30" stroke="#00A699" stroke-width="2" stroke-linecap="round" stroke-linejoin="round"/>
<path d="M22.3364 8.51889L5.41402 37.4317C5.14324 37.8943 5.00045 38.4193 5 38.9539C4.99955 39.4884 5.14147 40.0137 5.41148 40.4767C5.68148 40.9398 6.07005 41.3244 6.53808 41.5918C7.00612 41.8592 7.53711 42 8.07763 42H41.9224C42.4629 42 42.9939 41.8592 43.4619 41.5918C43.93 41.3244 44.3185 40.9398 44.5885 40.4767C44.8585 40.0137 45.0004 39.4884 45 38.9539C44.9996 38.4193 44.8568 37.8943 44.586 37.4317L27.6636 8.51889C27.3933 8.057 27.0048 7.67352 26.5373 7.40693C26.0698 7.14033 25.5397 7 25 7C24.4603 7 23.9302 7.14033 23.4627 7.40693C22.9951 7.67352 22.6067 8.057 22.3364 8.51889V8.51889Z" stroke="#00A699" stroke-width="2" stroke-linecap="round" stroke-linejoin="round"/>
<path d="M25 37C26.1046 37 27 36.1046 27 35C27 33.8954 26.1046 33 25 33C23.8954 33 23 33.8954 23 35C23 36.1046 23.8954 37 25 37Z" fill="#00A699"/>
</svg>
