<svg width="50" height="50" viewBox="0 0 50 50" fill="none" xmlns="http://www.w3.org/2000/svg">
<path d="M9 8L41 42" stroke="#00A699" stroke-width="2" stroke-linecap="round" stroke-linejoin="round"/>
<path d="M21 11.2785C22.3399 11.0927 23.6915 10.9997 25.0447 11.0001C32.5153 10.984 39.689 13.8599 45 19" stroke="#00A699" stroke-width="2" stroke-linecap="round" stroke-linejoin="round"/>
<path d="M5 19C7.58137 16.425 10.6393 14.3864 14 13" stroke="#00A699" stroke-width="2" stroke-linecap="round" stroke-linejoin="round"/>
<path d="M30 21C33.0189 21.8414 35.781 23.5677 38 26" stroke="#00A699" stroke-width="2" stroke-linecap="round" stroke-linejoin="round"/>
<path d="M12 26C14.4744 23.4614 17.6003 21.7248 21 21" stroke="#00A699" stroke-width="2" stroke-linecap="round" stroke-linejoin="round"/>
<path d="M18 32C19.7349 30.7753 22.0181 30.065 24.4151 30.0042C26.8121 29.9435 29.1558 30.5365 31 31.6704" stroke="#00A699" stroke-width="2" stroke-linecap="round" stroke-linejoin="round"/>
<path d="M25 41C26.1046 41 27 40.1046 27 39C27 37.8954 26.1046 37 25 37C23.8954 37 23 37.8954 23 39C23 40.1046 23.8954 41 25 41Z" fill="#00A699"/>
</svg>
