<svg width="50" height="50" viewBox="0 0 50 50" fill="none" xmlns="http://www.w3.org/2000/svg">
<path d="M18 33C19.8855 31.0745 22.3926 30 25 30C27.6074 30 30.1145 31.0745 32 33" stroke="#00A699" stroke-width="2" stroke-linecap="round" stroke-linejoin="round"/>
<path d="M45 10L35 20" stroke="#00A699" stroke-width="2" stroke-linecap="round" stroke-linejoin="round"/>
<path d="M45 20L35 10" stroke="#00A699" stroke-width="2" stroke-linecap="round" stroke-linejoin="round"/>
<path d="M4 19C9.52744 13.2174 16.9935 9.98204 24.7685 10.0001C25.848 9.99986 26.9267 10.0612 28 10.1839" stroke="#00A699" stroke-width="2" stroke-linecap="round" stroke-linejoin="round"/>
<path d="M11 26C14.6804 22.1411 19.6369 19.9855 24.7957 20.0001C25.869 19.9996 26.9405 20.0916 28 20.275" stroke="#00A699" stroke-width="2" stroke-linecap="round" stroke-linejoin="round"/>
<path d="M25.5 42C26.8807 42 28 40.8807 28 39.5C28 38.1193 26.8807 37 25.5 37C24.1193 37 23 38.1193 23 39.5C23 40.8807 24.1193 42 25.5 42Z" fill="#00A699"/>
</svg>
