<svg width="50" height="50" viewBox="0 0 50 50" fill="none" xmlns="http://www.w3.org/2000/svg">
<path d="M25 34V45" stroke="#00A699" stroke-width="2" stroke-linecap="round" stroke-linejoin="round"/>
<path d="M17 45H33" stroke="#00A699" stroke-width="2" stroke-linecap="round" stroke-linejoin="round"/>
<path d="M16.0453 5H33.9547L38.816 21.8425C39.1205 22.8945 39.0452 24.0235 38.6038 25.0235C37.4204 27.6991 35.5077 29.969 33.0948 31.5611C30.682 33.1532 27.8715 34 25 34C22.1286 34 19.318 33.1532 16.9052 31.5611C14.4924 29.969 12.5796 27.6991 11.3962 25.0235C10.9548 24.0235 10.8795 22.8946 11.184 21.8426L16.0453 5Z" stroke="#00A699" stroke-width="2" stroke-linecap="round" stroke-linejoin="round"/>
<path d="M12 20.3019C13.9281 19.2457 18.4129 17.6939 24.8284 21C31.6607 24.5209 36.3032 22.5322 38 21.5001" stroke="#00A699" stroke-width="2" stroke-linecap="round" stroke-linejoin="round"/>
</svg>
