<svg width="50" height="50" viewBox="0 0 50 50" fill="none" xmlns="http://www.w3.org/2000/svg">
<path d="M36.1311 7.23968L27.9354 15.4354L29.0403 20.9596L34.5646 22.0645L42.7602 13.8688L42.761 13.8685C43.7755 16.2631 44.0181 18.9143 43.4551 21.4533C42.8922 23.9922 41.5516 26.2925 39.6201 28.0338C37.6886 29.7752 35.2622 30.8711 32.6787 31.1689C30.0953 31.4667 27.4832 30.9516 25.2061 29.6954L25.2064 29.6949L14.2521 42.377C13.3728 43.2552 12.1808 43.7484 10.9381 43.748C9.69532 43.7477 8.50358 43.2539 7.62483 42.3751C6.74608 41.4964 6.25225 40.3046 6.25189 39.0619C6.25154 37.8191 6.74469 36.6271 7.62294 35.7479L20.3048 24.7937L20.3046 24.7938C19.0483 22.5168 18.5332 19.9047 18.831 17.3212C19.1288 14.7377 20.2247 12.3113 21.9661 10.3798C23.7075 8.44832 26.0077 7.10778 28.5466 6.54481C31.0856 5.98185 33.7369 6.22446 36.1315 7.23889L36.1311 7.23968Z" stroke="#00A699" stroke-width="2" stroke-linecap="round" stroke-linejoin="round"/>
</svg>
