<svg width="50" height="50" viewBox="0 0 50 50" fill="none" xmlns="http://www.w3.org/2000/svg">
<path d="M31.25 25L21.875 18.75V31.25L31.25 25Z" stroke="#00A699" stroke-width="2" stroke-linecap="round" stroke-linejoin="round"/>
<path d="M4.6875 24.9999C4.6875 30.8116 5.28792 34.2214 5.74435 35.9739C5.86636 36.4525 6.10066 36.8952 6.42784 37.2652C6.75503 37.6353 7.16567 37.922 7.62576 38.1017C14.1642 40.6143 25 40.5454 25 40.5454C25 40.5454 35.8357 40.6143 42.3742 38.1017C42.8343 37.922 43.2449 37.6353 43.5721 37.2653C43.8993 36.8952 44.1336 36.4526 44.2556 35.9739C44.7121 34.2214 45.3125 30.8116 45.3125 24.9999C45.3125 19.1883 44.7121 15.7785 44.2556 14.026C44.1336 13.5474 43.8993 13.1047 43.5722 12.7347C43.245 12.3646 42.8343 12.0779 42.3742 11.8982C35.8358 9.38554 25 9.45453 25 9.45453C25 9.45453 14.1643 9.38554 7.62582 11.8982C7.16573 12.0779 6.75508 12.3646 6.4279 12.7346C6.10071 13.1047 5.86641 13.5473 5.74439 14.026C5.28794 15.7785 4.6875 19.1883 4.6875 24.9999Z" stroke="#00A699" stroke-width="2" stroke-linecap="round" stroke-linejoin="round"/>
</svg>
