<svg width="213" height="95" viewBox="0 0 213 95" fill="none" xmlns="http://www.w3.org/2000/svg">
<g clip-path="url(#clip0_322_311)">
<path fill-rule="evenodd" clip-rule="evenodd" d="M137.895 21.0028V67.3838L137.89 67.3831L137.883 68.1021C137.518 80.5852 129.007 90.999 117.543 94.0882L117.544 79.6753C121.744 77.2168 124.58 72.6375 124.622 67.3845L124.561 67.3838V21.0028H137.895ZM90 21.0028C105.212 21.0028 117.544 33.352 117.544 48.5855C117.544 63.8189 105.212 76.1681 90 76.1681C74.7879 76.1681 62.4561 63.8189 62.4561 48.5855C62.4561 33.352 74.7879 21.0028 90 21.0028ZM172.456 21.0028C187.668 21.0028 200 33.352 200 48.5855C200 63.8189 187.668 76.1681 172.456 76.1681C157.244 76.1681 144.912 63.8189 144.912 48.5855C144.912 33.352 157.244 21.0028 172.456 21.0028ZM55.0877 0.623291V48.7611L55.0826 48.7604L55.0768 49.3708C54.6616 64.2411 42.4936 76.1681 27.5439 76.1681C12.3318 76.1681 0 63.8189 0 48.5855C0 33.352 12.3318 21.0028 27.5439 21.0028C32.7433 21.0028 37.6062 22.4455 41.7552 24.9529L41.7544 0.623291H55.0877ZM90 34.3493C82.1486 34.3493 75.7838 40.723 75.7838 48.5855C75.7838 56.4479 82.1486 62.8217 90 62.8217C97.8514 62.8217 104.216 56.4479 104.216 48.5855C104.216 40.723 97.8514 34.3493 90 34.3493ZM172.456 34.3493C164.605 34.3493 158.24 40.723 158.24 48.5855C158.24 56.4479 164.605 62.8217 172.456 62.8217C180.308 62.8217 186.672 56.4479 186.672 48.5855C186.672 40.723 180.308 34.3493 172.456 34.3493ZM27.5439 34.3493C19.6925 34.3493 13.3277 40.723 13.3277 48.5855C13.3277 56.4479 19.6925 62.8217 27.5439 62.8217C35.3366 62.8217 41.6648 56.5428 41.759 48.7615L41.7544 48.7611L41.7523 48.331L41.7462 47.9513C41.4149 40.3831 35.183 34.3493 27.5439 34.3493ZM131.228 0.623291C134.91 0.623291 137.895 3.61226 137.895 7.29934C137.895 10.9864 134.91 13.9754 131.228 13.9754C127.546 13.9754 124.561 10.9864 124.561 7.29934C124.561 3.61226 127.546 0.623291 131.228 0.623291Z" fill="#262626"/>
<path fill-rule="evenodd" clip-rule="evenodd" d="M206.759 75.6857C210.206 75.6857 213.001 72.8913 213.001 69.4442C213.001 65.9971 210.206 63.2026 206.759 63.2026C203.312 63.2026 200.518 65.9971 200.518 69.4442C200.518 72.8913 203.312 75.6857 206.759 75.6857ZM206.759 74.1259C209.344 74.1259 211.44 72.0301 211.44 69.4448C211.44 66.8595 209.344 64.7637 206.759 64.7637C204.174 64.7637 202.078 66.8595 202.078 69.4448C202.078 72.0301 204.174 74.1259 206.759 74.1259ZM205.785 72.0629C205.747 72.1004 205.699 72.1191 205.64 72.1191H204.902C204.849 72.1191 204.803 72.1004 204.766 72.0629C204.728 72.0255 204.709 71.98 204.709 71.9265V66.7023C204.709 66.6435 204.727 66.5953 204.762 66.5579C204.796 66.5204 204.843 66.5017 204.902 66.5017H206.98C207.639 66.5017 208.153 66.6542 208.525 66.9591C208.897 67.2641 209.083 67.6974 209.083 68.2592C209.083 68.6497 208.989 68.9774 208.802 69.2422C208.615 69.507 208.353 69.6983 208.016 69.816L209.179 71.8623C209.195 71.8944 209.203 71.9238 209.203 71.9506C209.203 71.9987 209.186 72.0388 209.151 72.0709C209.116 72.103 209.078 72.1191 209.035 72.1191H208.297C208.211 72.1191 208.144 72.099 208.096 72.0589C208.048 72.0188 208.005 71.9666 207.968 71.9024L206.94 70.0005H205.841V71.9265C205.841 71.98 205.822 72.0255 205.785 72.0629ZM205.843 69.0857H206.958C207.279 69.0857 207.52 69.0149 207.681 68.8731C207.841 68.7313 207.921 68.524 207.921 68.2512C207.921 67.9783 207.841 67.7683 207.681 67.6212C207.52 67.4741 207.279 67.4005 206.958 67.4005H205.843V69.0857Z" fill="#262626"/>
</g>
<defs>
<clipPath id="clip0_322_311">
<rect width="213.001" height="95" fill="white"/>
</clipPath>
</defs>
</svg>
