<svg xmlns="http://www.w3.org/2000/svg" xmlns:xlink="http://www.w3.org/1999/xlink" width="50" height="50" viewBox="0 0 50 50">
    <defs>
        <path id="gvq26y69ga" d="M0 0H50V50H0z"/>
    </defs>
    <g fill="none" fill-rule="evenodd">
        <g>
            <g>
                <g>
                    <g>
                        <g>
                            <g>
                                <g transform="translate(-953 -5072) translate(0 4588) translate(80 120) translate(0 112) translate(872) translate(0 252) translate(1)">
                                    <mask id="f1dedsr15b" fill="#fff">
                                        <use xlink:href="#gvq26y69ga"/>
                                    </mask>
                                    <use fill="#FFF" xlink:href="#gvq26y69ga"/>
                                    <path fill="#00A699" d="M19.717 15.314l14.969 14.969c2.641-1.006 5.786-.377 8.05 1.761 2.264 2.264 2.767 5.66 1.383 8.428l-4.78-4.906c-2.39-2.39-6.037 1.258-3.647 3.648l4.905 4.905c-2.767 1.258-6.163.755-8.427-1.509-2.264-2.138-2.767-5.409-1.761-8.05L15.44 19.59c-2.641 1.006-5.912.503-8.05-1.76-2.264-2.265-2.767-5.661-1.51-8.428l4.906 4.905c2.39 2.39 6.038-1.258 3.648-3.648L9.528 5.88c2.768-1.383 6.164-.88 8.428 1.384 2.138 2.264 2.767 5.409 1.761 8.05z" mask="url(#f1dedsr15b)"/>
                                    <path fill="#1D1D1D" d="M6.258 38.082L18.459 25.88l5.535 5.534-12.202 12.201c-3.647 3.648-9.182-1.886-5.534-5.534z" mask="url(#f1dedsr15b)"/>
                                    <path stroke="#1D1D1D" stroke-width=".5" d="M27.516 19.843L34.057 13.302 37.327 8.145 42.107 5.252 44.623 7.642 41.604 12.547 36.572 15.692 29.906 22.358z" mask="url(#f1dedsr15b)"/>
                                </g>
                            </g>
                        </g>
                    </g>
                </g>
            </g>
        </g>
    </g>
</svg>
