<svg xmlns="http://www.w3.org/2000/svg" xmlns:xlink="http://www.w3.org/1999/xlink" width="50" height="50" viewBox="0 0 50 50">
    <defs>
        <path id="wk8f2joj7a" d="M0 0H50V50H0z"/>
        <path id="fyba072ydc" d="M19 5.854L0 0v48c10.556-3.512 19-14.049 19-24.585V5.854z"/>
        <path id="xyiix1b7se" d="M20 5.854L0 0v48c11.111-3.512 20-14.049 20-24.585V5.854z"/>
    </defs>
    <g fill="none" fill-rule="evenodd">
        <g>
            <g>
                <g>
                    <g>
                        <g transform="translate(-81 -4820) translate(0 4588) translate(80 120) translate(0 112) translate(1)">
                            <mask id="0qk833lqmb" fill="#fff">
                                <use xlink:href="#wk8f2joj7a"/>
                            </mask>
                            <use fill="#FFF" xlink:href="#wk8f2joj7a"/>
                            <g mask="url(#0qk833lqmb)">
                                <g transform="translate(25 1)">
                                    <mask id="606d2deqcd" fill="#fff">
                                        <use xlink:href="#fyba072ydc"/>
                                    </mask>
                                    <use fill="#00A699" xlink:href="#fyba072ydc"/>
                                    <path stroke="#FFF" stroke-linecap="square" stroke-width="2" d="M5.801 33.219L5.376 14.912" mask="url(#606d2deqcd)" transform="rotate(45 5.588 24.065)"/>
                                </g>
                            </g>
                            <g mask="url(#0qk833lqmb)">
                                <g transform="translate(5 6)">
                                    <mask id="4vppn38tkf" fill="#fff">
                                        <use xlink:href="#xyiix1b7se"/>
                                    </mask>
                                    <path stroke="#1D1D1D" stroke-linecap="square" stroke-width="2" d="M15.313 27.531L15.275 12.274" mask="url(#4vppn38tkf)" transform="rotate(135 15.294 19.902)"/>
                                </g>
                            </g>
                            <path stroke="#1D1D1D" stroke-dasharray="0 2.5" stroke-linecap="round" stroke-linejoin="round" stroke-width=".5" d="M6 49c10.556-3.512 19-14.049 19-24.585V6.854L9.675 2.132 6 1" mask="url(#0qk833lqmb)" transform="matrix(-1 0 0 1 31 0)"/>
                        </g>
                    </g>
                </g>
            </g>
        </g>
    </g>
</svg>
