<svg xmlns="http://www.w3.org/2000/svg" xmlns:xlink="http://www.w3.org/1999/xlink" width="50" height="50" viewBox="0 0 50 50">
    <defs>
        <path id="7pc2xywwha" d="M0 0H50V50H0z"/>
    </defs>
    <g fill="none" fill-rule="evenodd">
        <g>
            <g>
                <g>
                    <g>
                        <g>
                            <g transform="translate(-517 -4820) translate(0 4588) translate(80 120) translate(0 112) translate(436) translate(1)">
                                <mask id="roh1suhz0b" fill="#fff">
                                    <use xlink:href="#7pc2xywwha"/>
                                </mask>
                                <use fill="#FFF" xlink:href="#7pc2xywwha"/>
                                <path stroke="#1D1D1D" stroke-width=".5" d="M17 16.8h4V14c0-2.21 1.79-4 4-4h13c2.21 0 4 1.79 4 4v5.067h4c1.657 0 3 1.343 3 3V27h0-35v-7.2c0-1.657 1.343-3 3-3z" mask="url(#roh1suhz0b)"/>
                                <path fill="#00A699" d="M4 27h3.75v-3c0-1.657 1.343-3 3-3h8.059c1.63 0 2.962 1.302 2.999 2.932l.125 5.535H23c1.105 0 2 .895 2 2V34H2v-5c0-1.105.895-2 2-2z" mask="url(#roh1suhz0b)"/>
                                <path stroke="#1D1D1D" stroke-dasharray="0 2" stroke-linecap="round" stroke-linejoin="round" stroke-width=".5" d="M10 42h28v-4H18V22h10" mask="url(#roh1suhz0b)" transform="rotate(-90 24 32)"/>
                            </g>
                        </g>
                    </g>
                </g>
            </g>
        </g>
    </g>
</svg>
