<?xml version="1.0" encoding="UTF-8"?>
<svg width="50px" height="50px" viewBox="0 0 50 50" version="1.1" xmlns="http://www.w3.org/2000/svg" xmlns:xlink="http://www.w3.org/1999/xlink">
    <title>Phone support Copy 4</title>
    <g id="Phone-support-Copy-4" stroke="none" stroke-width="1" fill="none" fill-rule="evenodd">
        <g id="Group-2" transform="translate(9.000000, 5.000000)">
            <g id="Group" transform="translate(3.000000, 0.000000)">
                <path d="M26,3.5 L26,37.5833333 C26,39.4703062 24.1620111,41 21.8947368,41 L4.10526316,41 C1.83798892,41 0,39.4703062 0,37.5833333 L0,3.41666667 C0,1.52969377 1.83798892,0 4.10526316,0 L21.8947368,0 C24.1620111,0 26,1.52969377 26,3.41666667 L26,3.5 Z" id="Path" stroke="#1D1D1D" stroke-width="0.5"></path>
                <path d="M0,33 L26,33 L26,38 C26,39.6568542 24.6568542,41 23,41 L3,41 C1.34314575,41 2.02906125e-16,39.6568542 0,38 L0,33 L0,33 Z" id="Rectangle-Copy-9" stroke="#00A699" stroke-width="0.5" fill="#00A699"></path>
                <circle id="Oval" fill="#FFFFFF" cx="13" cy="37" r="2"></circle>
            </g>
            <rect id="Rectangle" stroke="#1D1D1D" stroke-width="0.5" fill="#FFFFFF" x="0.25" y="7.25" width="31.5" height="15.5" rx="1"></rect>
            <polygon id="Stroke-4-Copy-4" fill="#00A699" points="8 14.2352941 5.36842105 14.2352941 5.36842105 16 4.31578947 14.2352941 3 14.2352941 3 10 8 10"></polygon>
            <rect id="Rectangle-Copy-17" fill="#1D1D1D" x="11" y="10" width="18" height="2"></rect>
            <rect id="Rectangle-Copy-18" fill="#1D1D1D" x="11" y="14" width="18" height="2"></rect>
            <rect id="Rectangle-Copy-19" fill="#1D1D1D" x="11" y="18" width="18" height="2"></rect>
        </g>
    </g>
</svg>