<?xml version="1.0" encoding="UTF-8"?>
<svg width="50px" height="50px" viewBox="0 0 50 50" version="1.1" xmlns="http://www.w3.org/2000/svg" xmlns:xlink="http://www.w3.org/1999/xlink">
    <title>Repay icon</title>
    <g id="Repay-icon" stroke="none" stroke-width="1" fill="none" fill-rule="evenodd">
        <path d="M24.5,47 C35.2695526,47 44,38.045695 44,27 C44,15.954305 35.2695526,7 24.5,7 C13.7304474,7 5,15.954305 5,27 C5,38.045695 13.7304474,47 24.5,47 Z" id="Oval" stroke="#1D1D1D" stroke-width="0.5" stroke-linecap="round" stroke-linejoin="round" stroke-dasharray="0,2"></path>
        <path d="M25,7 C16.1732271,7 8.66625916,12.5842322 5.89927719,20.3727799 M5,30.0783921 C6.4982742,39.6625654 14.8820544,47 25,47 M43.6563824,31 C43.881815,29.7332281 44,28.4236765 44,27.0834854 C44,23.1439461 42.9787791,19.4691588 41.2141474,16.3674879 C41.143936,16.2440782 41.0725477,16.1215757 41,16" id="Shape" stroke="#1D1D1D" stroke-width="0.5" stroke-linecap="square"></path>
        <g id="Group-2" transform="translate(19.000000, 2.000000)">
            <path d="M9,9 C9,9 9,-3 9,-3 C5.6862915,-3 3,-0.313708499 3,3 C3,6.3137085 5.6862915,9 9,9 Z" id="Oval-Copy-4" fill="#00A699" transform="translate(6.000000, 3.000000) rotate(-270.000000) translate(-6.000000, -3.000000) "></path>
            <path d="M9,15 C9,15 9,3 9,3 C5.6862915,3 3,5.6862915 3,9 C3,12.3137085 5.6862915,15 9,15 Z" id="Oval-Copy-5" fill="#1D1D1D" transform="translate(6.000000, 9.000000) rotate(-90.000000) translate(-6.000000, -9.000000) "></path>
        </g>
        <g id="Group-2-Copy" transform="translate(4.000000, 35.000000)">
            <path d="M9,9 C9,9 9,-3 9,-3 C5.6862915,-3 3,-0.313708499 3,3 C3,6.3137085 5.6862915,9 9,9 Z" id="Oval-Copy-4" fill="#00A699" transform="translate(6.000000, 3.000000) rotate(-270.000000) translate(-6.000000, -3.000000) "></path>
            <path d="M9,15 C9,15 9,3 9,3 C5.6862915,3 3,5.6862915 3,9 C3,12.3137085 5.6862915,15 9,15 Z" id="Oval-Copy-5" fill="#1D1D1D" transform="translate(6.000000, 9.000000) rotate(-90.000000) translate(-6.000000, -9.000000) "></path>
        </g>
        <g id="Group-2-Copy-2" transform="translate(34.000000, 35.000000)">
            <path d="M9,9 C9,9 9,-3 9,-3 C5.6862915,-3 3,-0.313708499 3,3 C3,6.3137085 5.6862915,9 9,9 Z" id="Oval-Copy-4" fill="#00A699" transform="translate(6.000000, 3.000000) rotate(-270.000000) translate(-6.000000, -3.000000) "></path>
            <path d="M9,15 C9,15 9,3 9,3 C5.6862915,3 3,5.6862915 3,9 C3,12.3137085 5.6862915,15 9,15 Z" id="Oval-Copy-5" fill="#1D1D1D" transform="translate(6.000000, 9.000000) rotate(-90.000000) translate(-6.000000, -9.000000) "></path>
        </g>
        <path d="M30.3535,35 L30.3535,32.654 L22.1655,32.654 C22.7328333,32.102 23.1391667,31.504 23.3845,30.86 C23.6298333,30.216 23.7525,29.5796667 23.7525,28.951 C23.7525,28.6903333 23.7295,28.422 23.6835,28.146 L23.6835,28.146 L27.4325,28.146 L27.4325,26.122 L23.1315,26.122 C22.9781667,25.6926667 22.8401667,25.2671667 22.7175,24.8455 C22.5948333,24.4238333 22.5335,24.0136667 22.5335,23.615 C22.5335,22.741 22.7788333,22.097 23.2695,21.683 C23.7601667,21.269 24.3428333,21.062 25.0175,21.062 C25.8301667,21.062 26.4511667,21.3035 26.8805,21.7865 C27.3098333,22.2695 27.5398333,22.8713333 27.5705,23.592 L27.5705,23.592 L30.2845,23.592 C30.2385,22.672 30.0161667,21.8363333 29.6175,21.085 C29.2188333,20.3336667 28.6361667,19.7356667 27.8695,19.291 C27.1028333,18.8463333 26.1368333,18.624 24.9715,18.624 C23.9441667,18.624 23.0356667,18.8195 22.246,19.2105 C21.4563333,19.6015 20.843,20.165 20.406,20.901 C19.969,21.637 19.7505,22.511 19.7505,23.523 C19.7505,23.9983333 19.8003333,24.4506667 19.9,24.88 C19.9996667,25.3093333 20.1185,25.7233333 20.2565,26.122 L20.2565,26.122 L18.2785,26.122 L18.2785,28.146 L20.9005,28.146 C20.9465,28.422 20.9695,28.6903333 20.9695,28.951 C20.9695,29.963 20.8085,30.7871667 20.4865,31.4235 C20.1645,32.0598333 19.7045,32.677 19.1065,33.275 L19.1065,33.275 L19.1065,35 L30.3535,35 Z" id="£" fill="#00A699" fill-rule="nonzero"></path>
    </g>
</svg>