<?xml version="1.0" encoding="UTF-8"?>
<svg width="50px" height="50px" viewBox="0 0 50 50" version="1.1" xmlns="http://www.w3.org/2000/svg" xmlns:xlink="http://www.w3.org/1999/xlink">
    <title>filter</title>
    <g id="filter" stroke="none" stroke-width="1" fill="none" fill-rule="evenodd">
        <g id="Group-2" transform="translate(8.000000, 7.000000)">
            <g id="Group" stroke="#1D1D1D">
                <circle id="Oval-Copy-7" stroke-width="0.5" transform="translate(5.000000, 5.000000) rotate(-90.000000) translate(-5.000000, -5.000000) " cx="5" cy="5" r="5"></circle>
                <line x1="15.625" y1="5.5" x2="34.375" y2="5.5" id="Line-23" stroke-width="2"></line>
            </g>
            <g id="Group-Copy" transform="translate(0.000000, 25.000000)" stroke="#1D1D1D">
                <path d="M5,10 C7.76142375,10 10,7.76142375 10,5 C10,2.23857625 7.76142375,0 5,0 C2.23857625,0 0,2.23857625 0,5 C0,7.76142375 2.23857625,10 5,10 Z" id="Oval-Copy-7" stroke-width="0.5" stroke-linecap="round" stroke-linejoin="round" stroke-dasharray="0,2.2" transform="translate(5.000000, 5.000000) rotate(-90.000000) translate(-5.000000, -5.000000) "></path>
                <line x1="15.625" y1="5.5" x2="34.375" y2="5.5" id="Line-23" stroke-width="2"></line>
            </g>
            <g id="Group-Copy-2" transform="translate(17.500000, 17.000000) scale(-1, 1) translate(-17.500000, -17.000000) translate(0.000000, 12.000000)">
                <circle id="Oval-Copy-7" fill="#00A699" transform="translate(5.000000, 5.000000) rotate(-90.000000) translate(-5.000000, -5.000000) " cx="5" cy="5" r="5"></circle>
                <line x1="15.625" y1="5.5" x2="34.375" y2="5.5" id="Line-23" stroke="#1D1D1D" stroke-width="2"></line>
            </g>
        </g>
    </g>
</svg>